if (_typeface_js && _typeface_js.loadFace) _typeface_js.loadFace({"glyphs":{"0":{"ha":340,"x_min":35,"x_max":342,"o":"m 342 317 q 334 256 342 291 q 309 185 325 222 q 272 115 294 149 q 224 53 250 80 q 169 9 198 26 q 109 -7 140 -7 q 76 0 90 -7 q 53 19 62 7 q 40 47 44 31 q 35 81 35 63 q 45 140 35 106 q 73 208 56 173 q 115 275 91 242 q 165 335 138 309 q 222 377 193 361 q 279 393 251 393 q 309 387 297 393 q 328 371 321 381 q 339 347 336 361 q 342 317 342 333 m 317 330 q 309 365 317 349 q 280 380 302 380 q 234 361 258 380 q 188 313 210 342 q 144 247 165 283 q 109 175 124 211 q 85 107 94 139 q 76 57 76 76 q 85 21 76 36 q 117 6 94 6 q 164 24 140 6 q 210 72 188 43 q 252 138 232 101 q 286 210 271 174 q 308 278 300 246 q 317 330 317 310 "},"1":{"ha":256,"x_min":41,"x_max":289,"o":"m 286 375 l 83 3 q 65 0 77 0 q 47 -1 54 -1 q 44 -1 46 -1 q 41 0 43 0 l 41 4 q 133 168 87 86 q 224 331 178 249 q 171 287 198 307 q 113 248 144 266 l 111 248 l 108 253 l 109 257 q 174 307 144 283 q 233 361 204 331 q 247 375 239 368 q 264 384 255 382 l 285 386 q 289 385 286 387 l 289 382 l 286 375 "},"2":{"ha":331,"x_min":1,"x_max":341,"o":"m 341 334 q 327 292 341 316 q 289 242 312 269 q 238 190 266 216 q 182 140 210 163 q 132 98 155 117 q 96 68 109 79 q 115 59 102 65 q 142 46 128 52 q 170 35 157 39 q 189 30 182 30 q 215 37 203 30 q 238 54 228 45 q 255 70 248 62 q 265 79 262 78 l 270 75 l 270 73 q 249 49 262 62 q 222 22 237 35 q 192 1 207 9 q 163 -8 176 -8 q 140 -3 155 -8 q 109 9 125 3 q 78 23 92 16 q 57 32 63 29 l 9 -5 l 1 0 q 11 13 1 2 q 33 38 21 24 q 55 62 45 51 q 67 73 66 73 q 75 74 71 74 q 82 73 79 74 q 117 104 96 85 q 162 147 138 123 q 209 196 185 170 q 251 247 233 222 q 282 296 270 273 q 294 340 294 320 q 285 362 294 355 q 261 370 276 370 q 224 359 241 370 q 192 334 207 349 q 166 299 178 318 q 149 264 155 281 l 146 262 l 138 262 l 137 266 q 159 310 145 288 q 191 350 172 332 q 231 379 209 368 q 279 391 254 391 q 323 376 305 391 q 341 334 341 362 "},"3":{"ha":311,"x_min":7,"x_max":330,"o":"m 330 350 q 314 304 330 324 q 274 268 298 283 q 225 240 251 252 q 179 222 199 229 q 210 219 194 222 q 240 209 227 216 q 262 190 253 201 q 271 159 271 178 q 250 98 271 128 q 199 44 230 68 q 134 7 169 21 q 70 -7 99 -7 q 37 -4 54 -7 q 7 9 20 -1 l 7 12 l 12 16 l 15 18 q 38 10 24 13 q 62 7 52 7 q 117 22 89 7 q 170 59 146 37 q 209 110 193 82 q 224 165 224 138 q 211 196 224 186 q 177 207 197 207 q 153 204 165 207 q 130 197 141 201 l 125 199 l 124 205 l 127 209 q 172 229 145 216 q 223 260 199 242 q 266 300 248 278 q 283 346 283 321 q 276 365 283 359 q 256 370 269 370 q 230 364 243 370 q 204 349 216 358 q 181 330 192 340 q 163 310 171 319 l 159 310 l 155 314 l 155 317 q 180 345 166 332 q 209 369 193 358 q 242 386 224 379 q 278 392 259 392 q 314 382 298 392 q 330 350 330 373 "},"4":{"ha":315,"x_min":54,"x_max":330,"o":"m 329 381 q 313 357 330 376 q 270 313 296 338 q 213 259 243 288 q 154 205 182 231 q 105 162 126 180 q 79 139 85 144 l 227 142 l 271 227 q 288 238 275 237 q 309 240 300 239 l 313 238 l 314 234 q 308 219 314 233 q 293 191 301 206 q 278 161 285 175 q 269 144 271 146 l 285 144 l 289 141 l 286 134 l 281 130 l 261 130 q 249 104 258 123 q 229 64 239 85 q 209 26 218 43 q 197 5 200 8 q 190 2 196 4 q 176 -1 184 1 q 162 -4 169 -3 q 154 -5 156 -5 l 151 -4 l 151 -1 q 155 9 151 0 q 167 32 160 18 q 182 61 174 45 q 198 91 191 77 q 211 115 205 104 q 218 127 217 125 l 54 123 l 54 129 q 55 131 54 130 q 56 134 55 132 q 108 190 79 162 q 162 246 138 218 q 209 300 186 273 q 254 357 232 328 q 269 373 262 368 q 283 381 276 378 q 300 384 291 383 q 323 388 310 385 l 328 386 l 329 381 l 329 381 "},"5":{"ha":302,"x_min":-8,"x_max":344,"o":"m 344 391 q 315 354 334 366 q 272 337 296 342 q 222 334 248 333 q 176 336 197 335 l 101 207 q 144 229 120 220 q 192 237 169 237 q 240 223 220 237 q 260 178 260 209 q 250 132 260 155 q 222 88 239 109 q 182 50 205 67 q 135 19 159 32 q 86 -1 111 6 q 40 -9 62 -9 q 15 -7 31 -9 q -8 -1 0 -6 l -8 4 l -4 9 l -1 10 q 19 5 8 7 q 41 4 31 4 q 100 20 69 4 q 156 62 130 37 q 198 117 181 87 q 214 176 214 148 q 203 209 214 197 q 170 220 191 220 q 146 216 158 220 q 124 206 135 212 q 102 194 113 200 q 81 182 92 187 l 77 183 l 77 187 q 86 207 78 192 q 105 243 94 222 q 130 286 117 263 q 155 328 143 308 q 175 360 166 347 q 185 376 183 374 q 221 381 201 382 q 263 378 242 380 q 305 379 285 377 q 341 392 326 380 l 344 391 l 344 391 "},"6":{"ha":286,"x_min":25,"x_max":294,"o":"m 294 391 q 292 389 292 390 q 290 386 292 387 q 268 366 281 376 q 244 347 255 356 q 157 251 196 302 q 126 208 142 233 q 97 156 111 183 q 74 101 83 129 q 65 50 65 74 q 75 20 65 33 q 102 8 84 8 q 149 27 126 8 q 190 73 172 46 q 219 129 208 100 q 230 180 230 159 q 225 200 230 192 q 207 208 220 208 q 174 196 190 208 q 146 168 159 184 q 123 132 133 151 q 109 100 114 114 l 106 96 l 99 96 l 98 100 q 114 142 102 119 q 143 184 126 165 q 180 216 159 203 q 223 229 201 229 q 259 213 247 229 q 271 175 271 197 q 255 114 271 146 q 214 55 239 82 q 158 10 189 28 q 98 -7 127 -7 q 45 12 64 -7 q 25 65 25 31 q 38 128 25 96 q 71 192 50 160 q 119 253 92 223 q 175 310 146 283 q 233 359 204 337 q 285 398 261 382 l 289 399 l 294 391 l 294 391 "},"7":{"ha":331,"x_min":7,"x_max":392,"o":"m 391 376 q 325 305 359 340 q 258 235 292 271 q 180 149 217 193 q 106 58 142 104 q 97 47 104 56 q 83 29 90 39 q 68 12 75 20 q 60 3 62 4 q 37 -1 52 -1 q 12 -3 22 -2 l 7 -1 l 7 1 q 22 22 8 6 q 57 60 35 38 q 106 111 79 83 q 163 167 134 138 q 221 223 192 195 q 274 274 250 251 q 315 313 298 297 q 338 336 332 330 q 284 337 311 336 q 231 338 258 338 q 196 331 208 338 q 175 314 183 323 q 162 298 168 305 q 150 290 157 290 l 148 291 l 148 295 q 172 339 161 322 q 197 366 183 356 q 230 379 211 376 q 279 383 249 383 q 328 382 303 383 q 376 378 352 382 q 382 382 378 380 q 389 385 387 385 l 392 381 l 391 376 "},"8":{"ha":285,"x_min":9,"x_max":313,"o":"m 313 339 q 302 297 313 318 q 276 258 292 277 q 243 222 260 239 q 210 193 225 205 q 221 156 220 172 q 223 117 223 139 q 211 68 223 91 q 179 29 199 46 q 136 2 160 12 q 87 -7 111 -7 q 58 -3 72 -7 q 33 9 44 1 q 16 30 22 18 q 9 58 9 42 q 24 106 9 82 q 61 153 39 131 q 106 194 82 176 q 148 227 130 213 q 136 281 136 253 q 146 323 136 303 q 171 358 155 343 q 208 382 187 374 q 250 391 229 391 q 294 379 276 391 q 313 339 313 367 m 288 340 q 278 368 288 357 q 251 378 269 378 q 224 371 237 378 q 201 354 211 365 q 186 331 191 344 q 180 303 180 317 q 183 279 180 292 q 189 254 185 267 q 197 229 193 241 q 205 207 201 217 q 234 233 219 218 q 260 266 248 248 q 280 302 273 283 q 288 340 288 321 m 180 106 q 170 161 180 132 q 151 214 161 190 q 114 183 134 200 q 78 146 94 166 q 51 103 62 126 q 41 56 41 81 q 53 20 41 34 q 88 7 64 7 q 124 16 107 7 q 153 38 140 24 q 173 70 165 52 q 180 106 180 88 "},"9":{"ha":295,"x_min":39,"x_max":297,"o":"m 297 309 q 272 214 297 262 q 208 124 246 167 q 127 45 170 81 q 47 -15 83 9 l 43 -15 l 39 -9 l 42 -5 q 172 119 118 49 q 250 281 226 189 q 255 306 253 293 q 256 330 256 318 q 249 363 256 349 q 219 377 241 377 q 171 361 195 377 q 130 320 148 345 q 100 268 111 296 q 89 218 89 241 q 97 191 89 202 q 123 180 105 180 q 155 190 140 180 q 181 214 170 199 q 201 244 193 228 q 216 275 210 260 l 218 277 l 226 276 l 227 273 q 207 232 219 254 q 178 189 195 209 q 141 155 161 168 q 98 141 121 141 q 62 156 75 141 q 50 194 50 172 q 67 257 50 222 q 111 321 85 292 q 170 371 138 351 q 231 391 201 391 q 261 384 248 391 q 281 366 273 377 q 293 339 290 354 q 297 309 297 325 "}," ":{"ha":176,"x_min":0,"x_max":0,"o":""},"Æ":{"ha":931,"x_min":12,"x_max":918,"o":"m 880 149 q 909 124 901 138 q 916 92 918 109 q 901 56 914 75 q 866 18 888 37 q 807 -21 841 -3 q 732 -51 772 -39 q 648 -71 692 -64 q 559 -77 604 -77 q 440 -59 489 -77 q 364 -12 392 -41 q 330 54 336 18 q 336 126 323 90 q 302 89 321 109 q 260 48 283 68 q 212 11 237 28 q 161 -18 187 -7 q 110 -32 136 -29 q 61 -24 85 -34 q 24 13 37 -14 q 13 76 12 39 q 25 157 13 113 q 64 247 38 201 q 91 292 77 270 q 123 333 106 313 q 86 354 103 342 q 56 380 68 366 q 44 399 48 388 q 40 422 41 411 q 42 443 39 433 q 50 456 44 452 q 61 460 56 465 q 62 444 67 456 q 60 416 55 428 q 76 390 64 404 q 136 347 98 365 q 205 415 168 382 q 284 471 242 447 q 371 510 326 496 q 467 524 417 524 q 524 515 499 524 q 563 490 548 506 q 618 517 589 505 q 678 535 648 528 q 737 544 708 542 q 790 544 766 547 q 859 526 833 539 q 898 496 886 513 q 908 459 909 479 q 892 420 906 439 q 852 387 878 402 q 790 363 826 372 q 768 361 774 360 q 761 365 761 362 q 768 372 762 368 q 787 376 775 375 q 820 389 804 378 q 847 415 836 400 q 863 449 858 431 q 862 483 867 467 q 840 511 857 499 q 789 526 822 523 q 733 526 762 529 q 677 515 705 523 q 624 494 649 507 q 578 466 598 482 q 583 438 583 452 q 569 393 583 417 q 523 348 555 369 q 542 316 528 328 q 575 296 556 304 q 613 285 593 289 q 650 276 633 281 q 676 265 666 271 q 684 247 686 258 q 665 235 682 236 q 621 235 648 234 q 562 235 595 235 q 496 224 529 234 q 432 189 458 214 q 392 132 405 163 q 380 66 378 100 q 400 4 381 32 q 459 -43 420 -24 q 561 -61 498 -61 q 643 -53 602 -61 q 721 -30 684 -44 q 789 1 758 -16 q 842 37 820 19 q 873 70 860 53 q 891 101 886 86 q 892 126 896 115 q 873 140 888 136 q 856 146 860 142 q 854 152 852 150 q 863 154 857 154 q 880 149 870 153 m 555 446 q 532 413 541 430 q 522 376 523 395 l 521 373 q 555 446 555 404 m 545 479 q 514 499 534 492 q 469 507 494 507 q 380 492 421 507 q 304 453 340 477 q 238 398 269 429 q 178 332 207 366 q 263 317 218 319 q 372 319 308 314 q 425 327 401 321 q 470 341 450 333 q 468 349 469 345 q 467 358 467 353 q 489 425 468 395 q 545 479 510 455 m 562 267 q 515 290 539 275 q 477 326 491 305 q 430 312 456 318 q 372 303 404 307 q 265 300 315 298 q 168 319 216 303 q 145 286 158 306 q 118 243 132 266 q 91 195 104 220 q 69 148 78 170 q 48 44 43 83 q 78 -6 53 6 q 145 -4 104 -18 q 233 48 186 9 q 285 97 259 71 q 334 152 311 124 q 377 209 357 180 q 410 262 397 237 q 439 298 426 291 q 460 298 453 304 q 466 275 467 291 q 449 243 464 259 q 446 237 448 241 q 490 254 465 247 q 526 263 508 260 q 562 267 545 266 "},"Á":{"ha":483,"x_min":12,"x_max":607,"o":"m 583 438 q 572 398 583 420 q 537 357 562 376 q 472 323 512 338 q 372 303 431 309 q 265 300 315 298 q 168 319 216 303 q 145 286 158 306 q 118 243 132 266 q 91 195 104 220 q 69 148 78 170 q 48 44 43 83 q 78 -6 53 6 q 145 -4 104 -18 q 233 48 186 9 q 285 97 259 71 q 334 152 311 124 q 377 209 357 180 q 410 262 397 237 q 439 298 426 291 q 460 298 453 304 q 466 275 467 291 q 449 243 464 259 q 421 205 435 227 q 395 161 407 184 q 374 112 383 137 q 360 61 365 86 q 359 -1 352 18 q 382 -22 366 -21 q 418 -9 397 -24 q 460 30 439 5 q 491 75 475 50 q 519 126 507 100 q 530 136 524 136 q 530 123 536 136 q 519 100 526 113 q 504 72 512 86 q 486 42 495 57 q 467 15 477 27 q 447 -7 458 3 q 423 -26 436 -18 q 396 -39 410 -34 q 368 -43 382 -43 q 337 -33 349 -43 q 320 -7 326 -23 q 314 28 315 9 q 317 67 313 48 q 326 103 320 87 q 340 130 332 120 q 307 93 326 114 q 264 52 287 73 q 216 13 241 31 q 164 -17 190 -5 q 111 -31 138 -28 q 61 -24 85 -34 q 24 13 37 -14 q 13 76 12 39 q 25 157 13 113 q 64 247 38 201 q 91 292 77 270 q 123 333 106 313 q 86 354 103 342 q 56 380 68 366 q 44 399 48 388 q 40 422 41 411 q 42 443 39 433 q 50 456 44 452 q 61 460 56 465 q 62 444 67 456 q 60 416 55 428 q 76 390 64 404 q 136 347 98 365 q 205 415 168 382 q 284 471 242 447 q 371 510 326 496 q 467 524 417 524 q 552 500 522 524 q 583 438 583 476 m 555 446 q 531 492 555 477 q 469 507 506 507 q 380 492 421 507 q 304 453 340 477 q 238 398 269 429 q 178 332 207 366 q 263 317 218 319 q 372 319 308 314 q 448 334 414 323 q 506 361 482 345 q 543 399 530 378 q 555 446 555 421 m 604 613 q 593 605 603 610 q 570 592 584 599 q 541 578 556 585 q 511 565 525 570 q 488 555 498 559 q 477 553 479 552 q 475 562 471 556 q 488 572 476 564 q 514 591 500 581 q 542 611 528 602 q 559 623 555 620 q 577 633 567 629 q 598 631 588 637 q 605 624 604 629 q 604 613 607 618 "},"Ă":{"ha":483,"x_min":12,"x_max":589,"o":"m 583 438 q 572 398 583 420 q 537 357 562 376 q 472 323 512 338 q 372 303 431 309 q 265 300 315 298 q 168 319 216 303 q 145 286 158 306 q 118 243 132 266 q 91 195 104 220 q 69 148 78 170 q 48 44 43 83 q 78 -6 53 6 q 145 -4 104 -18 q 233 48 186 9 q 285 97 259 71 q 334 152 311 124 q 377 209 357 180 q 410 262 397 237 q 439 298 426 291 q 460 298 453 304 q 466 275 467 291 q 449 243 464 259 q 421 205 435 227 q 395 161 407 184 q 374 112 383 137 q 360 61 365 86 q 359 -1 352 18 q 382 -22 366 -21 q 418 -9 397 -24 q 460 30 439 5 q 491 75 475 50 q 519 126 507 100 q 530 136 524 136 q 530 123 536 136 q 519 100 526 113 q 504 72 512 86 q 486 42 495 57 q 467 15 477 27 q 447 -7 458 3 q 423 -26 436 -18 q 396 -39 410 -34 q 368 -43 382 -43 q 337 -33 349 -43 q 320 -7 326 -23 q 314 28 315 9 q 317 67 313 48 q 326 103 320 87 q 340 130 332 120 q 307 93 326 114 q 264 52 287 73 q 216 13 241 31 q 164 -17 190 -5 q 111 -31 138 -28 q 61 -24 85 -34 q 24 13 37 -14 q 13 76 12 39 q 25 157 13 113 q 64 247 38 201 q 91 292 77 270 q 123 333 106 313 q 86 354 103 342 q 56 380 68 366 q 44 399 48 388 q 40 422 41 411 q 42 443 39 433 q 50 456 44 452 q 61 460 56 465 q 62 444 67 456 q 60 416 55 428 q 76 390 64 404 q 136 347 98 365 q 205 415 168 382 q 284 471 242 447 q 371 510 326 496 q 467 524 417 524 q 552 500 522 524 q 583 438 583 476 m 555 446 q 531 492 555 477 q 469 507 506 507 q 380 492 421 507 q 304 453 340 477 q 238 398 269 429 q 178 332 207 366 q 263 317 218 319 q 372 319 308 314 q 448 334 414 323 q 506 361 482 345 q 543 399 530 378 q 555 446 555 421 m 573 625 q 584 630 578 631 q 588 625 589 630 q 551 582 576 597 q 494 566 526 566 q 475 568 485 566 q 456 575 465 570 q 441 586 448 579 q 433 602 435 593 q 434 626 430 620 q 444 633 438 633 q 448 630 446 633 q 451 623 449 627 q 454 615 452 619 q 460 606 456 610 q 482 593 471 596 q 507 589 492 589 q 531 592 522 589 q 548 600 541 595 q 561 611 555 604 q 573 625 567 617 "},"Â":{"ha":483,"x_min":12,"x_max":583,"o":"m 583 438 q 572 398 583 420 q 537 357 562 376 q 472 323 512 338 q 372 303 431 309 q 265 300 315 298 q 168 319 216 303 q 145 286 158 306 q 118 243 132 266 q 91 195 104 220 q 69 148 78 170 q 48 44 43 83 q 78 -6 53 6 q 145 -4 104 -18 q 233 48 186 9 q 285 97 259 71 q 334 152 311 124 q 377 209 357 180 q 410 262 397 237 q 439 298 426 291 q 460 298 453 304 q 466 275 467 291 q 449 243 464 259 q 421 205 435 227 q 395 161 407 184 q 374 112 383 137 q 360 61 365 86 q 359 -1 352 18 q 382 -22 366 -21 q 418 -9 397 -24 q 460 30 439 5 q 491 75 475 50 q 519 126 507 100 q 530 136 524 136 q 530 123 536 136 q 519 100 526 113 q 504 72 512 86 q 486 42 495 57 q 467 15 477 27 q 447 -7 458 3 q 423 -26 436 -18 q 396 -39 410 -34 q 368 -43 382 -43 q 337 -33 349 -43 q 320 -7 326 -23 q 314 28 315 9 q 317 67 313 48 q 326 103 320 87 q 340 130 332 120 q 307 93 326 114 q 264 52 287 73 q 216 13 241 31 q 164 -17 190 -5 q 111 -31 138 -28 q 61 -24 85 -34 q 24 13 37 -14 q 13 76 12 39 q 25 157 13 113 q 64 247 38 201 q 91 292 77 270 q 123 333 106 313 q 86 354 103 342 q 56 380 68 366 q 44 399 48 388 q 40 422 41 411 q 42 443 39 433 q 50 456 44 452 q 61 460 56 465 q 62 444 67 456 q 60 416 55 428 q 76 390 64 404 q 136 347 98 365 q 205 415 168 382 q 284 471 242 447 q 371 510 326 496 q 467 524 417 524 q 552 500 522 524 q 583 438 583 476 m 555 446 q 531 492 555 477 q 469 507 506 507 q 380 492 421 507 q 304 453 340 477 q 238 398 269 429 q 178 332 207 366 q 263 317 218 319 q 372 319 308 314 q 448 334 414 323 q 506 361 482 345 q 543 399 530 378 q 555 446 555 421 m 547 550 q 543 546 549 545 q 534 550 536 547 l 503 598 q 461 576 479 586 q 431 559 446 567 q 413 550 416 551 q 407 547 410 548 q 400 546 403 546 q 395 548 397 547 q 396 550 394 549 l 497 622 q 510 623 505 623 q 518 624 515 624 q 523 622 522 623 l 547 550 "},"Ä":{"ha":483,"x_min":12,"x_max":583,"o":"m 583 438 q 572 398 583 420 q 537 357 562 376 q 472 323 512 338 q 372 303 431 309 q 265 300 315 298 q 168 319 216 303 q 145 286 158 306 q 118 243 132 266 q 91 195 104 220 q 69 148 78 170 q 48 44 43 83 q 78 -6 53 6 q 145 -4 104 -18 q 233 48 186 9 q 285 97 259 71 q 334 152 311 124 q 377 209 357 180 q 410 262 397 237 q 439 298 426 291 q 460 298 453 304 q 466 275 467 291 q 449 243 464 259 q 421 205 435 227 q 395 161 407 184 q 374 112 383 137 q 360 61 365 86 q 359 -1 352 18 q 382 -22 366 -21 q 418 -9 397 -24 q 460 30 439 5 q 491 75 475 50 q 519 126 507 100 q 530 136 524 136 q 530 123 536 136 q 519 100 526 113 q 504 72 512 86 q 486 42 495 57 q 467 15 477 27 q 447 -7 458 3 q 423 -26 436 -18 q 396 -39 410 -34 q 368 -43 382 -43 q 337 -33 349 -43 q 320 -7 326 -23 q 314 28 315 9 q 317 67 313 48 q 326 103 320 87 q 340 130 332 120 q 307 93 326 114 q 264 52 287 73 q 216 13 241 31 q 164 -17 190 -5 q 111 -31 138 -28 q 61 -24 85 -34 q 24 13 37 -14 q 13 76 12 39 q 25 157 13 113 q 64 247 38 201 q 91 292 77 270 q 123 333 106 313 q 86 354 103 342 q 56 380 68 366 q 44 399 48 388 q 40 422 41 411 q 42 443 39 433 q 50 456 44 452 q 61 460 56 465 q 62 444 67 456 q 60 416 55 428 q 76 390 64 404 q 136 347 98 365 q 205 415 168 382 q 284 471 242 447 q 371 510 326 496 q 467 524 417 524 q 552 500 522 524 q 583 438 583 476 m 555 446 q 531 492 555 477 q 469 507 506 507 q 380 492 421 507 q 304 453 340 477 q 238 398 269 429 q 178 332 207 366 q 263 317 218 319 q 372 319 308 314 q 448 334 414 323 q 506 361 482 345 q 543 399 530 378 q 555 446 555 421 m 566 567 q 560 551 566 557 q 545 545 554 545 q 528 551 535 545 q 522 567 522 557 q 528 583 522 576 q 543 589 534 589 q 559 583 553 589 q 566 567 566 577 m 479 567 q 473 551 479 557 q 457 545 467 545 q 441 551 448 545 q 434 567 434 557 q 440 583 434 576 q 456 589 446 589 q 472 583 465 589 q 479 567 479 577 "},"À":{"ha":483,"x_min":12,"x_max":583,"o":"m 583 438 q 572 398 583 420 q 537 357 562 376 q 472 323 512 338 q 372 303 431 309 q 265 300 315 298 q 168 319 216 303 q 145 286 158 306 q 118 243 132 266 q 91 195 104 220 q 69 148 78 170 q 48 44 43 83 q 78 -6 53 6 q 145 -4 104 -18 q 233 48 186 9 q 285 97 259 71 q 334 152 311 124 q 377 209 357 180 q 410 262 397 237 q 439 298 426 291 q 460 298 453 304 q 466 275 467 291 q 449 243 464 259 q 421 205 435 227 q 395 161 407 184 q 374 112 383 137 q 360 61 365 86 q 359 -1 352 18 q 382 -22 366 -21 q 418 -9 397 -24 q 460 30 439 5 q 491 75 475 50 q 519 126 507 100 q 530 136 524 136 q 530 123 536 136 q 519 100 526 113 q 504 72 512 86 q 486 42 495 57 q 467 15 477 27 q 447 -7 458 3 q 423 -26 436 -18 q 396 -39 410 -34 q 368 -43 382 -43 q 337 -33 349 -43 q 320 -7 326 -23 q 314 28 315 9 q 317 67 313 48 q 326 103 320 87 q 340 130 332 120 q 307 93 326 114 q 264 52 287 73 q 216 13 241 31 q 164 -17 190 -5 q 111 -31 138 -28 q 61 -24 85 -34 q 24 13 37 -14 q 13 76 12 39 q 25 157 13 113 q 64 247 38 201 q 91 292 77 270 q 123 333 106 313 q 86 354 103 342 q 56 380 68 366 q 44 399 48 388 q 40 422 41 411 q 42 443 39 433 q 50 456 44 452 q 61 460 56 465 q 62 444 67 456 q 60 416 55 428 q 76 390 64 404 q 136 347 98 365 q 205 415 168 382 q 284 471 242 447 q 371 510 326 496 q 467 524 417 524 q 552 500 522 524 q 583 438 583 476 m 555 446 q 531 492 555 477 q 469 507 506 507 q 380 492 421 507 q 304 453 340 477 q 238 398 269 429 q 178 332 207 366 q 263 317 218 319 q 372 319 308 314 q 448 334 414 323 q 506 361 482 345 q 543 399 530 378 q 555 446 555 421 m 535 550 q 528 544 535 544 q 513 550 526 544 q 484 565 500 557 q 454 581 469 573 q 435 591 440 589 q 418 603 426 595 q 410 621 410 610 q 414 631 410 627 q 423 635 418 635 q 436 629 427 635 q 458 614 446 623 q 484 594 471 605 q 509 574 498 584 q 528 558 520 565 q 535 550 535 551 "},"Ā":{"ha":483,"x_min":12,"x_max":583,"o":"m 583 438 q 572 398 583 420 q 537 357 562 376 q 472 323 512 338 q 372 303 431 309 q 265 300 315 298 q 168 319 216 303 q 145 286 158 306 q 118 243 132 266 q 91 195 104 220 q 69 148 78 170 q 48 44 43 83 q 78 -6 53 6 q 145 -4 104 -18 q 233 48 186 9 q 285 97 259 71 q 334 152 311 124 q 377 209 357 180 q 410 262 397 237 q 439 298 426 291 q 460 298 453 304 q 466 275 467 291 q 449 243 464 259 q 421 205 435 227 q 395 161 407 184 q 374 112 383 137 q 360 61 365 86 q 359 -1 352 18 q 382 -22 366 -21 q 418 -9 397 -24 q 460 30 439 5 q 491 75 475 50 q 519 126 507 100 q 530 136 524 136 q 530 123 536 136 q 519 100 526 113 q 504 72 512 86 q 486 42 495 57 q 467 15 477 27 q 447 -7 458 3 q 423 -26 436 -18 q 396 -39 410 -34 q 368 -43 382 -43 q 337 -33 349 -43 q 320 -7 326 -23 q 314 28 315 9 q 317 67 313 48 q 326 103 320 87 q 340 130 332 120 q 307 93 326 114 q 264 52 287 73 q 216 13 241 31 q 164 -17 190 -5 q 111 -31 138 -28 q 61 -24 85 -34 q 24 13 37 -14 q 13 76 12 39 q 25 157 13 113 q 64 247 38 201 q 91 292 77 270 q 123 333 106 313 q 86 354 103 342 q 56 380 68 366 q 44 399 48 388 q 40 422 41 411 q 42 443 39 433 q 50 456 44 452 q 61 460 56 465 q 62 444 67 456 q 60 416 55 428 q 76 390 64 404 q 136 347 98 365 q 205 415 168 382 q 284 471 242 447 q 371 510 326 496 q 467 524 417 524 q 552 500 522 524 q 583 438 583 476 m 555 446 q 531 492 555 477 q 469 507 506 507 q 380 492 421 507 q 304 453 340 477 q 238 398 269 429 q 178 332 207 366 q 263 317 218 319 q 372 319 308 314 q 448 334 414 323 q 506 361 482 345 q 543 399 530 378 q 555 446 555 421 m 559 560 l 414 560 l 427 586 l 571 586 l 559 560 "},"Ą":{"ha":483,"x_min":12,"x_max":583,"o":"m 583 438 q 572 398 583 420 q 537 357 562 376 q 472 323 512 338 q 372 303 431 309 q 265 300 315 298 q 168 319 216 303 q 145 286 158 306 q 118 243 132 266 q 91 195 104 220 q 69 148 78 170 q 48 44 43 83 q 78 -6 53 6 q 145 -4 104 -18 q 233 48 186 9 q 285 97 259 71 q 334 152 311 124 q 377 209 357 180 q 410 262 397 237 q 439 298 426 291 q 460 298 453 304 q 466 275 467 291 q 449 243 464 259 q 421 205 435 227 q 395 161 407 184 q 374 112 383 137 q 360 61 365 86 q 359 -1 352 18 q 382 -22 366 -21 q 418 -9 397 -24 q 460 30 439 5 q 491 75 475 50 q 519 126 507 100 q 530 136 524 136 q 530 123 536 136 q 519 100 526 113 q 504 72 512 86 q 486 42 495 57 q 467 15 477 27 q 447 -7 458 3 q 423 -26 436 -18 q 396 -39 410 -34 q 368 -43 382 -43 q 337 -33 349 -43 q 320 -7 326 -23 q 314 28 315 9 q 317 67 313 48 q 326 103 320 87 q 340 130 332 120 q 307 93 326 114 q 264 52 287 73 q 216 13 241 31 q 164 -17 190 -5 q 111 -31 138 -28 q 61 -24 85 -34 q 24 13 37 -14 q 13 76 12 39 q 25 157 13 113 q 64 247 38 201 q 91 292 77 270 q 123 333 106 313 q 86 354 103 342 q 56 380 68 366 q 44 399 48 388 q 40 422 41 411 q 42 443 39 433 q 50 456 44 452 q 61 460 56 465 q 62 444 67 456 q 60 416 55 428 q 76 390 64 404 q 136 347 98 365 q 205 415 168 382 q 284 471 242 447 q 371 510 326 496 q 467 524 417 524 q 552 500 522 524 q 583 438 583 476 m 555 446 q 531 492 555 477 q 469 507 506 507 q 380 492 421 507 q 304 453 340 477 q 238 398 269 429 q 178 332 207 366 q 263 317 218 319 q 372 319 308 314 q 448 334 414 323 q 506 361 482 345 q 543 399 530 378 q 555 446 555 421 m 441 -18 q 413 -43 427 -28 q 388 -72 399 -57 q 368 -102 376 -87 q 360 -128 361 -117 q 364 -144 360 -138 q 380 -151 368 -151 q 398 -144 389 -151 q 414 -130 408 -137 q 419 -129 416 -129 q 421 -133 422 -128 q 415 -145 420 -138 q 401 -157 410 -151 q 381 -167 392 -163 q 357 -171 370 -171 q 335 -163 344 -171 q 326 -140 326 -156 q 339 -104 327 -125 q 370 -65 352 -84 q 406 -31 387 -46 q 437 -11 425 -16 q 440 -11 439 -11 q 441 -18 442 -11 "},"Å":{"ha":483,"x_min":12,"x_max":583,"o":"m 583 438 q 572 398 583 420 q 537 357 562 376 q 472 323 512 338 q 372 303 431 309 q 265 300 315 298 q 168 319 216 303 q 145 286 158 306 q 118 243 132 266 q 91 195 104 220 q 69 148 78 170 q 48 44 43 83 q 78 -6 53 6 q 145 -4 104 -18 q 233 48 186 9 q 285 97 259 71 q 334 152 311 124 q 377 209 357 180 q 410 262 397 237 q 439 298 426 291 q 460 298 453 304 q 466 275 467 291 q 449 243 464 259 q 421 205 435 227 q 395 161 407 184 q 374 112 383 137 q 360 61 365 86 q 359 -1 352 18 q 382 -22 366 -21 q 418 -9 397 -24 q 460 30 439 5 q 491 75 475 50 q 518 126 507 100 q 523 134 520 131 q 528 137 526 137 q 531 135 530 138 q 529 126 531 132 q 519 103 525 116 q 505 77 513 91 q 487 49 496 63 q 469 23 478 35 q 444 -3 458 9 q 414 -25 430 -16 q 381 -39 397 -35 q 351 -38 365 -43 q 328 -20 338 -34 q 316 21 319 -6 q 321 79 313 49 q 340 130 329 109 q 307 93 326 114 q 264 52 287 73 q 216 13 241 31 q 164 -17 190 -5 q 111 -31 138 -28 q 61 -24 85 -34 q 24 13 37 -14 q 13 76 12 39 q 25 157 13 113 q 64 247 38 201 q 91 292 77 270 q 123 333 106 313 q 86 354 103 342 q 56 380 68 366 q 44 399 48 388 q 40 422 41 411 q 42 443 39 433 q 50 456 44 452 q 61 460 56 465 q 62 444 67 456 q 60 416 55 428 q 76 390 64 404 q 136 347 98 365 q 205 415 168 382 q 284 471 242 447 q 371 510 326 496 q 467 524 417 524 q 552 500 522 524 q 583 438 583 476 m 555 446 q 531 492 555 477 q 469 507 506 507 q 380 492 421 507 q 304 453 340 477 q 238 398 269 429 q 178 332 207 366 q 263 317 218 319 q 372 319 308 314 q 448 334 414 323 q 506 361 482 345 q 543 399 530 378 q 555 446 555 421 m 511 583 q 516 565 511 572 q 530 558 522 558 q 546 566 540 558 q 553 585 552 574 q 549 603 555 595 q 534 609 543 610 q 519 601 526 608 q 511 583 513 594 m 488 582 q 504 608 489 597 q 537 620 519 618 q 568 610 556 621 q 578 585 579 600 q 562 558 576 569 q 528 547 547 547 q 497 556 509 546 q 488 582 486 567 "},"Ã":{"ha":483,"x_min":12,"x_max":608,"o":"m 583 438 q 572 398 583 420 q 537 357 562 376 q 472 323 512 338 q 372 303 431 309 q 265 300 315 298 q 168 319 216 303 q 145 286 158 306 q 118 243 132 266 q 91 195 104 220 q 69 148 78 170 q 48 44 43 83 q 78 -6 53 6 q 145 -4 104 -18 q 233 48 186 9 q 285 97 259 71 q 334 152 311 124 q 377 209 357 180 q 410 262 397 237 q 439 298 426 291 q 460 298 453 304 q 466 275 467 291 q 449 243 464 259 q 421 205 435 227 q 395 161 407 184 q 374 112 383 137 q 360 61 365 86 q 359 -1 352 18 q 382 -22 366 -21 q 418 -9 397 -24 q 460 30 439 5 q 491 75 475 50 q 519 126 507 100 q 530 136 524 136 q 530 123 536 136 q 519 100 526 113 q 504 72 512 86 q 486 42 495 57 q 467 15 477 27 q 447 -7 458 3 q 423 -26 436 -18 q 396 -39 410 -34 q 368 -43 382 -43 q 337 -33 349 -43 q 320 -7 326 -23 q 314 28 315 9 q 317 67 313 48 q 326 103 320 87 q 340 130 332 120 q 307 93 326 114 q 264 52 287 73 q 216 13 241 31 q 164 -17 190 -5 q 111 -31 138 -28 q 61 -24 85 -34 q 24 13 37 -14 q 13 76 12 39 q 25 157 13 113 q 64 247 38 201 q 91 292 77 270 q 123 333 106 313 q 86 354 103 342 q 56 380 68 366 q 44 399 48 388 q 40 422 41 411 q 42 443 39 433 q 50 456 44 452 q 61 460 56 465 q 62 444 67 456 q 60 416 55 428 q 76 390 64 404 q 136 347 98 365 q 205 415 168 382 q 284 471 242 447 q 371 510 326 496 q 467 524 417 524 q 552 500 522 524 q 583 438 583 476 m 555 446 q 531 492 555 477 q 469 507 506 507 q 380 492 421 507 q 304 453 340 477 q 238 398 269 429 q 178 332 207 366 q 263 317 218 319 q 372 319 308 314 q 448 334 414 323 q 506 361 482 345 q 543 399 530 378 q 555 446 555 421 m 607 610 q 596 591 602 601 q 581 573 589 581 q 562 560 572 565 q 540 556 552 555 q 519 561 529 557 q 498 570 509 565 q 478 578 488 574 q 458 583 468 582 q 437 577 446 584 q 422 560 428 570 q 419 558 422 559 q 414 558 416 557 q 409 559 411 558 q 407 562 406 560 q 418 579 412 570 q 433 596 425 589 q 452 609 441 604 q 473 612 462 613 q 495 608 484 612 q 515 600 505 604 q 535 592 526 596 q 555 588 545 589 q 578 593 569 587 q 593 612 587 600 q 596 613 593 613 q 601 613 598 614 q 606 612 604 613 q 607 610 608 611 "},"B":{"ha":706,"x_min":4,"x_max":740,"o":"m 723 331 q 694 299 712 313 q 655 278 676 286 q 611 265 633 269 q 570 260 589 261 q 607 247 587 255 q 646 226 627 238 q 679 199 664 214 q 699 164 693 183 q 701 106 707 133 q 675 57 694 79 q 630 18 657 35 q 571 -9 603 1 q 507 -24 540 -20 q 443 -24 473 -28 q 336 -3 378 -16 q 262 23 294 9 q 180 -18 223 -6 q 90 -24 136 -31 q 35 -6 55 -20 q 10 27 16 9 q 11 64 4 45 q 36 95 18 82 q 83 110 54 107 q 151 99 113 113 q 193 78 170 92 q 249 49 216 64 q 311 130 283 81 q 367 232 338 178 q 428 342 395 286 q 504 446 460 398 l 543 490 q 419 499 486 500 q 283 483 352 498 q 200 454 236 473 q 138 411 163 435 q 100 362 113 388 q 86 314 87 337 q 97 274 85 292 q 134 249 109 256 q 187 247 163 239 q 226 269 210 255 q 250 299 242 283 q 256 323 258 315 q 259 326 256 324 q 263 327 261 327 q 268 325 266 327 q 271 317 271 323 l 271 317 q 252 272 267 292 q 217 241 237 253 q 173 227 197 230 q 127 233 149 224 q 74 268 92 245 q 55 319 56 291 q 68 377 54 347 q 112 435 82 408 q 187 482 142 462 q 292 511 232 503 q 431 520 363 522 q 559 505 499 518 q 577 519 568 513 q 596 528 587 525 q 614 530 612 535 q 603 518 615 526 q 590 508 596 513 q 583 500 585 503 q 661 472 627 488 q 714 434 694 455 q 737 386 734 412 q 723 331 740 360 m 639 462 q 609 474 625 469 q 575 483 593 479 q 507 378 541 436 q 439 261 473 319 q 371 150 405 203 q 303 60 337 96 q 290 47 296 53 q 277 35 284 41 q 349 11 309 22 q 442 -5 389 0 q 524 1 486 -9 q 589 32 562 12 q 634 78 617 52 q 652 130 650 104 q 641 181 654 157 q 594 220 627 205 q 553 237 574 230 q 514 249 532 243 q 483 260 496 255 q 468 270 471 264 q 476 281 468 279 q 497 283 484 283 q 529 281 511 283 q 566 279 547 279 q 610 289 587 279 q 650 314 632 299 q 681 349 669 330 q 694 389 693 369 q 683 428 695 409 q 639 462 670 447 m 234 36 q 187 59 210 47 q 134 81 164 71 q 90 88 108 90 q 61 76 71 85 q 48 53 50 66 q 51 27 45 40 q 71 5 57 14 q 106 -5 84 -4 q 175 4 144 -7 q 234 36 207 16 "},"C":{"ha":481,"x_min":39,"x_max":579,"o":"m 529 124 q 508 83 518 102 q 485 46 497 64 q 457 14 473 29 q 420 -17 441 -2 q 363 -47 394 -35 q 299 -66 332 -60 q 229 -67 265 -71 q 156 -47 193 -63 q 88 1 113 -29 q 51 69 62 31 q 40 149 39 106 q 52 232 41 191 q 81 311 62 273 q 123 379 99 349 q 116 414 119 395 q 112 454 113 433 q 113 495 111 474 q 120 534 115 515 q 124 541 121 538 q 129 544 127 544 q 133 541 132 544 q 134 531 135 538 q 131 464 128 498 q 139 402 134 430 q 267 505 194 473 q 421 526 340 536 q 504 503 471 521 q 555 459 537 484 q 576 403 572 433 q 569 342 579 372 q 537 285 559 312 q 482 239 515 258 q 406 212 449 220 q 310 211 362 203 q 213 245 257 218 q 142 326 168 271 q 124 292 136 318 q 102 231 113 266 q 87 154 92 195 q 88 76 81 113 q 117 9 95 39 q 182 -35 138 -21 q 298 -44 237 -51 q 410 -6 359 -37 q 448 22 432 7 q 477 54 464 37 q 500 90 490 71 q 521 131 510 109 q 530 137 525 140 q 529 124 534 134 m 427 500 q 352 497 389 506 q 279 468 314 488 q 212 417 243 448 q 155 348 180 387 q 221 261 178 290 q 320 227 264 233 q 427 236 381 220 q 500 280 472 252 q 540 343 529 308 q 542 411 551 378 q 505 468 534 444 q 427 500 477 493 "},"A":{"ha":483,"x_min":12,"x_max":583,"o":"m 583 438 q 572 398 583 420 q 537 357 562 376 q 472 323 512 338 q 372 303 431 309 q 265 300 315 298 q 168 319 216 303 q 145 286 158 306 q 118 243 132 266 q 91 195 104 220 q 69 148 78 170 q 48 44 43 83 q 78 -6 53 6 q 145 -4 104 -18 q 233 48 186 9 q 285 97 259 71 q 334 152 311 124 q 377 209 357 180 q 410 262 397 237 q 439 298 426 291 q 460 298 453 304 q 466 275 467 291 q 449 243 464 259 q 421 205 435 227 q 395 161 407 184 q 374 112 383 137 q 360 61 365 86 q 359 -1 352 18 q 382 -22 366 -21 q 418 -9 397 -24 q 460 30 439 5 q 491 75 475 50 q 519 126 507 100 q 530 136 524 136 q 530 123 536 136 q 519 100 526 113 q 504 72 512 86 q 486 42 495 57 q 467 15 477 27 q 447 -7 458 3 q 423 -26 436 -18 q 396 -39 410 -34 q 368 -43 382 -43 q 337 -33 349 -43 q 320 -7 326 -23 q 314 28 315 9 q 317 67 313 48 q 326 103 320 87 q 340 130 332 120 q 307 93 326 114 q 264 52 287 73 q 216 13 241 31 q 164 -17 190 -5 q 111 -31 138 -28 q 61 -24 85 -34 q 24 13 37 -14 q 13 76 12 39 q 25 157 13 113 q 64 247 38 201 q 91 292 77 270 q 123 333 106 313 q 86 354 103 342 q 56 380 68 366 q 44 399 48 388 q 40 422 41 411 q 42 443 39 433 q 50 456 44 452 q 61 460 56 465 q 62 444 67 456 q 60 416 55 428 q 76 390 64 404 q 136 347 98 365 q 205 415 168 382 q 284 471 242 447 q 371 510 326 496 q 467 524 417 524 q 552 500 522 524 q 583 438 583 476 m 555 446 q 531 492 555 477 q 469 507 506 507 q 380 492 421 507 q 304 453 340 477 q 238 398 269 429 q 178 332 207 366 q 263 317 218 319 q 372 319 308 314 q 448 334 414 323 q 506 361 482 345 q 543 399 530 378 q 555 446 555 421 "},"Ć":{"ha":481,"x_min":39,"x_max":579,"o":"m 529 124 q 508 83 518 102 q 485 46 497 64 q 457 14 473 29 q 420 -17 441 -2 q 363 -47 394 -35 q 299 -66 332 -60 q 229 -67 265 -71 q 156 -47 193 -63 q 88 1 113 -29 q 51 69 62 31 q 40 149 39 106 q 52 232 41 191 q 81 311 62 273 q 123 379 99 349 q 116 414 119 395 q 112 454 113 433 q 113 495 111 474 q 120 534 115 515 q 124 541 121 538 q 129 544 127 544 q 133 541 132 544 q 134 531 135 538 q 131 464 128 498 q 139 402 134 430 q 267 505 194 473 q 421 526 340 536 q 504 503 471 521 q 555 459 537 484 q 576 403 572 433 q 569 342 579 372 q 537 285 559 312 q 482 239 515 258 q 406 212 449 220 q 310 211 362 203 q 213 245 257 218 q 142 326 168 271 q 124 292 136 318 q 102 231 113 266 q 87 154 92 195 q 88 76 81 113 q 117 9 95 39 q 182 -35 138 -21 q 298 -44 237 -51 q 410 -6 359 -37 q 448 22 432 7 q 477 54 464 37 q 500 90 490 71 q 521 131 510 109 q 530 137 525 140 q 529 124 534 134 m 427 500 q 352 497 389 506 q 279 468 314 488 q 212 417 243 448 q 155 348 180 387 q 221 261 178 290 q 320 227 264 233 q 427 236 381 220 q 500 280 472 252 q 540 343 529 308 q 542 411 551 378 q 505 468 534 444 q 427 500 477 493 m 559 629 q 549 621 558 627 q 525 608 539 615 q 496 594 511 602 q 467 581 480 587 q 444 572 453 575 q 433 569 434 568 q 431 578 427 572 q 443 589 431 580 q 469 608 455 597 q 497 627 484 618 q 514 640 510 636 q 533 649 522 646 q 553 648 543 653 q 561 640 559 645 q 559 629 562 635 "},"Č":{"ha":481,"x_min":39,"x_max":579,"o":"m 529 124 q 508 83 518 102 q 485 46 497 64 q 457 14 473 29 q 420 -17 441 -2 q 363 -47 394 -35 q 299 -66 332 -60 q 229 -67 265 -71 q 156 -47 193 -63 q 88 1 113 -29 q 51 69 62 31 q 40 149 39 106 q 52 232 41 191 q 81 311 62 273 q 123 379 99 349 q 116 414 119 395 q 112 454 113 433 q 113 495 111 474 q 120 534 115 515 q 124 541 121 538 q 129 544 127 544 q 133 541 132 544 q 134 531 135 538 q 131 464 128 498 q 139 402 134 430 q 267 505 194 473 q 421 526 340 536 q 504 503 471 521 q 555 459 537 484 q 576 403 572 433 q 569 342 579 372 q 537 285 559 312 q 482 239 515 258 q 406 212 449 220 q 310 211 362 203 q 213 245 257 218 q 142 326 168 271 q 124 292 136 318 q 102 231 113 266 q 87 154 92 195 q 88 76 81 113 q 117 9 95 39 q 182 -35 138 -21 q 298 -44 237 -51 q 410 -6 359 -37 q 448 22 432 7 q 477 54 464 37 q 500 90 490 71 q 521 131 510 109 q 530 137 525 140 q 529 124 534 134 m 427 500 q 352 497 389 506 q 279 468 314 488 q 212 417 243 448 q 155 348 180 387 q 221 261 178 290 q 320 227 264 233 q 427 236 381 220 q 500 280 472 252 q 540 343 529 308 q 542 411 551 378 q 505 468 534 444 q 427 500 477 493 m 395 651 q 400 655 393 656 q 409 651 407 654 l 440 603 q 481 625 463 615 q 512 642 497 634 q 530 651 526 649 q 536 654 532 653 q 543 655 540 655 q 547 653 546 654 q 547 651 549 652 l 446 579 q 433 578 438 578 q 424 577 428 577 q 420 579 420 578 l 395 651 "},"Ç":{"ha":481,"x_min":39,"x_max":579,"o":"m 529 124 q 508 83 518 102 q 485 46 497 64 q 457 14 473 29 q 420 -17 441 -2 q 363 -47 394 -35 q 299 -66 332 -60 q 229 -67 265 -71 q 156 -47 193 -63 q 88 1 113 -29 q 51 69 62 31 q 40 149 39 106 q 52 232 41 191 q 81 311 62 273 q 123 379 99 349 q 116 414 119 395 q 112 454 113 433 q 113 495 111 474 q 120 534 115 515 q 124 541 121 538 q 129 544 127 544 q 133 541 132 544 q 134 531 135 538 q 131 464 128 498 q 139 402 134 430 q 267 505 194 473 q 421 526 340 536 q 504 503 471 521 q 555 459 537 484 q 576 403 572 433 q 569 342 579 372 q 537 285 559 312 q 482 239 515 258 q 406 212 449 220 q 310 211 362 203 q 213 245 257 218 q 142 326 168 271 q 124 292 136 318 q 102 231 113 266 q 87 154 92 195 q 88 76 81 113 q 117 9 95 39 q 182 -35 138 -21 q 298 -44 237 -51 q 410 -6 359 -37 q 448 22 432 7 q 477 54 464 37 q 500 90 490 71 q 521 131 510 109 q 530 137 525 140 q 529 124 534 134 m 427 500 q 352 497 389 506 q 279 468 314 488 q 212 417 243 448 q 155 348 180 387 q 221 261 178 290 q 320 227 264 233 q 427 236 381 220 q 500 280 472 252 q 540 343 529 308 q 542 411 551 378 q 505 468 534 444 q 427 500 477 493 m 332 -142 q 321 -171 332 -158 q 297 -193 310 -184 q 272 -203 286 -201 q 245 -205 258 -205 q 225 -203 239 -205 q 196 -198 211 -201 q 171 -189 182 -195 q 160 -174 160 -182 q 164 -169 160 -169 q 170 -172 168 -169 q 174 -176 172 -174 q 202 -190 184 -186 q 233 -193 220 -193 q 250 -192 241 -193 q 268 -188 259 -191 q 285 -181 277 -185 q 298 -169 293 -176 q 304 -156 302 -163 q 307 -141 307 -149 q 302 -124 307 -131 q 290 -112 298 -117 q 274 -105 283 -107 q 256 -102 265 -102 q 239 -105 247 -102 q 224 -111 231 -108 q 214 -116 218 -114 q 208 -119 210 -119 q 199 -116 203 -119 q 195 -109 195 -113 q 197 -102 195 -105 q 207 -94 199 -100 q 224 -81 215 -88 q 241 -68 233 -74 q 250 -63 248 -63 q 253 -65 252 -63 q 255 -68 254 -67 q 249 -73 254 -70 q 238 -80 243 -77 q 229 -87 233 -84 q 225 -92 225 -91 q 252 -90 238 -90 q 277 -93 263 -90 q 303 -102 291 -96 q 324 -118 315 -108 q 332 -142 332 -127 "},"Ĉ":{"ha":481,"x_min":39,"x_max":579,"o":"m 529 124 q 508 83 518 102 q 485 46 497 64 q 457 14 473 29 q 420 -17 441 -2 q 363 -47 394 -35 q 299 -66 332 -60 q 229 -67 265 -71 q 156 -47 193 -63 q 88 1 113 -29 q 51 69 62 31 q 40 149 39 106 q 52 232 41 191 q 81 311 62 273 q 123 379 99 349 q 116 414 119 395 q 112 454 113 433 q 113 495 111 474 q 120 534 115 515 q 124 541 121 538 q 129 544 127 544 q 133 541 132 544 q 134 531 135 538 q 131 464 128 498 q 139 402 134 430 q 267 505 194 473 q 421 526 340 536 q 504 503 471 521 q 555 459 537 484 q 576 403 572 433 q 569 342 579 372 q 537 285 559 312 q 482 239 515 258 q 406 212 449 220 q 310 211 362 203 q 213 245 257 218 q 142 326 168 271 q 124 292 136 318 q 102 231 113 266 q 87 154 92 195 q 88 76 81 113 q 117 9 95 39 q 182 -35 138 -21 q 298 -44 237 -51 q 410 -6 359 -37 q 448 22 432 7 q 477 54 464 37 q 500 90 490 71 q 521 131 510 109 q 530 137 525 140 q 529 124 534 134 m 427 500 q 352 497 389 506 q 279 468 314 488 q 212 417 243 448 q 155 348 180 387 q 221 261 178 290 q 320 227 264 233 q 427 236 381 220 q 500 280 472 252 q 540 343 529 308 q 542 411 551 378 q 505 468 534 444 q 427 500 477 493 m 508 587 q 503 583 510 583 q 494 587 496 584 l 463 635 q 422 613 440 623 q 392 596 406 604 q 374 587 377 589 q 367 584 371 585 q 360 584 363 583 q 356 585 357 584 q 357 587 355 586 l 458 659 q 471 661 465 660 q 479 661 475 661 q 484 659 483 661 l 508 587 "},"Ċ":{"ha":481,"x_min":39,"x_max":579,"o":"m 529 124 q 508 83 518 102 q 485 46 497 64 q 457 14 473 29 q 420 -17 441 -2 q 363 -47 394 -35 q 299 -66 332 -60 q 229 -67 265 -71 q 156 -47 193 -63 q 88 1 113 -29 q 51 69 62 31 q 40 149 39 106 q 52 232 41 191 q 81 311 62 273 q 123 379 99 349 q 116 414 119 395 q 112 454 113 433 q 113 495 111 474 q 120 534 115 515 q 124 541 121 538 q 129 544 127 544 q 133 541 132 544 q 134 531 135 538 q 131 464 128 498 q 139 402 134 430 q 267 505 194 473 q 421 526 340 536 q 504 503 471 521 q 555 459 537 484 q 576 403 572 433 q 569 342 579 372 q 537 285 559 312 q 482 239 515 258 q 406 212 449 220 q 310 211 362 203 q 213 245 257 218 q 142 326 168 271 q 124 292 136 318 q 102 231 113 266 q 87 154 92 195 q 88 76 81 113 q 117 9 95 39 q 182 -35 138 -21 q 298 -44 237 -51 q 410 -6 359 -37 q 448 22 432 7 q 477 54 464 37 q 500 90 490 71 q 521 131 510 109 q 530 137 525 140 q 529 124 534 134 m 427 500 q 352 497 389 506 q 279 468 314 488 q 212 417 243 448 q 155 348 180 387 q 221 261 178 290 q 320 227 264 233 q 427 236 381 220 q 500 280 472 252 q 540 343 529 308 q 542 411 551 378 q 505 468 534 444 q 427 500 477 493 m 502 600 q 492 576 502 586 q 469 566 481 566 q 458 569 463 566 q 454 579 454 572 q 456 591 454 585 q 464 603 459 597 q 474 613 469 609 q 486 617 480 617 q 497 612 493 617 q 502 600 502 606 "},"D":{"ha":688,"x_min":-1,"x_max":699,"o":"m 694 162 q 666 78 689 115 q 607 16 642 41 q 528 -19 572 -8 q 438 -24 484 -29 q 378 -14 405 -20 q 329 -3 351 -9 q 289 10 307 3 q 254 24 271 17 q 175 -18 217 -6 q 85 -24 134 -31 q 31 -6 50 -20 q 5 26 11 8 q 6 63 -1 45 q 31 94 13 82 q 79 109 50 106 q 146 99 108 112 q 170 89 155 96 q 199 75 184 82 q 227 60 214 67 q 249 49 241 53 q 316 135 286 85 q 375 241 347 186 q 435 350 404 296 q 507 450 467 405 q 397 491 456 480 q 273 488 337 501 q 191 458 227 477 q 130 415 155 439 q 93 365 106 391 q 80 316 80 339 q 92 274 79 292 q 129 249 104 256 q 181 247 159 239 q 220 268 204 254 q 243 298 235 281 q 252 323 251 314 q 259 327 252 328 q 265 317 267 326 q 247 272 262 292 q 212 241 233 253 q 168 227 192 230 q 122 233 144 224 q 74 265 92 243 q 50 314 55 287 q 55 372 45 342 q 94 430 65 403 q 170 479 122 458 q 287 511 217 501 q 411 510 350 521 q 526 471 473 499 l 543 490 q 554 500 547 494 q 571 512 562 506 q 588 522 580 517 q 600 528 595 527 q 617 530 616 535 q 606 518 618 526 q 594 508 600 513 q 587 500 588 502 q 571 477 579 489 q 555 454 563 466 q 617 400 589 431 q 664 333 645 370 q 690 253 682 296 q 694 162 699 210 m 651 161 q 649 241 655 202 q 628 313 643 279 q 590 376 613 347 q 538 428 567 406 q 478 329 509 381 q 416 228 447 277 q 354 135 385 178 q 296 61 324 91 q 283 48 290 54 q 271 37 277 42 q 342 11 302 22 q 437 -5 382 0 q 519 3 481 -9 q 584 38 556 15 q 630 94 612 62 q 651 161 647 125 m 231 35 q 183 59 207 47 q 129 81 159 71 q 87 87 104 90 q 60 75 70 84 q 47 52 50 66 q 50 26 45 39 q 68 5 56 14 q 102 -5 81 -5 q 171 4 138 -7 q 231 35 203 15 "},"Ď":{"ha":696,"x_min":-1,"x_max":703,"o":"m 694 162 q 666 78 689 115 q 607 16 642 41 q 528 -19 572 -8 q 438 -24 484 -29 q 378 -14 405 -20 q 329 -3 351 -9 q 289 10 307 3 q 254 24 271 17 q 175 -18 217 -6 q 85 -24 134 -31 q 31 -6 50 -20 q 5 26 11 8 q 6 63 -1 45 q 31 94 13 82 q 79 109 50 106 q 146 99 108 112 q 170 89 155 96 q 199 75 184 82 q 227 60 214 67 q 249 49 241 53 q 316 135 286 85 q 375 241 347 186 q 435 350 404 296 q 507 450 467 405 q 397 491 456 480 q 273 488 337 501 q 191 458 227 477 q 130 415 155 439 q 93 365 106 391 q 80 316 80 339 q 92 274 79 292 q 129 249 104 256 q 181 247 159 239 q 220 268 204 254 q 243 298 235 281 q 252 323 251 314 q 259 327 252 328 q 265 317 267 326 q 247 272 262 292 q 212 241 233 253 q 168 227 192 230 q 122 233 144 224 q 74 265 92 243 q 50 314 55 287 q 55 372 45 342 q 94 430 65 403 q 170 479 122 458 q 287 511 217 501 q 411 510 350 521 q 526 471 473 499 l 543 490 q 554 500 547 494 q 571 512 562 506 q 588 522 580 517 q 600 528 595 527 q 617 530 616 535 q 606 518 618 526 q 594 508 600 513 q 587 500 588 502 q 571 477 579 489 q 555 454 563 466 q 617 400 589 431 q 664 333 645 370 q 690 253 682 296 q 694 162 699 210 m 651 161 q 649 241 655 202 q 628 313 643 279 q 590 376 613 347 q 538 428 567 406 q 478 329 509 381 q 416 228 447 277 q 354 135 385 178 q 296 61 324 91 q 283 48 290 54 q 271 37 277 42 q 342 11 302 22 q 437 -5 382 0 q 519 3 481 -9 q 584 38 556 15 q 630 94 612 62 q 651 161 647 125 m 231 35 q 183 59 207 47 q 129 81 159 71 q 87 87 104 90 q 60 75 70 84 q 47 52 50 66 q 50 26 45 39 q 68 5 56 14 q 102 -5 81 -5 q 171 4 138 -7 q 231 35 203 15 m 549 628 q 554 632 547 633 q 563 628 561 631 l 594 580 q 635 602 617 592 q 666 618 651 611 q 684 628 680 626 q 690 631 686 630 q 697 632 694 632 q 701 630 700 631 q 701 628 703 629 l 600 556 q 587 555 592 555 q 578 554 582 554 q 574 556 574 555 l 549 628 "},"Đ":{"ha":696,"x_min":-1,"x_max":699,"o":"m 694 162 q 666 78 689 115 q 607 16 642 41 q 528 -19 572 -8 q 438 -24 484 -29 q 378 -14 405 -20 q 329 -3 351 -9 q 289 10 307 3 q 254 24 271 17 q 175 -18 217 -6 q 85 -24 134 -31 q 31 -6 50 -20 q 5 26 11 8 q 6 63 -1 45 q 31 94 13 82 q 79 109 50 106 q 146 99 108 112 q 170 89 155 96 q 199 75 184 82 q 227 60 214 67 q 249 49 241 53 q 316 135 286 85 q 375 241 347 186 q 435 350 404 296 q 507 450 467 405 q 397 491 456 480 q 273 488 337 501 q 191 458 227 477 q 130 415 155 439 q 93 365 106 391 q 80 316 80 339 q 92 274 79 292 q 129 249 104 256 q 181 247 159 239 q 220 268 204 254 q 243 298 235 281 q 252 323 251 314 q 259 327 252 328 q 265 317 267 326 q 247 272 262 292 q 212 241 233 253 q 168 227 192 230 q 122 233 144 224 q 74 265 92 243 q 50 314 55 287 q 55 372 45 342 q 94 430 65 403 q 170 479 122 458 q 287 511 217 501 q 411 510 350 521 q 526 471 473 499 l 543 490 q 554 500 547 494 q 571 512 562 506 q 588 522 580 517 q 600 528 595 527 q 617 530 616 535 q 606 518 618 526 q 594 508 600 513 q 587 500 588 502 q 571 477 579 489 q 555 454 563 466 q 617 400 589 431 q 664 333 645 370 q 690 253 682 296 q 694 162 699 210 m 651 161 q 649 241 655 202 q 628 313 643 279 q 590 376 613 347 q 538 428 567 406 q 478 329 509 381 q 416 228 447 277 q 354 135 385 178 q 296 61 324 91 q 283 48 290 54 q 271 37 277 42 q 342 11 302 22 q 437 -5 382 0 q 519 3 481 -9 q 584 38 556 15 q 630 94 612 62 q 651 161 647 125 m 231 35 q 183 59 207 47 q 129 81 159 71 q 87 87 104 90 q 60 75 70 84 q 47 52 50 66 q 50 26 45 39 q 68 5 56 14 q 102 -5 81 -5 q 171 4 138 -7 q 231 35 203 15 m 444 195 q 360 191 397 195 q 292 184 323 187 q 286 188 289 183 q 281 199 282 193 q 282 211 280 205 q 292 216 285 216 q 348 216 313 216 q 441 214 382 215 q 451 211 448 214 q 456 204 455 208 q 454 198 456 201 q 444 195 451 195 "},"Δ":{"ha":393,"x_min":54,"x_max":356,"o":"m 69 -7 q 58 2 63 -7 q 54 16 54 10 q 60 28 54 16 q 78 59 67 40 q 102 101 89 77 q 131 150 116 125 q 159 199 145 175 q 183 241 172 222 q 201 271 195 259 q 209 283 208 282 q 219 296 212 289 q 233 304 227 304 q 240 301 237 304 l 355 43 l 356 37 q 345 11 355 22 q 323 -7 334 -1 l 69 -7 m 89 28 l 309 28 l 216 244 l 89 28 "},"E":{"ha":553,"x_min":14,"x_max":591,"o":"m 538 174 q 563 151 556 165 q 567 121 570 137 q 550 87 564 104 q 514 52 536 69 q 455 15 489 32 q 384 -13 422 -1 q 303 -31 345 -24 q 220 -37 262 -37 q 106 -19 151 -37 q 39 28 62 -1 q 15 93 16 58 q 32 163 14 129 q 88 227 50 198 q 181 273 125 256 q 250 285 217 283 q 220 298 235 290 q 193 317 205 307 q 174 341 181 328 q 168 370 167 355 q 188 424 171 399 q 231 469 205 449 q 290 505 257 490 q 357 530 323 520 q 425 543 391 540 q 485 544 458 547 q 548 527 524 539 q 582 499 572 515 q 588 464 591 483 q 570 428 585 446 q 530 397 555 411 q 471 375 505 382 q 450 373 456 372 q 444 376 444 374 q 451 382 444 379 q 469 387 457 386 q 500 399 484 389 q 527 424 515 409 q 545 455 539 438 q 548 487 551 472 q 529 513 544 502 q 482 528 513 524 q 398 522 442 532 q 317 493 355 513 q 253 447 279 474 q 220 387 226 419 q 224 344 215 360 q 251 319 234 328 q 288 304 267 309 q 326 295 309 300 q 354 284 343 290 q 362 266 365 278 q 343 255 359 256 q 302 254 327 254 q 247 254 277 255 q 184 245 216 254 q 121 212 149 235 q 79 158 94 188 q 62 96 64 128 q 77 38 61 64 q 129 -5 94 12 q 222 -22 164 -22 q 300 -14 262 -22 q 372 7 338 -6 q 435 36 406 20 q 486 70 465 53 q 518 100 505 85 q 537 129 532 116 q 541 152 543 142 q 524 165 538 162 q 510 172 512 168 q 511 177 507 175 q 522 179 514 179 q 538 174 530 178 "},"É":{"ha":612,"x_min":14,"x_max":599,"o":"m 538 174 q 563 151 556 165 q 567 121 570 137 q 550 87 564 104 q 514 52 536 69 q 455 15 489 32 q 384 -13 422 -1 q 303 -31 345 -24 q 220 -37 262 -37 q 106 -19 151 -37 q 39 28 62 -1 q 15 93 16 58 q 32 163 14 129 q 88 227 50 198 q 181 273 125 256 q 250 285 217 283 q 220 298 235 290 q 193 317 205 307 q 174 341 181 328 q 168 370 167 355 q 188 424 171 399 q 231 469 205 449 q 290 505 257 490 q 357 530 323 520 q 425 543 391 540 q 485 544 458 547 q 548 527 524 539 q 582 499 572 515 q 588 464 591 483 q 570 428 585 446 q 530 397 555 411 q 471 375 505 382 q 450 373 456 372 q 444 376 444 374 q 451 382 444 379 q 469 387 457 386 q 500 399 484 389 q 527 424 515 409 q 545 455 539 438 q 548 487 551 472 q 529 513 544 502 q 482 528 513 524 q 398 522 442 532 q 317 493 355 513 q 253 447 279 474 q 220 387 226 419 q 224 344 215 360 q 251 319 234 328 q 288 304 267 309 q 326 295 309 300 q 354 284 343 290 q 362 266 365 278 q 343 255 359 256 q 302 254 327 254 q 247 254 277 255 q 184 245 216 254 q 121 212 149 235 q 79 158 94 188 q 62 96 64 128 q 77 38 61 64 q 129 -5 94 12 q 222 -22 164 -22 q 300 -14 262 -22 q 372 7 338 -6 q 435 36 406 20 q 486 70 465 53 q 518 100 505 85 q 537 129 532 116 q 541 152 543 142 q 524 165 538 162 q 510 172 512 168 q 511 177 507 175 q 522 179 514 179 q 538 174 530 178 m 596 635 q 585 627 595 633 q 562 614 576 621 q 532 600 548 608 q 503 587 517 593 q 480 578 490 581 q 469 575 471 574 q 467 584 463 578 q 480 595 468 586 q 506 614 492 604 q 533 633 520 624 q 551 646 547 642 q 569 655 559 652 q 590 654 580 659 q 597 646 595 651 q 596 635 599 641 "},"Ě":{"ha":594,"x_min":14,"x_max":594,"o":"m 538 174 q 563 151 556 165 q 567 121 570 137 q 550 87 564 104 q 514 52 536 69 q 455 15 489 32 q 384 -13 422 -1 q 303 -31 345 -24 q 220 -37 262 -37 q 106 -19 151 -37 q 39 28 62 -1 q 15 93 16 58 q 32 163 14 129 q 88 227 50 198 q 181 273 125 256 q 250 285 217 283 q 220 298 235 290 q 193 317 205 307 q 174 341 181 328 q 168 370 167 355 q 188 424 171 399 q 231 469 205 449 q 290 505 257 490 q 357 530 323 520 q 425 543 391 540 q 485 544 458 547 q 548 527 524 539 q 582 499 572 515 q 588 464 591 483 q 570 428 585 446 q 530 397 555 411 q 471 375 505 382 q 450 373 456 372 q 444 376 444 374 q 451 382 444 379 q 469 387 457 386 q 500 399 484 389 q 527 424 515 409 q 545 455 539 438 q 548 487 551 472 q 529 513 544 502 q 482 528 513 524 q 398 522 442 532 q 317 493 355 513 q 253 447 279 474 q 220 387 226 419 q 224 344 215 360 q 251 319 234 328 q 288 304 267 309 q 326 295 309 300 q 354 284 343 290 q 362 266 365 278 q 343 255 359 256 q 302 254 327 254 q 247 254 277 255 q 184 245 216 254 q 121 212 149 235 q 79 158 94 188 q 62 96 64 128 q 77 38 61 64 q 129 -5 94 12 q 222 -22 164 -22 q 300 -14 262 -22 q 372 7 338 -6 q 435 36 406 20 q 486 70 465 53 q 518 100 505 85 q 537 129 532 116 q 541 152 543 142 q 524 165 538 162 q 510 172 512 168 q 511 177 507 175 q 522 179 514 179 q 538 174 530 178 m 441 659 q 446 663 439 664 q 454 659 452 663 l 486 611 q 527 633 509 623 q 557 650 543 642 q 575 659 572 657 q 582 662 578 661 q 588 663 585 663 q 593 662 591 663 q 592 659 594 661 l 491 587 q 478 586 484 587 q 469 586 473 585 q 465 587 465 586 l 441 659 "},"Ê":{"ha":612,"x_min":14,"x_max":591,"o":"m 538 174 q 563 151 556 165 q 567 121 570 137 q 550 87 564 104 q 514 52 536 69 q 455 15 489 32 q 384 -13 422 -1 q 303 -31 345 -24 q 220 -37 262 -37 q 106 -19 151 -37 q 39 28 62 -1 q 15 93 16 58 q 32 163 14 129 q 88 227 50 198 q 181 273 125 256 q 250 285 217 283 q 220 298 235 290 q 193 317 205 307 q 174 341 181 328 q 168 370 167 355 q 188 424 171 399 q 231 469 205 449 q 290 505 257 490 q 357 530 323 520 q 425 543 391 540 q 485 544 458 547 q 548 527 524 539 q 582 499 572 515 q 588 464 591 483 q 570 428 585 446 q 530 397 555 411 q 471 375 505 382 q 450 373 456 372 q 444 376 444 374 q 451 382 444 379 q 469 387 457 386 q 500 399 484 389 q 527 424 515 409 q 545 455 539 438 q 548 487 551 472 q 529 513 544 502 q 482 528 513 524 q 398 522 442 532 q 317 493 355 513 q 253 447 279 474 q 220 387 226 419 q 224 344 215 360 q 251 319 234 328 q 288 304 267 309 q 326 295 309 300 q 354 284 343 290 q 362 266 365 278 q 343 255 359 256 q 302 254 327 254 q 247 254 277 255 q 184 245 216 254 q 121 212 149 235 q 79 158 94 188 q 62 96 64 128 q 77 38 61 64 q 129 -5 94 12 q 222 -22 164 -22 q 300 -14 262 -22 q 372 7 338 -6 q 435 36 406 20 q 486 70 465 53 q 518 100 505 85 q 537 129 532 116 q 541 152 543 142 q 524 165 538 162 q 510 172 512 168 q 511 177 507 175 q 522 179 514 179 q 538 174 530 178 m 557 571 q 553 567 559 566 q 544 571 546 568 l 513 619 q 471 597 490 607 q 441 580 456 588 q 423 571 427 572 q 417 568 420 569 q 410 567 413 567 q 406 569 407 568 q 406 571 404 570 l 507 643 q 520 644 515 644 q 529 645 525 645 q 533 643 532 644 l 557 571 "},"Ë":{"ha":612,"x_min":14,"x_max":591,"o":"m 538 174 q 563 151 556 165 q 567 121 570 137 q 550 87 564 104 q 514 52 536 69 q 455 15 489 32 q 384 -13 422 -1 q 303 -31 345 -24 q 220 -37 262 -37 q 106 -19 151 -37 q 39 28 62 -1 q 15 93 16 58 q 32 163 14 129 q 88 227 50 198 q 181 273 125 256 q 250 285 217 283 q 220 298 235 290 q 193 317 205 307 q 174 341 181 328 q 168 370 167 355 q 188 424 171 399 q 231 469 205 449 q 290 505 257 490 q 357 530 323 520 q 425 543 391 540 q 485 544 458 547 q 548 527 524 539 q 582 499 572 515 q 588 464 591 483 q 570 428 585 446 q 530 397 555 411 q 471 375 505 382 q 450 373 456 372 q 444 376 444 374 q 451 382 444 379 q 469 387 457 386 q 500 399 484 389 q 527 424 515 409 q 545 455 539 438 q 548 487 551 472 q 529 513 544 502 q 482 528 513 524 q 398 522 442 532 q 317 493 355 513 q 253 447 279 474 q 220 387 226 419 q 224 344 215 360 q 251 319 234 328 q 288 304 267 309 q 326 295 309 300 q 354 284 343 290 q 362 266 365 278 q 343 255 359 256 q 302 254 327 254 q 247 254 277 255 q 184 245 216 254 q 121 212 149 235 q 79 158 94 188 q 62 96 64 128 q 77 38 61 64 q 129 -5 94 12 q 222 -22 164 -22 q 300 -14 262 -22 q 372 7 338 -6 q 435 36 406 20 q 486 70 465 53 q 518 100 505 85 q 537 129 532 116 q 541 152 543 142 q 524 165 538 162 q 510 172 512 168 q 511 177 507 175 q 522 179 514 179 q 538 174 530 178 m 553 601 q 547 585 553 591 q 532 578 541 578 q 515 585 522 578 q 509 601 509 591 q 515 617 509 610 q 530 623 521 623 q 547 617 540 623 q 553 601 553 611 m 466 601 q 460 585 466 591 q 444 578 454 578 q 428 585 435 578 q 421 601 421 591 q 427 617 421 610 q 443 623 433 623 q 459 617 452 623 q 466 601 466 611 "},"Ė":{"ha":594,"x_min":14,"x_max":591,"o":"m 538 174 q 563 151 556 165 q 567 121 570 137 q 550 87 564 104 q 514 52 536 69 q 455 15 489 32 q 384 -13 422 -1 q 303 -31 345 -24 q 220 -37 262 -37 q 106 -19 151 -37 q 39 28 62 -1 q 15 93 16 58 q 32 163 14 129 q 88 227 50 198 q 181 273 125 256 q 250 285 217 283 q 220 298 235 290 q 193 317 205 307 q 174 341 181 328 q 168 370 167 355 q 188 424 171 399 q 231 469 205 449 q 290 505 257 490 q 357 530 323 520 q 425 543 391 540 q 485 544 458 547 q 548 527 524 539 q 582 499 572 515 q 588 464 591 483 q 570 428 585 446 q 530 397 555 411 q 471 375 505 382 q 450 373 456 372 q 444 376 444 374 q 451 382 444 379 q 469 387 457 386 q 500 399 484 389 q 527 424 515 409 q 545 455 539 438 q 548 487 551 472 q 529 513 544 502 q 482 528 513 524 q 398 522 442 532 q 317 493 355 513 q 253 447 279 474 q 220 387 226 419 q 224 344 215 360 q 251 319 234 328 q 288 304 267 309 q 326 295 309 300 q 354 284 343 290 q 362 266 365 278 q 343 255 359 256 q 302 254 327 254 q 247 254 277 255 q 184 245 216 254 q 121 212 149 235 q 79 158 94 188 q 62 96 64 128 q 77 38 61 64 q 129 -5 94 12 q 222 -22 164 -22 q 300 -14 262 -22 q 372 7 338 -6 q 435 36 406 20 q 486 70 465 53 q 518 100 505 85 q 537 129 532 116 q 541 152 543 142 q 524 165 538 162 q 510 172 512 168 q 511 177 507 175 q 522 179 514 179 q 538 174 530 178 m 321 726 q 311 702 321 712 q 288 692 300 692 q 277 695 281 692 q 273 705 273 699 q 275 717 273 711 q 283 729 278 724 q 293 739 288 735 q 304 743 299 743 q 316 738 312 743 q 321 726 321 732 "},"È":{"ha":612,"x_min":14,"x_max":591,"o":"m 538 174 q 563 151 556 165 q 567 121 570 137 q 550 87 564 104 q 514 52 536 69 q 455 15 489 32 q 384 -13 422 -1 q 303 -31 345 -24 q 220 -37 262 -37 q 106 -19 151 -37 q 39 28 62 -1 q 15 93 16 58 q 32 163 14 129 q 88 227 50 198 q 181 273 125 256 q 250 285 217 283 q 220 298 235 290 q 193 317 205 307 q 174 341 181 328 q 168 370 167 355 q 188 424 171 399 q 231 469 205 449 q 290 505 257 490 q 357 530 323 520 q 425 543 391 540 q 485 544 458 547 q 548 527 524 539 q 582 499 572 515 q 588 464 591 483 q 570 428 585 446 q 530 397 555 411 q 471 375 505 382 q 450 373 456 372 q 444 376 444 374 q 451 382 444 379 q 469 387 457 386 q 500 399 484 389 q 527 424 515 409 q 545 455 539 438 q 548 487 551 472 q 529 513 544 502 q 482 528 513 524 q 398 522 442 532 q 317 493 355 513 q 253 447 279 474 q 220 387 226 419 q 224 344 215 360 q 251 319 234 328 q 288 304 267 309 q 326 295 309 300 q 354 284 343 290 q 362 266 365 278 q 343 255 359 256 q 302 254 327 254 q 247 254 277 255 q 184 245 216 254 q 121 212 149 235 q 79 158 94 188 q 62 96 64 128 q 77 38 61 64 q 129 -5 94 12 q 222 -22 164 -22 q 300 -14 262 -22 q 372 7 338 -6 q 435 36 406 20 q 486 70 465 53 q 518 100 505 85 q 537 129 532 116 q 541 152 543 142 q 524 165 538 162 q 510 172 512 168 q 511 177 507 175 q 522 179 514 179 q 538 174 530 178 m 542 566 q 535 559 542 559 q 520 566 533 559 q 491 581 507 572 q 461 596 475 589 q 442 606 447 604 q 425 618 433 611 q 417 637 417 625 q 421 647 417 643 q 430 651 425 651 q 443 645 433 651 q 465 630 452 639 q 491 610 477 621 q 516 590 505 600 q 534 574 527 581 q 542 566 542 567 "},"Ē":{"ha":594,"x_min":14,"x_max":591,"o":"m 538 174 q 563 151 556 165 q 567 121 570 137 q 550 87 564 104 q 514 52 536 69 q 455 15 489 32 q 384 -13 422 -1 q 303 -31 345 -24 q 220 -37 262 -37 q 106 -19 151 -37 q 39 28 62 -1 q 15 93 16 58 q 32 163 14 129 q 88 227 50 198 q 181 273 125 256 q 250 285 217 283 q 220 298 235 290 q 193 317 205 307 q 174 341 181 328 q 168 370 167 355 q 188 424 171 399 q 231 469 205 449 q 290 505 257 490 q 357 530 323 520 q 425 543 391 540 q 485 544 458 547 q 548 527 524 539 q 582 499 572 515 q 588 464 591 483 q 570 428 585 446 q 530 397 555 411 q 471 375 505 382 q 450 373 456 372 q 444 376 444 374 q 451 382 444 379 q 469 387 457 386 q 500 399 484 389 q 527 424 515 409 q 545 455 539 438 q 548 487 551 472 q 529 513 544 502 q 482 528 513 524 q 398 522 442 532 q 317 493 355 513 q 253 447 279 474 q 220 387 226 419 q 224 344 215 360 q 251 319 234 328 q 288 304 267 309 q 326 295 309 300 q 354 284 343 290 q 362 266 365 278 q 343 255 359 256 q 302 254 327 254 q 247 254 277 255 q 184 245 216 254 q 121 212 149 235 q 79 158 94 188 q 62 96 64 128 q 77 38 61 64 q 129 -5 94 12 q 222 -22 164 -22 q 300 -14 262 -22 q 372 7 338 -6 q 435 36 406 20 q 486 70 465 53 q 518 100 505 85 q 537 129 532 116 q 541 152 543 142 q 524 165 538 162 q 510 172 512 168 q 511 177 507 175 q 522 179 514 179 q 538 174 530 178 m 568 579 l 423 579 l 435 605 l 580 605 l 568 579 "},"Ŋ":{"ha":705,"x_min":-21,"x_max":781,"o":"m 779 453 q 772 392 781 433 q 748 297 764 351 q 710 181 732 243 q 665 57 689 119 q 617 -62 642 -5 q 572 -163 593 -119 q 514 -246 549 -210 q 438 -309 478 -283 q 357 -349 397 -334 q 284 -369 317 -364 q 193 -373 237 -376 q 113 -358 150 -370 q 48 -326 76 -347 q 3 -278 20 -306 q -17 -214 -14 -250 q -8 -136 -21 -179 q 8 -104 -3 -120 q 32 -77 19 -89 q 57 -58 45 -65 q 78 -50 70 -50 q 86 -53 89 -50 q 79 -60 83 -57 q 59 -73 71 -63 q 37 -96 48 -82 q 18 -127 26 -109 q 5 -166 9 -145 q 9 -233 -1 -203 q 40 -284 19 -262 q 90 -321 61 -307 q 151 -344 119 -336 q 215 -352 183 -351 q 273 -347 247 -353 q 411 -285 353 -329 q 513 -175 469 -241 q 592 -23 557 -109 q 661 163 627 62 q 685 234 673 196 q 706 311 696 273 q 721 384 715 349 q 726 446 726 419 q 719 473 726 463 q 700 485 711 482 q 672 483 688 487 q 640 471 657 479 q 570 422 605 453 q 505 347 536 391 q 450 253 475 304 q 404 153 425 203 q 368 56 384 102 q 340 -24 353 10 q 328 -39 337 -34 q 308 -44 318 -43 q 291 -40 298 -44 q 285 -28 283 -37 q 302 8 292 -16 q 325 66 313 33 q 351 138 338 99 q 375 218 363 177 q 394 299 386 258 q 407 376 403 340 q 395 476 414 443 q 342 516 376 509 q 266 509 309 524 q 183 468 224 495 q 106 397 137 437 q 59 316 75 357 q 41 235 43 275 q 49 164 39 195 q 82 115 60 134 q 139 96 105 96 q 203 111 174 96 q 250 149 231 126 q 278 198 269 172 q 285 246 288 224 q 268 280 283 267 q 222 289 252 293 q 215 290 217 288 q 214 293 214 291 q 215 297 214 295 q 220 300 217 299 q 280 297 259 309 q 308 261 302 285 q 305 206 314 237 q 274 148 296 175 q 218 101 252 120 q 139 83 184 83 q 77 98 106 83 q 26 143 47 114 q 0 214 6 173 q 9 308 -6 256 q 35 364 18 337 q 72 416 51 391 q 119 460 94 440 q 172 497 144 481 q 229 523 199 513 q 290 536 260 533 q 349 535 321 540 q 400 514 378 530 q 435 471 422 498 q 448 401 448 443 q 436 322 448 362 q 411 243 424 282 q 399 207 401 215 q 399 203 397 199 q 406 218 401 208 q 415 236 411 229 q 450 296 431 264 q 490 358 469 328 q 560 443 523 404 q 633 499 597 481 q 681 515 656 510 q 726 515 705 519 q 761 496 747 511 q 779 453 776 481 "},"Ę":{"ha":594,"x_min":14,"x_max":591,"o":"m 538 174 q 563 151 556 165 q 567 121 570 137 q 550 87 564 104 q 514 52 536 69 q 455 15 489 32 q 384 -13 422 -1 q 303 -31 345 -24 q 220 -37 262 -37 q 106 -19 151 -37 q 39 28 62 -1 q 15 93 16 58 q 32 163 14 129 q 88 227 50 198 q 181 273 125 256 q 250 285 217 283 q 220 298 235 290 q 193 317 205 307 q 174 341 181 328 q 168 370 167 355 q 188 424 171 399 q 231 469 205 449 q 290 505 257 490 q 357 530 323 520 q 425 543 391 540 q 485 544 458 547 q 548 527 524 539 q 582 499 572 515 q 588 464 591 483 q 570 428 585 446 q 530 397 555 411 q 471 375 505 382 q 450 373 456 372 q 444 376 444 374 q 451 382 444 379 q 469 387 457 386 q 500 399 484 389 q 527 424 515 409 q 545 455 539 438 q 548 487 551 472 q 529 513 544 502 q 482 528 513 524 q 398 522 442 532 q 317 493 355 513 q 253 447 279 474 q 220 387 226 419 q 224 344 215 360 q 251 319 234 328 q 288 304 267 309 q 326 295 309 300 q 354 284 343 290 q 362 266 365 278 q 343 255 359 256 q 302 254 327 254 q 247 254 277 255 q 184 245 216 254 q 121 212 149 235 q 79 158 94 188 q 62 96 64 128 q 77 38 61 64 q 129 -5 94 12 q 222 -22 164 -22 q 300 -14 262 -22 q 372 7 338 -6 q 435 36 406 20 q 486 70 465 53 q 518 100 505 85 q 537 129 532 116 q 541 152 543 142 q 524 165 538 162 q 510 172 512 168 q 511 177 507 175 q 522 179 514 179 q 538 174 530 178 m 248 -36 q 220 -61 234 -47 q 194 -90 206 -75 q 175 -120 182 -105 q 167 -146 168 -135 q 171 -162 167 -156 q 186 -169 175 -169 q 205 -162 196 -169 q 221 -149 214 -155 q 226 -147 222 -147 q 228 -151 229 -146 q 221 -163 227 -157 q 208 -175 216 -170 q 188 -185 199 -181 q 163 -189 176 -189 q 141 -182 151 -189 q 133 -159 132 -174 q 146 -123 134 -143 q 176 -83 159 -102 q 213 -50 194 -64 q 243 -29 231 -35 q 247 -29 245 -29 q 248 -36 249 -29 "},"Ð":{"ha":696,"x_min":-1,"x_max":699,"o":"m 694 162 q 666 78 689 115 q 607 16 642 41 q 528 -19 572 -8 q 438 -24 484 -29 q 378 -14 405 -20 q 329 -3 351 -9 q 289 10 307 3 q 254 24 271 17 q 175 -18 217 -6 q 85 -24 134 -31 q 31 -6 50 -20 q 5 26 11 8 q 6 63 -1 45 q 31 94 13 82 q 79 109 50 106 q 146 99 108 112 q 170 89 155 96 q 199 75 184 82 q 227 60 214 67 q 249 49 241 53 q 316 135 286 85 q 375 241 347 186 q 435 350 404 296 q 507 450 467 405 q 397 491 456 480 q 273 488 337 501 q 191 458 227 477 q 130 415 155 439 q 93 365 106 391 q 80 316 80 339 q 92 274 79 292 q 129 249 104 256 q 181 247 159 239 q 220 268 204 254 q 243 298 235 281 q 252 323 251 314 q 259 327 252 328 q 265 317 267 326 q 247 272 262 292 q 212 241 233 253 q 168 227 192 230 q 122 233 144 224 q 74 265 92 243 q 50 314 55 287 q 55 372 45 342 q 94 430 65 403 q 170 479 122 458 q 287 511 217 501 q 411 510 350 521 q 526 471 473 499 l 543 490 q 554 500 547 494 q 571 512 562 506 q 588 522 580 517 q 600 528 595 527 q 617 530 616 535 q 606 518 618 526 q 594 508 600 513 q 587 500 588 502 q 571 477 579 489 q 555 454 563 466 q 617 400 589 431 q 664 333 645 370 q 690 253 682 296 q 694 162 699 210 m 651 161 q 649 241 655 202 q 628 313 643 279 q 590 376 613 347 q 538 428 567 406 q 478 329 509 381 q 416 228 447 277 q 354 135 385 178 q 296 61 324 91 q 283 48 290 54 q 271 37 277 42 q 342 11 302 22 q 437 -5 382 0 q 519 3 481 -9 q 584 38 556 15 q 630 94 612 62 q 651 161 647 125 m 231 35 q 183 59 207 47 q 129 81 159 71 q 87 87 104 90 q 60 75 70 84 q 47 52 50 66 q 50 26 45 39 q 68 5 56 14 q 102 -5 81 -5 q 171 4 138 -7 q 231 35 203 15 m 444 195 q 360 191 397 195 q 292 184 323 187 q 286 188 289 183 q 281 199 282 193 q 282 211 280 205 q 292 216 285 216 q 348 216 313 216 q 441 214 382 215 q 451 211 448 214 q 456 204 455 208 q 454 198 456 201 q 444 195 451 195 "},"€":{"ha":448,"x_min":43,"x_max":456,"o":"m 456 422 q 453 395 456 411 q 443 363 450 378 q 426 338 436 349 q 401 328 415 328 q 396 328 399 328 q 394 332 394 329 q 400 343 394 333 q 414 370 407 353 q 428 406 422 386 q 435 445 435 425 q 425 480 435 467 q 391 494 415 494 q 311 475 349 494 q 241 425 273 456 q 184 358 209 395 q 142 287 159 321 l 298 287 l 289 270 l 254 270 l 134 270 q 129 256 130 260 q 124 241 127 251 l 277 241 l 270 223 l 120 223 q 112 181 115 202 q 109 138 109 160 q 115 85 109 111 q 134 39 121 59 q 169 7 147 19 q 222 -5 190 -5 q 278 9 249 -5 q 333 44 307 23 q 382 89 359 65 q 420 133 404 113 q 426 139 424 138 q 428 136 428 139 q 428 130 429 134 q 427 123 428 125 q 381 66 406 92 q 327 21 356 40 q 264 -8 298 2 q 192 -19 231 -19 q 132 -7 157 -19 q 92 24 108 4 q 70 73 77 45 q 62 132 62 100 q 66 178 62 155 q 75 223 69 201 l 43 223 l 50 241 l 79 241 q 83 256 82 251 q 88 270 84 260 l 62 270 l 71 287 l 96 287 q 137 363 111 323 q 198 436 164 403 q 273 492 233 470 q 355 514 313 514 q 395 508 376 514 q 427 490 414 502 q 449 461 441 479 q 456 422 456 444 "},"F":{"ha":711,"x_min":28,"x_max":943,"o":"m 940 388 q 931 369 939 378 q 913 354 924 360 q 886 346 901 349 q 854 347 871 344 q 798 360 824 351 q 750 379 771 370 q 714 395 728 388 q 695 405 700 403 q 665 363 679 387 q 641 315 652 339 q 621 269 630 292 q 605 230 612 246 q 638 227 621 228 q 674 225 656 226 q 707 225 691 225 q 732 226 722 225 q 750 222 750 227 q 734 212 749 216 q 707 209 725 210 q 669 207 690 208 q 629 207 649 206 q 597 209 610 208 q 571 143 585 177 q 537 76 556 109 q 492 13 517 43 q 433 -39 467 -17 q 356 -75 399 -62 q 258 -88 313 -88 q 151 -67 199 -88 q 75 -10 104 -46 q 37 75 45 26 q 46 179 28 123 q 60 205 51 193 q 79 227 68 218 q 99 241 89 235 q 117 250 109 248 q 126 252 125 252 q 126 249 128 251 q 117 242 123 246 q 104 232 111 237 q 90 221 98 227 q 75 205 82 214 q 61 183 67 196 q 52 153 54 170 q 59 65 43 103 q 104 0 75 26 q 173 -41 134 -26 q 250 -56 212 -55 q 354 -38 306 -59 q 443 19 403 -18 q 516 106 484 56 q 572 211 548 155 q 543 212 563 211 q 500 210 523 213 q 457 200 478 208 q 425 175 437 192 q 415 171 418 167 q 414 181 411 176 q 444 220 425 207 q 485 239 463 234 q 532 242 507 243 q 582 236 557 240 q 609 295 594 265 q 638 349 624 324 q 664 391 652 373 q 680 414 675 408 q 591 453 637 435 q 496 478 546 471 q 412 477 450 485 q 345 452 374 469 q 298 413 317 435 q 272 368 280 390 q 267 326 264 345 q 286 297 271 307 q 337 282 312 281 q 383 294 363 284 q 416 317 404 304 q 428 338 428 330 q 431 348 428 343 q 437 354 434 353 q 441 352 440 355 q 439 340 442 349 q 414 299 432 316 q 373 274 395 282 q 325 268 350 267 q 280 281 300 270 q 242 325 252 298 q 239 381 233 351 q 268 440 246 412 q 324 489 290 469 q 405 514 359 508 q 507 504 452 519 q 610 467 564 488 q 689 425 657 445 q 697 433 692 428 q 709 442 702 438 q 725 448 716 446 q 746 446 734 450 q 755 439 753 444 q 758 430 758 434 q 755 425 758 426 q 746 430 751 424 q 724 429 734 435 q 705 417 713 424 q 736 403 717 411 q 778 388 755 395 q 824 375 800 380 q 869 368 848 369 q 905 373 890 368 q 928 391 921 378 q 939 404 935 408 q 940 388 943 401 "},"G":{"ha":474,"x_min":-36,"x_max":544,"o":"m 522 -76 q 533 -81 530 -78 q 536 -86 537 -83 q 531 -90 536 -89 q 517 -88 526 -90 q 488 -83 505 -85 q 449 -79 470 -80 q 407 -77 429 -77 q 364 -76 385 -76 q 314 -134 342 -107 q 253 -182 285 -161 q 186 -219 220 -203 q 121 -243 153 -235 q 63 -253 90 -252 q 17 -248 36 -254 q -25 -220 -15 -236 q -30 -186 -36 -204 q -4 -150 -24 -168 q 46 -116 16 -132 q 115 -87 77 -100 q 196 -69 154 -75 q 227 -65 209 -67 q 265 -62 245 -64 q 304 -59 285 -60 q 340 -58 323 -58 q 362 -17 352 -37 q 381 23 373 3 q 396 64 389 43 q 408 109 403 85 l 411 120 q 384 97 401 111 q 345 70 367 83 q 297 44 323 56 q 243 24 271 31 q 187 16 216 17 q 130 24 158 15 q 74 64 98 35 q 38 135 50 93 q 32 229 27 176 q 65 338 37 281 q 34 383 45 359 q 21 433 22 408 q 29 485 19 459 q 62 535 39 511 q 75 542 70 543 q 71 530 79 541 q 47 486 54 509 q 41 442 40 464 q 52 398 43 420 q 76 359 60 377 q 83 372 79 366 q 91 385 87 378 q 156 463 118 429 q 236 519 193 497 q 323 549 279 541 q 409 552 368 558 q 492 520 461 544 q 534 465 524 496 q 533 399 544 433 q 492 335 523 364 q 409 287 460 306 q 286 267 357 267 q 236 269 261 266 q 188 279 211 273 q 144 294 165 285 q 107 313 123 302 q 78 221 85 265 q 78 141 71 177 q 104 81 85 106 q 153 47 123 56 q 224 42 186 36 q 296 63 262 48 q 353 98 329 78 q 385 135 378 118 q 415 183 400 170 q 442 198 430 197 q 461 188 454 198 q 466 165 468 178 q 435 56 458 109 q 374 -58 411 3 q 455 -64 419 -59 q 522 -76 492 -68 m 412 532 q 339 526 378 536 q 264 494 301 516 q 194 440 227 472 q 137 368 161 408 q 126 350 132 359 q 116 331 121 340 q 196 295 148 307 q 296 288 244 282 q 396 312 353 294 q 465 355 438 330 q 503 409 492 380 q 507 463 513 437 q 477 507 500 488 q 412 532 454 526 m 329 -77 q 264 -80 296 -78 q 204 -87 233 -83 q 143 -103 174 -92 q 85 -128 112 -114 q 37 -158 58 -142 q 7 -188 16 -174 q 4 -213 -1 -202 q 35 -230 9 -224 q 72 -231 50 -233 q 120 -222 94 -229 q 175 -201 146 -214 q 231 -170 203 -188 q 284 -129 258 -152 q 329 -77 309 -105 "},"Ğ":{"ha":490,"x_min":-36,"x_max":544,"o":"m 522 -76 q 533 -81 530 -78 q 536 -86 537 -83 q 531 -90 536 -89 q 517 -88 526 -90 q 488 -83 505 -85 q 449 -79 470 -80 q 407 -77 429 -77 q 364 -76 385 -76 q 314 -134 342 -107 q 253 -182 285 -161 q 186 -219 220 -203 q 121 -243 153 -235 q 63 -253 90 -252 q 17 -248 36 -254 q -25 -220 -15 -236 q -30 -186 -36 -204 q -4 -150 -24 -168 q 46 -116 16 -132 q 115 -87 77 -100 q 196 -69 154 -75 q 227 -65 209 -67 q 265 -62 245 -64 q 304 -59 285 -60 q 340 -58 323 -58 q 362 -17 352 -37 q 381 23 373 3 q 396 64 389 43 q 408 109 403 85 l 411 120 q 384 97 401 111 q 345 70 367 83 q 297 44 323 56 q 243 24 271 31 q 187 16 216 17 q 130 24 158 15 q 74 64 98 35 q 38 135 50 93 q 32 229 27 176 q 65 338 37 281 q 34 383 45 359 q 21 433 22 408 q 29 485 19 459 q 62 535 39 511 q 75 542 70 543 q 71 530 79 541 q 47 486 54 509 q 41 442 40 464 q 52 398 43 420 q 76 359 60 377 q 83 372 79 366 q 91 385 87 378 q 156 463 118 429 q 236 519 193 497 q 323 549 279 541 q 409 552 368 558 q 492 520 461 544 q 534 465 524 496 q 533 399 544 433 q 492 335 523 364 q 409 287 460 306 q 286 267 357 267 q 236 269 261 266 q 188 279 211 273 q 144 294 165 285 q 107 313 123 302 q 78 221 85 265 q 78 141 71 177 q 104 81 85 106 q 153 47 123 56 q 224 42 186 36 q 296 63 262 48 q 353 98 329 78 q 385 135 378 118 q 415 183 400 170 q 442 198 430 197 q 461 188 454 198 q 466 165 468 178 q 435 56 458 109 q 374 -58 411 3 q 455 -64 419 -59 q 522 -76 492 -68 m 412 532 q 339 526 378 536 q 264 494 301 516 q 194 440 227 472 q 137 368 161 408 q 126 350 132 359 q 116 331 121 340 q 196 295 148 307 q 296 288 244 282 q 396 312 353 294 q 465 355 438 330 q 503 409 492 380 q 507 463 513 437 q 477 507 500 488 q 412 532 454 526 m 329 -77 q 264 -80 296 -78 q 204 -87 233 -83 q 143 -103 174 -92 q 85 -128 112 -114 q 37 -158 58 -142 q 7 -188 16 -174 q 4 -213 -1 -202 q 35 -230 9 -224 q 72 -231 50 -233 q 120 -222 94 -229 q 175 -201 146 -214 q 231 -170 203 -188 q 284 -129 258 -152 q 329 -77 309 -105 m 495 668 q 506 673 500 673 q 510 667 511 673 q 473 625 498 640 q 416 609 448 609 q 397 611 407 609 q 378 617 387 613 q 363 629 370 622 q 355 645 357 635 q 356 669 352 663 q 366 675 360 675 q 370 673 368 675 q 373 666 371 670 q 376 657 374 662 q 382 649 378 653 q 404 635 393 639 q 429 632 414 632 q 453 635 444 632 q 470 642 463 637 q 483 653 477 647 q 495 668 489 660 "},"Ĝ":{"ha":474,"x_min":-36,"x_max":544,"o":"m 522 -76 q 533 -81 530 -78 q 536 -86 537 -83 q 531 -90 536 -89 q 517 -88 526 -90 q 488 -83 505 -85 q 449 -79 470 -80 q 407 -77 429 -77 q 364 -76 385 -76 q 314 -134 342 -107 q 253 -182 285 -161 q 186 -219 220 -203 q 121 -243 153 -235 q 63 -253 90 -252 q 17 -248 36 -254 q -25 -220 -15 -236 q -30 -186 -36 -204 q -4 -150 -24 -168 q 46 -116 16 -132 q 115 -87 77 -100 q 196 -69 154 -75 q 227 -65 209 -67 q 265 -62 245 -64 q 304 -59 285 -60 q 340 -58 323 -58 q 362 -17 352 -37 q 381 23 373 3 q 396 64 389 43 q 408 109 403 85 l 411 120 q 384 97 401 111 q 345 70 367 83 q 297 44 323 56 q 243 24 271 31 q 187 16 216 17 q 130 24 158 15 q 74 64 98 35 q 38 135 50 93 q 32 229 27 176 q 65 338 37 281 q 34 383 45 359 q 21 433 22 408 q 29 485 19 459 q 62 535 39 511 q 75 542 70 543 q 71 530 79 541 q 47 486 54 509 q 41 442 40 464 q 52 398 43 420 q 76 359 60 377 q 83 372 79 366 q 91 385 87 378 q 156 463 118 429 q 236 519 193 497 q 323 549 279 541 q 409 552 368 558 q 492 520 461 544 q 534 465 524 496 q 533 399 544 433 q 492 335 523 364 q 409 287 460 306 q 286 267 357 267 q 236 269 261 266 q 188 279 211 273 q 144 294 165 285 q 107 313 123 302 q 78 221 85 265 q 78 141 71 177 q 104 81 85 106 q 153 47 123 56 q 224 42 186 36 q 296 63 262 48 q 353 98 329 78 q 385 135 378 118 q 415 183 400 170 q 442 198 430 197 q 461 188 454 198 q 466 165 468 178 q 435 56 458 109 q 374 -58 411 3 q 455 -64 419 -59 q 522 -76 492 -68 m 412 532 q 339 526 378 536 q 264 494 301 516 q 194 440 227 472 q 137 368 161 408 q 126 350 132 359 q 116 331 121 340 q 196 295 148 307 q 296 288 244 282 q 396 312 353 294 q 465 355 438 330 q 503 409 492 380 q 507 463 513 437 q 477 507 500 488 q 412 532 454 526 m 329 -77 q 264 -80 296 -78 q 204 -87 233 -83 q 143 -103 174 -92 q 85 -128 112 -114 q 37 -158 58 -142 q 7 -188 16 -174 q 4 -213 -1 -202 q 35 -230 9 -224 q 72 -231 50 -233 q 120 -222 94 -229 q 175 -201 146 -214 q 231 -170 203 -188 q 284 -129 258 -152 q 329 -77 309 -105 m 488 597 q 483 593 490 593 q 474 597 476 594 l 443 646 q 401 623 420 633 q 371 607 386 614 q 353 597 357 599 q 347 594 351 595 q 340 594 343 593 q 336 595 337 594 q 336 597 334 596 l 437 669 q 450 671 445 670 q 459 671 455 671 q 463 669 463 671 l 488 597 "},"Ģ":{"ha":474,"x_min":-36,"x_max":544,"o":"m 522 -76 q 533 -81 530 -78 q 536 -86 537 -83 q 531 -90 536 -89 q 517 -88 526 -90 q 488 -83 505 -85 q 449 -79 470 -80 q 407 -77 429 -77 q 364 -76 385 -76 q 314 -134 342 -107 q 253 -182 285 -161 q 186 -219 220 -203 q 121 -243 153 -235 q 63 -253 90 -252 q 17 -248 36 -254 q -25 -220 -15 -236 q -30 -186 -36 -204 q -4 -150 -24 -168 q 46 -116 16 -132 q 115 -87 77 -100 q 196 -69 154 -75 q 227 -65 209 -67 q 265 -62 245 -64 q 304 -59 285 -60 q 340 -58 323 -58 q 362 -17 352 -37 q 381 23 373 3 q 396 64 389 43 q 408 109 403 85 l 411 120 q 384 97 401 111 q 345 70 367 83 q 297 44 323 56 q 243 24 271 31 q 187 16 216 17 q 130 24 158 15 q 74 64 98 35 q 38 135 50 93 q 32 229 27 176 q 65 338 37 281 q 34 383 45 359 q 21 433 22 408 q 29 485 19 459 q 62 535 39 511 q 75 542 70 543 q 71 530 79 541 q 47 486 54 509 q 41 442 40 464 q 52 398 43 420 q 76 359 60 377 q 83 372 79 366 q 91 385 87 378 q 156 463 118 429 q 236 519 193 497 q 323 549 279 541 q 409 552 368 558 q 492 520 461 544 q 534 465 524 496 q 533 399 544 433 q 492 335 523 364 q 409 287 460 306 q 286 267 357 267 q 236 269 261 266 q 188 279 211 273 q 144 294 165 285 q 107 313 123 302 q 78 221 85 265 q 78 141 71 177 q 104 81 85 106 q 153 47 123 56 q 224 42 186 36 q 296 63 262 48 q 353 98 329 78 q 385 135 378 118 q 415 183 400 170 q 442 198 430 197 q 461 188 454 198 q 466 165 468 178 q 435 56 458 109 q 374 -58 411 3 q 455 -64 419 -59 q 522 -76 492 -68 m 412 532 q 339 526 378 536 q 264 494 301 516 q 194 440 227 472 q 137 368 161 408 q 126 350 132 359 q 116 331 121 340 q 196 295 148 307 q 296 288 244 282 q 396 312 353 294 q 465 355 438 330 q 503 409 492 380 q 507 463 513 437 q 477 507 500 488 q 412 532 454 526 m 329 -77 q 264 -80 296 -78 q 204 -87 233 -83 q 143 -103 174 -92 q 85 -128 112 -114 q 37 -158 58 -142 q 7 -188 16 -174 q 4 -213 -1 -202 q 35 -230 9 -224 q 72 -231 50 -233 q 120 -222 94 -229 q 175 -201 146 -214 q 231 -170 203 -188 q 284 -129 258 -152 q 329 -77 309 -105 m 145 -294 q 139 -321 145 -309 q 123 -342 132 -333 q 102 -358 113 -352 q 81 -368 91 -365 q 75 -367 76 -370 q 81 -361 75 -363 q 111 -342 98 -356 q 127 -309 125 -329 q 119 -313 123 -311 q 110 -315 115 -315 q 93 -307 99 -315 q 89 -290 87 -300 q 99 -272 90 -279 q 118 -264 108 -264 q 138 -273 132 -264 q 145 -294 145 -282 "},"Ġ":{"ha":474,"x_min":-36,"x_max":544,"o":"m 522 -76 q 533 -81 530 -78 q 536 -86 537 -83 q 531 -90 536 -89 q 517 -88 526 -90 q 488 -83 505 -85 q 449 -79 470 -80 q 407 -77 429 -77 q 364 -76 385 -76 q 314 -134 342 -107 q 253 -182 285 -161 q 186 -219 220 -203 q 121 -243 153 -235 q 63 -253 90 -252 q 17 -248 36 -254 q -25 -220 -15 -236 q -30 -186 -36 -204 q -4 -150 -24 -168 q 46 -116 16 -132 q 115 -87 77 -100 q 196 -69 154 -75 q 227 -65 209 -67 q 265 -62 245 -64 q 304 -59 285 -60 q 340 -58 323 -58 q 362 -17 352 -37 q 381 23 373 3 q 396 64 389 43 q 408 109 403 85 l 411 120 q 384 97 401 111 q 345 70 367 83 q 297 44 323 56 q 243 24 271 31 q 187 16 216 17 q 130 24 158 15 q 74 64 98 35 q 38 135 50 93 q 32 229 27 176 q 65 338 37 281 q 34 383 45 359 q 21 433 22 408 q 29 485 19 459 q 62 535 39 511 q 75 542 70 543 q 71 530 79 541 q 47 486 54 509 q 41 442 40 464 q 52 398 43 420 q 76 359 60 377 q 83 372 79 366 q 91 385 87 378 q 156 463 118 429 q 236 519 193 497 q 323 549 279 541 q 409 552 368 558 q 492 520 461 544 q 534 465 524 496 q 533 399 544 433 q 492 335 523 364 q 409 287 460 306 q 286 267 357 267 q 236 269 261 266 q 188 279 211 273 q 144 294 165 285 q 107 313 123 302 q 78 221 85 265 q 78 141 71 177 q 104 81 85 106 q 153 47 123 56 q 224 42 186 36 q 296 63 262 48 q 353 98 329 78 q 385 135 378 118 q 415 183 400 170 q 442 198 430 197 q 461 188 454 198 q 466 165 468 178 q 435 56 458 109 q 374 -58 411 3 q 455 -64 419 -59 q 522 -76 492 -68 m 412 532 q 339 526 378 536 q 264 494 301 516 q 194 440 227 472 q 137 368 161 408 q 126 350 132 359 q 116 331 121 340 q 196 295 148 307 q 296 288 244 282 q 396 312 353 294 q 465 355 438 330 q 503 409 492 380 q 507 463 513 437 q 477 507 500 488 q 412 532 454 526 m 329 -77 q 264 -80 296 -78 q 204 -87 233 -83 q 143 -103 174 -92 q 85 -128 112 -114 q 37 -158 58 -142 q 7 -188 16 -174 q 4 -213 -1 -202 q 35 -230 9 -224 q 72 -231 50 -233 q 120 -222 94 -229 q 175 -201 146 -214 q 231 -170 203 -188 q 284 -129 258 -152 q 329 -77 309 -105 m 488 614 q 477 590 488 600 q 454 580 467 580 q 444 583 448 580 q 439 593 439 587 q 442 605 439 599 q 450 617 445 612 q 460 627 454 623 q 471 631 466 631 q 483 626 479 631 q 488 614 488 621 "},"H":{"ha":937,"x_min":-14,"x_max":1042,"o":"m 1033 509 q 1013 486 1028 506 q 978 432 998 467 q 936 349 958 397 q 892 241 913 300 q 905 241 897 241 q 921 242 913 241 q 936 244 928 243 q 947 246 943 245 q 959 247 956 250 q 952 238 961 244 q 920 225 939 229 q 886 220 901 221 q 877 192 883 210 q 865 154 871 175 q 853 110 859 132 q 844 66 847 87 q 843 30 842 46 q 851 5 844 14 q 868 -2 858 -2 q 889 5 878 -3 q 914 29 902 15 q 936 60 926 43 q 956 94 947 77 q 974 128 966 112 q 984 138 979 140 q 984 123 989 136 q 960 76 970 96 q 941 43 950 57 q 922 18 932 28 q 901 -4 913 7 q 863 -27 884 -22 q 825 -22 842 -32 q 804 3 809 -14 q 799 44 798 21 q 806 93 800 67 q 820 143 812 119 q 836 188 828 168 q 847 220 843 208 q 807 221 836 220 q 744 223 779 222 q 675 226 709 224 q 617 229 640 227 q 565 112 597 170 q 487 7 532 54 q 387 -73 442 -40 q 265 -113 331 -105 q 153 -108 207 -121 q 59 -65 98 -96 q 3 14 20 -34 q 3 125 -14 62 q 17 157 7 142 q 40 185 28 173 q 65 204 53 197 q 85 212 77 212 q 94 208 96 212 q 87 202 92 204 q 68 189 79 199 q 47 166 57 180 q 28 134 37 152 q 18 95 20 116 q 22 30 13 58 q 51 -18 32 2 q 95 -50 69 -37 q 150 -68 121 -62 q 206 -74 178 -74 q 258 -68 235 -73 q 383 -20 330 -52 q 475 53 436 12 q 539 140 513 94 q 582 230 565 186 q 561 227 571 230 q 541 219 551 224 q 534 216 538 218 q 525 215 529 215 q 520 217 522 215 q 523 227 519 220 q 539 242 528 234 q 565 252 551 251 l 591 252 q 619 318 604 284 q 648 383 634 353 q 674 437 663 414 q 690 472 685 461 q 622 466 657 468 q 553 458 587 463 q 488 445 519 454 q 429 419 456 435 q 381 376 402 402 q 349 311 361 350 q 343 259 340 283 q 359 218 347 235 q 391 196 371 202 q 437 200 412 191 q 469 225 456 207 q 489 262 482 243 q 498 299 496 282 q 497 321 500 316 q 495 328 494 325 q 497 331 495 330 q 502 331 499 332 q 506 326 504 330 q 513 283 515 304 q 500 242 511 261 q 473 209 490 223 q 438 187 456 194 q 379 183 408 176 q 331 210 351 190 q 303 259 311 229 q 302 321 294 288 q 338 392 313 364 q 395 438 362 420 q 468 465 428 456 q 548 477 507 473 q 627 483 588 481 q 700 488 667 485 q 707 499 702 491 q 720 516 712 507 q 735 532 727 525 q 752 543 744 540 q 779 542 767 547 q 791 524 791 538 q 782 502 791 511 q 761 487 773 493 q 735 477 749 480 q 711 473 721 473 q 696 441 705 460 q 679 400 688 422 q 662 355 671 378 q 645 311 653 332 q 632 275 637 291 q 623 252 626 260 q 691 251 657 252 q 754 247 724 249 q 810 242 785 244 q 853 241 836 241 q 864 269 856 248 q 884 318 872 290 q 911 378 896 347 q 941 437 926 410 q 972 484 957 464 q 1001 508 987 503 q 1021 514 1011 511 q 1036 517 1030 516 q 1042 515 1042 517 q 1033 509 1042 513 m 759 523 q 752 521 756 524 q 742 512 747 517 q 731 501 736 507 q 723 490 726 495 q 754 499 745 494 q 766 510 764 505 q 765 519 768 515 q 759 523 762 523 "},"Ħ":{"ha":937,"x_min":-14,"x_max":1061,"o":"m 1055 358 l 502 358 l 509 385 l 1061 385 l 1055 358 m 1033 509 q 1013 486 1028 506 q 978 432 998 467 q 936 349 958 397 q 892 241 913 300 q 905 241 897 241 q 921 242 913 241 q 936 244 928 243 q 947 246 943 245 q 959 247 956 250 q 952 238 961 244 q 920 225 939 229 q 886 220 901 221 q 877 192 883 210 q 865 154 871 175 q 853 110 859 132 q 844 66 847 87 q 843 30 842 46 q 851 5 844 14 q 868 -2 858 -2 q 889 5 878 -3 q 914 29 902 15 q 936 60 926 43 q 956 94 947 77 q 974 128 966 112 q 984 138 979 140 q 984 123 989 136 q 960 76 970 96 q 941 43 950 57 q 922 18 932 28 q 901 -4 913 7 q 863 -27 884 -22 q 825 -22 842 -32 q 804 3 809 -14 q 799 44 798 21 q 806 93 800 67 q 820 143 812 119 q 836 188 828 168 q 847 220 843 208 q 807 221 836 220 q 744 223 779 222 q 675 226 709 224 q 617 229 640 227 q 565 112 597 170 q 487 7 532 54 q 387 -73 442 -40 q 265 -113 331 -105 q 153 -108 207 -121 q 59 -65 98 -96 q 3 14 20 -34 q 3 125 -14 62 q 17 157 7 142 q 40 185 28 173 q 65 204 53 197 q 85 212 77 212 q 94 208 96 212 q 87 202 92 204 q 68 189 79 199 q 47 166 57 180 q 28 134 37 152 q 18 95 20 116 q 22 30 13 58 q 51 -18 32 2 q 95 -50 69 -37 q 150 -68 121 -62 q 206 -74 178 -74 q 258 -68 235 -73 q 383 -20 330 -52 q 475 53 436 12 q 539 140 513 94 q 582 230 565 186 q 561 227 571 230 q 541 219 551 224 q 534 216 538 218 q 525 215 529 215 q 520 217 522 215 q 523 227 519 220 q 539 242 528 234 q 565 252 551 251 l 591 252 q 619 318 604 284 q 648 383 634 353 q 674 437 663 414 q 690 472 685 461 q 622 466 657 468 q 553 458 587 463 q 488 445 519 454 q 429 419 456 435 q 381 376 402 402 q 349 311 361 350 q 343 259 340 283 q 359 218 347 235 q 391 196 371 202 q 437 200 412 191 q 469 225 456 207 q 489 262 482 243 q 498 299 496 282 q 497 321 500 316 q 495 328 494 325 q 497 331 495 330 q 502 331 499 332 q 506 326 504 330 q 513 283 515 304 q 500 242 511 261 q 473 209 490 223 q 438 187 456 194 q 379 183 408 176 q 331 210 351 190 q 303 259 311 229 q 302 321 294 288 q 338 392 313 364 q 395 438 362 420 q 468 465 428 456 q 548 477 507 473 q 627 483 588 481 q 700 488 667 485 q 707 499 702 491 q 720 516 712 507 q 735 532 727 525 q 752 543 744 540 q 779 542 767 547 q 791 524 791 538 q 782 502 791 511 q 761 487 773 493 q 735 477 749 480 q 711 473 721 473 q 696 441 705 460 q 679 400 688 422 q 662 355 671 378 q 645 311 653 332 q 632 275 637 291 q 623 252 626 260 q 691 251 657 252 q 754 247 724 249 q 810 242 785 244 q 853 241 836 241 q 864 269 856 248 q 884 318 872 290 q 911 378 896 347 q 941 437 926 410 q 972 484 957 464 q 1001 508 987 503 q 1021 514 1011 511 q 1036 517 1030 516 q 1042 515 1042 517 q 1033 509 1042 513 m 759 523 q 752 521 756 524 q 742 512 747 517 q 731 501 736 507 q 723 490 726 495 q 754 499 745 494 q 766 510 764 505 q 765 519 768 515 q 759 523 762 523 "},"Ĥ":{"ha":937,"x_min":-14,"x_max":1042,"o":"m 1033 509 q 1013 486 1028 506 q 978 432 998 467 q 936 349 958 397 q 892 241 913 300 q 905 241 897 241 q 921 242 913 241 q 936 244 928 243 q 947 246 943 245 q 959 247 956 250 q 952 238 961 244 q 920 225 939 229 q 886 220 901 221 q 877 192 883 210 q 865 154 871 175 q 853 110 859 132 q 844 66 847 87 q 843 30 842 46 q 851 5 844 14 q 868 -2 858 -2 q 889 5 878 -3 q 914 29 902 15 q 936 60 926 43 q 956 94 947 77 q 974 128 966 112 q 984 138 979 140 q 984 123 989 136 q 960 76 970 96 q 941 43 950 57 q 922 18 932 28 q 901 -4 913 7 q 863 -27 884 -22 q 825 -22 842 -32 q 804 3 809 -14 q 799 44 798 21 q 806 93 800 67 q 820 143 812 119 q 836 188 828 168 q 847 220 843 208 q 807 221 836 220 q 744 223 779 222 q 675 226 709 224 q 617 229 640 227 q 565 112 597 170 q 487 7 532 54 q 387 -73 442 -40 q 265 -113 331 -105 q 153 -108 207 -121 q 59 -65 98 -96 q 3 14 20 -34 q 3 125 -14 62 q 17 157 7 142 q 40 185 28 173 q 65 204 53 197 q 85 212 77 212 q 94 208 96 212 q 87 202 92 204 q 68 189 79 199 q 47 166 57 180 q 28 134 37 152 q 18 95 20 116 q 22 30 13 58 q 51 -18 32 2 q 95 -50 69 -37 q 150 -68 121 -62 q 206 -74 178 -74 q 258 -68 235 -73 q 383 -20 330 -52 q 475 53 436 12 q 539 140 513 94 q 582 230 565 186 q 561 227 571 230 q 541 219 551 224 q 534 216 538 218 q 525 215 529 215 q 520 217 522 215 q 523 227 519 220 q 539 242 528 234 q 565 252 551 251 l 591 252 q 619 318 604 284 q 648 383 634 353 q 674 437 663 414 q 690 472 685 461 q 622 466 657 468 q 553 458 587 463 q 488 445 519 454 q 429 419 456 435 q 381 376 402 402 q 349 311 361 350 q 343 259 340 283 q 359 218 347 235 q 391 196 371 202 q 437 200 412 191 q 469 225 456 207 q 489 262 482 243 q 498 299 496 282 q 497 321 500 316 q 495 328 494 325 q 497 331 495 330 q 502 331 499 332 q 506 326 504 330 q 513 283 515 304 q 500 242 511 261 q 473 209 490 223 q 438 187 456 194 q 379 183 408 176 q 331 210 351 190 q 303 259 311 229 q 302 321 294 288 q 338 392 313 364 q 395 438 362 420 q 468 465 428 456 q 548 477 507 473 q 627 483 588 481 q 700 488 667 485 q 707 499 702 491 q 720 516 712 507 q 735 532 727 525 q 752 543 744 540 q 779 542 767 547 q 791 524 791 538 q 782 502 791 511 q 761 487 773 493 q 735 477 749 480 q 711 473 721 473 q 696 441 705 460 q 679 400 688 422 q 662 355 671 378 q 645 311 653 332 q 632 275 637 291 q 623 252 626 260 q 691 251 657 252 q 754 247 724 249 q 810 242 785 244 q 853 241 836 241 q 864 269 856 248 q 884 318 872 290 q 911 378 896 347 q 941 437 926 410 q 972 484 957 464 q 1001 508 987 503 q 1021 514 1011 511 q 1036 517 1030 516 q 1042 515 1042 517 q 1033 509 1042 513 m 759 523 q 752 521 756 524 q 742 512 747 517 q 731 501 736 507 q 723 490 726 495 q 754 499 745 494 q 766 510 764 505 q 765 519 768 515 q 759 523 762 523 m 983 591 q 978 587 985 587 q 969 591 971 588 l 938 640 q 897 617 915 627 q 866 601 881 608 q 848 591 852 593 q 842 588 846 589 q 835 588 838 587 q 831 589 832 588 q 831 591 829 590 l 932 663 q 945 665 940 664 q 954 665 950 665 q 958 663 958 665 l 983 591 "},"I":{"ha":618,"x_min":-21,"x_max":811,"o":"m 811 546 q 807 528 811 536 q 795 515 802 521 q 778 506 787 509 q 759 498 768 502 q 744 495 753 498 q 730 492 735 492 q 695 418 709 454 q 669 346 681 381 q 647 275 658 310 q 622 205 636 239 q 590 136 608 170 q 545 67 572 102 q 419 -46 488 -5 q 277 -99 351 -87 q 144 -102 205 -111 q 44 -63 83 -92 q -8 13 5 -35 q 3 123 -21 60 q 21 156 9 140 q 47 184 34 172 q 74 204 61 197 q 96 212 87 212 q 104 209 106 213 q 96 203 101 205 q 76 189 87 199 q 52 165 64 180 q 30 133 40 151 q 14 94 20 115 q 13 28 5 57 q 39 -22 20 -1 q 85 -57 58 -43 q 143 -78 112 -71 q 205 -84 174 -85 q 264 -77 237 -84 q 355 -41 313 -65 q 433 13 397 -18 q 496 78 468 43 q 546 147 524 113 q 583 214 568 182 q 608 270 598 245 q 638 346 623 310 q 668 410 654 381 q 693 459 682 439 q 709 489 704 479 q 611 465 663 479 q 511 426 558 450 q 427 365 463 402 q 379 273 391 328 q 377 229 374 249 q 391 197 380 209 q 419 181 402 184 q 458 186 437 178 q 499 215 485 197 q 518 252 513 233 q 521 286 523 271 q 515 304 519 300 q 515 309 514 306 q 519 313 517 311 q 525 315 522 315 q 530 311 528 315 q 538 270 540 292 q 525 229 536 249 q 497 194 515 210 q 459 170 480 178 q 407 163 432 160 q 363 181 381 167 q 336 220 345 196 q 334 273 327 243 q 366 345 342 313 q 421 400 389 376 q 492 442 453 425 q 571 472 531 459 q 650 493 611 485 q 720 507 688 501 q 728 519 722 511 q 740 536 733 527 q 756 552 747 545 q 772 562 764 559 q 799 563 788 567 q 811 546 810 559 m 779 543 q 771 541 776 544 q 762 532 767 538 q 751 520 756 527 q 742 509 746 514 q 774 520 764 514 q 785 531 783 526 q 784 539 787 536 q 779 543 781 543 "},"Í":{"ha":614,"x_min":-21,"x_max":811,"o":"m 811 546 q 807 528 811 536 q 795 515 802 521 q 778 506 787 509 q 759 498 768 502 q 744 495 753 498 q 730 492 735 492 q 695 418 709 454 q 669 346 681 381 q 647 275 658 310 q 622 205 636 239 q 590 136 608 170 q 545 67 572 102 q 419 -46 488 -5 q 277 -99 351 -87 q 144 -102 205 -111 q 44 -63 83 -92 q -8 13 5 -35 q 3 123 -21 60 q 21 156 9 140 q 47 184 34 172 q 74 204 61 197 q 96 212 87 212 q 104 209 106 213 q 96 203 101 205 q 76 189 87 199 q 52 165 64 180 q 30 133 40 151 q 14 94 20 115 q 13 28 5 57 q 39 -22 20 -1 q 85 -57 58 -43 q 143 -78 112 -71 q 205 -84 174 -85 q 264 -77 237 -84 q 355 -41 313 -65 q 433 13 397 -18 q 496 78 468 43 q 546 147 524 113 q 583 214 568 182 q 608 270 598 245 q 638 346 623 310 q 668 410 654 381 q 693 459 682 439 q 709 489 704 479 q 611 465 663 479 q 511 426 558 450 q 427 365 463 402 q 379 273 391 328 q 377 229 374 249 q 391 197 380 209 q 419 181 402 184 q 458 186 437 178 q 499 215 485 197 q 518 252 513 233 q 521 286 523 271 q 515 304 519 300 q 515 309 514 306 q 519 313 517 311 q 525 315 522 315 q 530 311 528 315 q 538 270 540 292 q 525 229 536 249 q 497 194 515 210 q 459 170 480 178 q 407 163 432 160 q 363 181 381 167 q 336 220 345 196 q 334 273 327 243 q 366 345 342 313 q 421 400 389 376 q 492 442 453 425 q 571 472 531 459 q 650 493 611 485 q 720 507 688 501 q 728 519 722 511 q 740 536 733 527 q 756 552 747 545 q 772 562 764 559 q 799 563 788 567 q 811 546 810 559 m 779 543 q 771 541 776 544 q 762 532 767 538 q 751 520 756 527 q 742 509 746 514 q 774 520 764 514 q 785 531 783 526 q 784 539 787 536 q 779 543 781 543 m 726 604 q 715 596 724 602 q 691 583 705 590 q 662 569 677 576 q 633 556 646 562 q 610 547 619 550 q 599 544 600 543 q 597 553 593 547 q 609 564 597 555 q 635 583 621 572 q 663 602 650 593 q 680 614 676 611 q 699 624 688 621 q 720 623 709 628 q 727 615 725 620 q 726 604 728 610 "},"Î":{"ha":614,"x_min":-21,"x_max":811,"o":"m 811 546 q 807 528 811 536 q 795 515 802 521 q 778 506 787 509 q 759 498 768 502 q 744 495 753 498 q 730 492 735 492 q 695 418 709 454 q 669 346 681 381 q 647 275 658 310 q 622 205 636 239 q 590 136 608 170 q 545 67 572 102 q 419 -46 488 -5 q 277 -99 351 -87 q 144 -102 205 -111 q 44 -63 83 -92 q -8 13 5 -35 q 3 123 -21 60 q 21 156 9 140 q 47 184 34 172 q 74 204 61 197 q 96 212 87 212 q 104 209 106 213 q 96 203 101 205 q 76 189 87 199 q 52 165 64 180 q 30 133 40 151 q 14 94 20 115 q 13 28 5 57 q 39 -22 20 -1 q 85 -57 58 -43 q 143 -78 112 -71 q 205 -84 174 -85 q 264 -77 237 -84 q 355 -41 313 -65 q 433 13 397 -18 q 496 78 468 43 q 546 147 524 113 q 583 214 568 182 q 608 270 598 245 q 638 346 623 310 q 668 410 654 381 q 693 459 682 439 q 709 489 704 479 q 611 465 663 479 q 511 426 558 450 q 427 365 463 402 q 379 273 391 328 q 377 229 374 249 q 391 197 380 209 q 419 181 402 184 q 458 186 437 178 q 499 215 485 197 q 518 252 513 233 q 521 286 523 271 q 515 304 519 300 q 515 309 514 306 q 519 313 517 311 q 525 315 522 315 q 530 311 528 315 q 538 270 540 292 q 525 229 536 249 q 497 194 515 210 q 459 170 480 178 q 407 163 432 160 q 363 181 381 167 q 336 220 345 196 q 334 273 327 243 q 366 345 342 313 q 421 400 389 376 q 492 442 453 425 q 571 472 531 459 q 650 493 611 485 q 720 507 688 501 q 728 519 722 511 q 740 536 733 527 q 756 552 747 545 q 772 562 764 559 q 799 563 788 567 q 811 546 810 559 m 779 543 q 771 541 776 544 q 762 532 767 538 q 751 520 756 527 q 742 509 746 514 q 774 520 764 514 q 785 531 783 526 q 784 539 787 536 q 779 543 781 543 m 798 569 q 793 565 800 564 q 784 569 786 566 l 753 617 q 711 595 730 605 q 681 578 696 586 q 663 569 667 570 q 657 566 661 567 q 650 565 653 565 q 646 567 647 566 q 646 569 644 568 l 747 641 q 760 642 755 642 q 769 643 765 643 q 773 641 772 642 l 798 569 "},"Ï":{"ha":614,"x_min":-21,"x_max":811,"o":"m 811 546 q 807 528 811 536 q 795 515 802 521 q 778 506 787 509 q 759 498 768 502 q 744 495 753 498 q 730 492 735 492 q 695 418 709 454 q 669 346 681 381 q 647 275 658 310 q 622 205 636 239 q 590 136 608 170 q 545 67 572 102 q 419 -46 488 -5 q 277 -99 351 -87 q 144 -102 205 -111 q 44 -63 83 -92 q -8 13 5 -35 q 3 123 -21 60 q 21 156 9 140 q 47 184 34 172 q 74 204 61 197 q 96 212 87 212 q 104 209 106 213 q 96 203 101 205 q 76 189 87 199 q 52 165 64 180 q 30 133 40 151 q 14 94 20 115 q 13 28 5 57 q 39 -22 20 -1 q 85 -57 58 -43 q 143 -78 112 -71 q 205 -84 174 -85 q 264 -77 237 -84 q 355 -41 313 -65 q 433 13 397 -18 q 496 78 468 43 q 546 147 524 113 q 583 214 568 182 q 608 270 598 245 q 638 346 623 310 q 668 410 654 381 q 693 459 682 439 q 709 489 704 479 q 611 465 663 479 q 511 426 558 450 q 427 365 463 402 q 379 273 391 328 q 377 229 374 249 q 391 197 380 209 q 419 181 402 184 q 458 186 437 178 q 499 215 485 197 q 518 252 513 233 q 521 286 523 271 q 515 304 519 300 q 515 309 514 306 q 519 313 517 311 q 525 315 522 315 q 530 311 528 315 q 538 270 540 292 q 525 229 536 249 q 497 194 515 210 q 459 170 480 178 q 407 163 432 160 q 363 181 381 167 q 336 220 345 196 q 334 273 327 243 q 366 345 342 313 q 421 400 389 376 q 492 442 453 425 q 571 472 531 459 q 650 493 611 485 q 720 507 688 501 q 728 519 722 511 q 740 536 733 527 q 756 552 747 545 q 772 562 764 559 q 799 563 788 567 q 811 546 810 559 m 779 543 q 771 541 776 544 q 762 532 767 538 q 751 520 756 527 q 742 509 746 514 q 774 520 764 514 q 785 531 783 526 q 784 539 787 536 q 779 543 781 543 m 791 604 q 785 588 791 595 q 770 582 779 582 q 753 588 760 582 q 747 604 747 594 q 753 620 747 614 q 768 627 759 627 q 785 621 778 627 q 791 604 791 614 m 704 604 q 698 588 704 595 q 682 582 692 582 q 666 588 673 582 q 659 604 659 594 q 665 620 659 614 q 681 627 671 627 q 697 621 690 627 q 704 604 704 614 "},"İ":{"ha":630,"x_min":-21,"x_max":811,"o":"m 811 546 q 807 528 811 536 q 795 515 802 521 q 778 506 787 509 q 759 498 768 502 q 744 495 753 498 q 730 492 735 492 q 695 418 709 454 q 669 346 681 381 q 647 275 658 310 q 622 205 636 239 q 590 136 608 170 q 545 67 572 102 q 419 -46 488 -5 q 277 -99 351 -87 q 144 -102 205 -111 q 44 -63 83 -92 q -8 13 5 -35 q 3 123 -21 60 q 21 156 9 140 q 47 184 34 172 q 74 204 61 197 q 96 212 87 212 q 104 209 106 213 q 96 203 101 205 q 76 189 87 199 q 52 165 64 180 q 30 133 40 151 q 14 94 20 115 q 13 28 5 57 q 39 -22 20 -1 q 85 -57 58 -43 q 143 -78 112 -71 q 205 -84 174 -85 q 264 -77 237 -84 q 355 -41 313 -65 q 433 13 397 -18 q 496 78 468 43 q 546 147 524 113 q 583 214 568 182 q 608 270 598 245 q 638 346 623 310 q 668 410 654 381 q 693 459 682 439 q 709 489 704 479 q 611 465 663 479 q 511 426 558 450 q 427 365 463 402 q 379 273 391 328 q 377 229 374 249 q 391 197 380 209 q 419 181 402 184 q 458 186 437 178 q 499 215 485 197 q 518 252 513 233 q 521 286 523 271 q 515 304 519 300 q 515 309 514 306 q 519 313 517 311 q 525 315 522 315 q 530 311 528 315 q 538 270 540 292 q 525 229 536 249 q 497 194 515 210 q 459 170 480 178 q 407 163 432 160 q 363 181 381 167 q 336 220 345 196 q 334 273 327 243 q 366 345 342 313 q 421 400 389 376 q 492 442 453 425 q 571 472 531 459 q 650 493 611 485 q 720 507 688 501 q 728 519 722 511 q 740 536 733 527 q 756 552 747 545 q 772 562 764 559 q 799 563 788 567 q 811 546 810 559 m 779 543 q 771 541 776 544 q 762 532 767 538 q 751 520 756 527 q 742 509 746 514 q 774 520 764 514 q 785 531 783 526 q 784 539 787 536 q 779 543 781 543 m 768 625 q 758 601 768 611 q 735 591 748 591 q 725 594 729 591 q 720 604 720 597 q 723 616 720 610 q 730 628 726 623 q 741 638 735 634 q 752 642 747 642 q 764 637 760 642 q 768 625 768 631 "},"Ì":{"ha":614,"x_min":-21,"x_max":811,"o":"m 811 546 q 807 528 811 536 q 795 515 802 521 q 778 506 787 509 q 759 498 768 502 q 744 495 753 498 q 730 492 735 492 q 695 418 709 454 q 669 346 681 381 q 647 275 658 310 q 622 205 636 239 q 590 136 608 170 q 545 67 572 102 q 419 -46 488 -5 q 277 -99 351 -87 q 144 -102 205 -111 q 44 -63 83 -92 q -8 13 5 -35 q 3 123 -21 60 q 21 156 9 140 q 47 184 34 172 q 74 204 61 197 q 96 212 87 212 q 104 209 106 213 q 96 203 101 205 q 76 189 87 199 q 52 165 64 180 q 30 133 40 151 q 14 94 20 115 q 13 28 5 57 q 39 -22 20 -1 q 85 -57 58 -43 q 143 -78 112 -71 q 205 -84 174 -85 q 264 -77 237 -84 q 355 -41 313 -65 q 433 13 397 -18 q 496 78 468 43 q 546 147 524 113 q 583 214 568 182 q 608 270 598 245 q 638 346 623 310 q 668 410 654 381 q 693 459 682 439 q 709 489 704 479 q 611 465 663 479 q 511 426 558 450 q 427 365 463 402 q 379 273 391 328 q 377 229 374 249 q 391 197 380 209 q 419 181 402 184 q 458 186 437 178 q 499 215 485 197 q 518 252 513 233 q 521 286 523 271 q 515 304 519 300 q 515 309 514 306 q 519 313 517 311 q 525 315 522 315 q 530 311 528 315 q 538 270 540 292 q 525 229 536 249 q 497 194 515 210 q 459 170 480 178 q 407 163 432 160 q 363 181 381 167 q 336 220 345 196 q 334 273 327 243 q 366 345 342 313 q 421 400 389 376 q 492 442 453 425 q 571 472 531 459 q 650 493 611 485 q 720 507 688 501 q 728 519 722 511 q 740 536 733 527 q 756 552 747 545 q 772 562 764 559 q 799 563 788 567 q 811 546 810 559 m 779 543 q 771 541 776 544 q 762 532 767 538 q 751 520 756 527 q 742 509 746 514 q 774 520 764 514 q 785 531 783 526 q 784 539 787 536 q 779 543 781 543 m 764 571 q 758 565 764 565 q 742 571 755 565 q 713 586 729 578 q 684 602 698 594 q 665 612 669 610 q 647 624 655 616 q 640 642 640 631 q 643 652 640 648 q 652 656 647 656 q 665 650 656 656 q 687 635 675 644 q 713 615 700 626 q 738 595 727 605 q 757 579 749 586 q 764 571 764 572 "},"Ī":{"ha":630,"x_min":-21,"x_max":812,"o":"m 811 546 q 807 528 811 536 q 795 515 802 521 q 778 506 787 509 q 759 498 768 502 q 744 495 753 498 q 730 492 735 492 q 695 418 709 454 q 669 346 681 381 q 647 275 658 310 q 622 205 636 239 q 590 136 608 170 q 545 67 572 102 q 419 -46 488 -5 q 277 -99 351 -87 q 144 -102 205 -111 q 44 -63 83 -92 q -8 13 5 -35 q 3 123 -21 60 q 21 156 9 140 q 47 184 34 172 q 74 204 61 197 q 96 212 87 212 q 104 209 106 213 q 96 203 101 205 q 76 189 87 199 q 52 165 64 180 q 30 133 40 151 q 14 94 20 115 q 13 28 5 57 q 39 -22 20 -1 q 85 -57 58 -43 q 143 -78 112 -71 q 205 -84 174 -85 q 264 -77 237 -84 q 355 -41 313 -65 q 433 13 397 -18 q 496 78 468 43 q 546 147 524 113 q 583 214 568 182 q 608 270 598 245 q 638 346 623 310 q 668 410 654 381 q 693 459 682 439 q 709 489 704 479 q 611 465 663 479 q 511 426 558 450 q 427 365 463 402 q 379 273 391 328 q 377 229 374 249 q 391 197 380 209 q 419 181 402 184 q 458 186 437 178 q 499 215 485 197 q 518 252 513 233 q 521 286 523 271 q 515 304 519 300 q 515 309 514 306 q 519 313 517 311 q 525 315 522 315 q 530 311 528 315 q 538 270 540 292 q 525 229 536 249 q 497 194 515 210 q 459 170 480 178 q 407 163 432 160 q 363 181 381 167 q 336 220 345 196 q 334 273 327 243 q 366 345 342 313 q 421 400 389 376 q 492 442 453 425 q 571 472 531 459 q 650 493 611 485 q 720 507 688 501 q 728 519 722 511 q 740 536 733 527 q 756 552 747 545 q 772 562 764 559 q 799 563 788 567 q 811 546 810 559 m 779 543 q 771 541 776 544 q 762 532 767 538 q 751 520 756 527 q 742 509 746 514 q 774 520 764 514 q 785 531 783 526 q 784 539 787 536 q 779 543 781 543 m 800 578 l 655 578 l 667 604 l 812 604 l 800 578 "},"Į":{"ha":630,"x_min":-21,"x_max":811,"o":"m 811 546 q 807 528 811 536 q 795 515 802 521 q 778 506 787 509 q 759 498 768 502 q 744 495 753 498 q 730 492 735 492 q 695 418 709 454 q 669 346 681 381 q 647 275 658 310 q 622 205 636 239 q 590 136 608 170 q 545 67 572 102 q 419 -46 488 -5 q 277 -99 351 -87 q 144 -102 205 -111 q 44 -63 83 -92 q -8 13 5 -35 q 3 123 -21 60 q 21 156 9 140 q 47 184 34 172 q 74 204 61 197 q 96 212 87 212 q 104 209 106 213 q 96 203 101 205 q 76 189 87 199 q 52 165 64 180 q 30 133 40 151 q 14 94 20 115 q 13 28 5 57 q 39 -22 20 -1 q 85 -57 58 -43 q 143 -78 112 -71 q 205 -84 174 -85 q 264 -77 237 -84 q 355 -41 313 -65 q 433 13 397 -18 q 496 78 468 43 q 546 147 524 113 q 583 214 568 182 q 608 270 598 245 q 638 346 623 310 q 668 410 654 381 q 693 459 682 439 q 709 489 704 479 q 611 465 663 479 q 511 426 558 450 q 427 365 463 402 q 379 273 391 328 q 377 229 374 249 q 391 197 380 209 q 419 181 402 184 q 458 186 437 178 q 499 215 485 197 q 518 252 513 233 q 521 286 523 271 q 515 304 519 300 q 515 309 514 306 q 519 313 517 311 q 525 315 522 315 q 530 311 528 315 q 538 270 540 292 q 525 229 536 249 q 497 194 515 210 q 459 170 480 178 q 407 163 432 160 q 363 181 381 167 q 336 220 345 196 q 334 273 327 243 q 366 345 342 313 q 421 400 389 376 q 492 442 453 425 q 571 472 531 459 q 650 493 611 485 q 720 507 688 501 q 728 519 722 511 q 740 536 733 527 q 756 552 747 545 q 772 562 764 559 q 799 563 788 567 q 811 546 810 559 m 779 543 q 771 541 776 544 q 762 532 767 538 q 751 520 756 527 q 742 509 746 514 q 774 520 764 514 q 785 531 783 526 q 784 539 787 536 q 779 543 781 543 m 266 -115 q 238 -140 252 -126 q 213 -170 224 -155 q 193 -199 201 -184 q 185 -226 186 -214 q 189 -242 185 -235 q 205 -248 193 -248 q 223 -241 214 -248 q 239 -228 233 -235 q 244 -226 241 -227 q 246 -231 248 -226 q 240 -242 245 -236 q 226 -255 235 -249 q 206 -264 217 -260 q 182 -269 195 -269 q 160 -261 169 -269 q 151 -238 151 -254 q 164 -202 152 -222 q 195 -163 177 -182 q 231 -129 212 -144 q 262 -109 250 -114 q 266 -109 264 -109 q 266 -115 267 -109 "},"Ĩ":{"ha":630,"x_min":-21,"x_max":823,"o":"m 811 546 q 807 528 811 536 q 795 515 802 521 q 778 506 787 509 q 759 498 768 502 q 744 495 753 498 q 730 492 735 492 q 695 418 709 454 q 669 346 681 381 q 647 275 658 310 q 622 205 636 239 q 590 136 608 170 q 545 67 572 102 q 419 -46 488 -5 q 277 -99 351 -87 q 144 -102 205 -111 q 44 -63 83 -92 q -8 13 5 -35 q 3 123 -21 60 q 21 156 9 140 q 47 184 34 172 q 74 204 61 197 q 96 212 87 212 q 104 209 106 213 q 96 203 101 205 q 76 189 87 199 q 52 165 64 180 q 30 133 40 151 q 14 94 20 115 q 13 28 5 57 q 39 -22 20 -1 q 85 -57 58 -43 q 143 -78 112 -71 q 205 -84 174 -85 q 264 -77 237 -84 q 355 -41 313 -65 q 433 13 397 -18 q 496 78 468 43 q 546 147 524 113 q 583 214 568 182 q 608 270 598 245 q 638 346 623 310 q 668 410 654 381 q 693 459 682 439 q 709 489 704 479 q 611 465 663 479 q 511 426 558 450 q 427 365 463 402 q 379 273 391 328 q 377 229 374 249 q 391 197 380 209 q 419 181 402 184 q 458 186 437 178 q 499 215 485 197 q 518 252 513 233 q 521 286 523 271 q 515 304 519 300 q 515 309 514 306 q 519 313 517 311 q 525 315 522 315 q 530 311 528 315 q 538 270 540 292 q 525 229 536 249 q 497 194 515 210 q 459 170 480 178 q 407 163 432 160 q 363 181 381 167 q 336 220 345 196 q 334 273 327 243 q 366 345 342 313 q 421 400 389 376 q 492 442 453 425 q 571 472 531 459 q 650 493 611 485 q 720 507 688 501 q 728 519 722 511 q 740 536 733 527 q 756 552 747 545 q 772 562 764 559 q 799 563 788 567 q 811 546 810 559 m 779 543 q 771 541 776 544 q 762 532 767 538 q 751 520 756 527 q 742 509 746 514 q 774 520 764 514 q 785 531 783 526 q 784 539 787 536 q 779 543 781 543 m 823 622 q 813 606 819 614 q 801 591 808 597 q 785 580 793 584 q 766 576 777 576 q 748 581 757 577 q 731 588 740 584 q 714 594 723 591 q 697 598 706 597 q 679 594 686 600 q 667 580 671 588 q 665 578 667 578 q 660 578 663 578 q 655 579 657 578 q 654 581 654 580 q 663 596 658 588 q 676 610 669 604 q 691 620 683 616 q 710 623 700 624 q 728 620 719 623 q 745 613 736 617 q 763 607 754 610 q 779 603 771 604 q 798 607 791 602 q 811 623 806 613 q 818 624 812 625 q 823 622 823 623 "},"J":{"ha":655,"x_min":-52,"x_max":861,"o":"m 861 525 q 856 507 861 515 q 843 494 851 500 q 826 485 836 489 q 806 479 817 481 q 791 476 800 479 q 777 473 782 473 q 722 356 744 417 q 676 231 699 295 q 625 98 654 166 q 551 -41 597 30 q 481 -123 522 -87 q 398 -185 441 -159 q 314 -227 355 -212 q 239 -247 272 -242 q 106 -245 166 -257 q 8 -204 46 -234 q -41 -126 -31 -174 q -25 -14 -52 -78 q -5 18 -18 2 q 22 45 7 33 q 50 64 36 57 q 71 72 63 72 q 79 69 82 73 q 71 62 76 65 q 50 50 62 59 q 25 26 37 40 q 2 -5 12 13 q -15 -44 -9 -23 q -19 -111 -26 -81 q 5 -162 -13 -140 q 51 -199 24 -184 q 109 -222 78 -214 q 172 -230 140 -229 q 231 -225 203 -231 q 340 -180 290 -212 q 430 -106 389 -149 q 505 -13 471 -63 q 565 86 538 37 q 612 183 591 136 q 648 264 632 229 q 683 338 666 304 q 715 398 701 372 q 740 443 729 425 q 757 471 751 462 q 697 457 730 466 q 630 434 664 448 q 564 402 596 420 q 505 360 532 384 q 460 309 479 337 q 437 248 442 281 q 437 205 433 224 q 451 175 441 186 q 477 159 461 163 q 515 164 493 156 q 556 192 542 174 q 577 228 571 210 q 582 262 583 247 q 577 281 581 277 q 573 287 573 284 q 576 292 574 290 q 583 293 578 294 q 591 287 587 292 q 596 246 600 267 q 582 205 593 224 q 553 171 571 186 q 514 148 535 155 q 463 142 487 138 q 421 161 438 146 q 395 199 404 175 q 391 252 387 222 q 419 323 397 292 q 472 380 441 355 q 543 423 504 405 q 621 455 581 441 q 699 476 661 468 q 768 488 737 484 q 776 500 770 492 q 790 517 782 508 q 806 533 798 526 q 823 543 815 540 q 850 543 839 547 q 861 525 861 538 m 829 523 q 821 521 826 524 q 810 512 816 517 q 799 501 805 507 q 789 490 793 495 q 822 500 812 494 q 834 510 832 505 q 834 519 837 515 q 829 523 831 523 "},"Ĵ":{"ha":677,"x_min":-52,"x_max":861,"o":"m 861 525 q 856 507 861 515 q 843 494 851 500 q 826 485 836 489 q 806 479 817 481 q 791 476 800 479 q 777 473 782 473 q 722 356 744 417 q 676 231 699 295 q 625 98 654 166 q 551 -41 597 30 q 481 -123 522 -87 q 398 -185 441 -159 q 314 -227 355 -212 q 239 -247 272 -242 q 106 -245 166 -257 q 8 -204 46 -234 q -41 -126 -31 -174 q -25 -14 -52 -78 q -5 18 -18 2 q 22 45 7 33 q 50 64 36 57 q 71 72 63 72 q 79 69 82 73 q 71 62 76 65 q 50 50 62 59 q 25 26 37 40 q 2 -5 12 13 q -15 -44 -9 -23 q -19 -111 -26 -81 q 5 -162 -13 -140 q 51 -199 24 -184 q 109 -222 78 -214 q 172 -230 140 -229 q 231 -225 203 -231 q 340 -180 290 -212 q 430 -106 389 -149 q 505 -13 471 -63 q 565 86 538 37 q 612 183 591 136 q 648 264 632 229 q 683 338 666 304 q 715 398 701 372 q 740 443 729 425 q 757 471 751 462 q 697 457 730 466 q 630 434 664 448 q 564 402 596 420 q 505 360 532 384 q 460 309 479 337 q 437 248 442 281 q 437 205 433 224 q 451 175 441 186 q 477 159 461 163 q 515 164 493 156 q 556 192 542 174 q 577 228 571 210 q 582 262 583 247 q 577 281 581 277 q 573 287 573 284 q 576 292 574 290 q 583 293 578 294 q 591 287 587 292 q 596 246 600 267 q 582 205 593 224 q 553 171 571 186 q 514 148 535 155 q 463 142 487 138 q 421 161 438 146 q 395 199 404 175 q 391 252 387 222 q 419 323 397 292 q 472 380 441 355 q 543 423 504 405 q 621 455 581 441 q 699 476 661 468 q 768 488 737 484 q 776 500 770 492 q 790 517 782 508 q 806 533 798 526 q 823 543 815 540 q 850 543 839 547 q 861 525 861 538 m 829 523 q 821 521 826 524 q 810 512 816 517 q 799 501 805 507 q 789 490 793 495 q 822 500 812 494 q 834 510 832 505 q 834 519 837 515 q 829 523 831 523 m 859 587 q 854 583 861 582 q 845 587 847 583 l 814 635 q 772 612 791 623 q 742 596 757 604 q 724 587 728 588 q 718 584 722 585 q 711 583 714 583 q 707 584 708 583 q 707 587 705 585 l 808 659 q 821 660 816 659 q 830 660 826 661 q 834 659 833 660 l 859 587 "},"K":{"ha":776,"x_min":-8,"x_max":1104,"o":"m 1099 553 q 1036 465 1072 509 q 960 382 1000 421 q 877 308 920 342 q 792 247 833 274 q 713 201 751 220 q 647 176 676 183 q 645 162 644 177 q 651 123 646 147 q 666 69 656 99 q 688 10 675 39 q 739 -67 709 -39 q 809 -96 769 -96 q 850 -91 829 -96 q 890 -78 871 -87 q 924 -56 909 -70 q 949 -24 940 -43 q 955 -17 951 -20 q 960 -15 958 -14 q 962 -19 962 -16 q 958 -30 962 -23 q 932 -65 949 -48 q 895 -96 916 -83 q 850 -117 873 -109 q 806 -125 827 -125 q 753 -115 778 -125 q 707 -88 728 -105 q 670 -48 686 -71 q 641 2 653 -24 q 618 66 627 33 q 605 125 609 98 q 602 170 602 153 q 608 190 603 188 q 650 201 620 189 q 721 237 680 213 q 811 294 762 260 q 908 369 859 327 q 1002 459 956 411 q 1082 562 1047 508 q 1093 573 1088 571 q 1101 574 1098 576 q 1104 566 1104 572 q 1099 553 1103 560 m 752 543 q 782 539 771 548 q 791 518 793 531 q 770 491 789 505 q 711 473 751 477 q 665 369 685 427 q 622 250 644 311 q 573 129 600 189 q 507 19 546 68 q 413 -66 468 -31 q 282 -113 359 -101 q 205 -115 243 -118 q 132 -99 166 -111 q 68 -66 97 -86 q 21 -17 39 -45 q -2 47 3 12 q 3 125 -8 83 q 18 158 7 144 q 40 183 28 173 q 63 200 52 194 q 81 207 74 206 q 89 204 89 208 q 85 197 90 199 q 71 188 81 195 q 50 167 61 180 q 30 136 39 154 q 18 95 20 118 q 22 30 13 58 q 50 -19 31 1 q 94 -53 68 -40 q 148 -73 119 -66 q 204 -80 176 -80 q 256 -75 232 -81 q 382 -23 328 -59 q 475 59 435 14 q 541 154 514 104 q 587 248 568 204 q 598 271 591 255 q 614 309 605 288 q 635 353 624 330 q 656 400 646 377 q 675 441 667 422 q 690 472 684 460 q 643 467 668 469 q 593 463 618 465 q 543 456 568 460 q 494 445 517 452 q 411 405 444 431 q 362 348 379 378 q 343 286 345 317 q 352 234 341 256 q 384 202 362 212 q 437 203 406 192 q 467 224 454 210 q 486 257 479 239 q 495 295 493 275 q 494 330 496 314 q 497 334 492 336 q 506 326 503 333 q 511 287 513 308 q 499 247 509 267 q 475 213 490 228 q 442 191 460 198 q 373 188 404 177 q 324 224 342 199 q 303 284 306 249 q 317 354 300 319 q 376 419 335 389 q 486 465 416 450 q 542 475 513 471 q 598 481 570 479 q 652 485 626 483 q 700 488 677 486 q 707 499 702 491 q 720 516 712 507 q 735 532 727 525 q 752 543 744 540 m 753 498 q 768 510 764 504 q 770 521 772 517 q 763 525 769 525 q 749 519 758 526 q 735 505 743 513 q 723 490 728 496 q 753 498 743 493 "},"Ķ":{"ha":809,"x_min":-8,"x_max":1104,"o":"m 1099 553 q 1036 465 1072 509 q 960 382 1000 421 q 877 308 920 342 q 792 247 833 274 q 713 201 751 220 q 647 176 676 183 q 645 162 644 177 q 651 123 646 147 q 666 69 656 99 q 688 10 675 39 q 739 -67 709 -39 q 809 -96 769 -96 q 850 -91 829 -96 q 890 -78 871 -87 q 924 -56 909 -70 q 949 -24 940 -43 q 955 -17 951 -20 q 960 -15 958 -14 q 962 -19 962 -16 q 958 -30 962 -23 q 932 -65 949 -48 q 895 -96 916 -83 q 850 -117 873 -109 q 806 -125 827 -125 q 753 -115 778 -125 q 707 -88 728 -105 q 670 -48 686 -71 q 641 2 653 -24 q 618 66 627 33 q 605 125 609 98 q 602 170 602 153 q 608 190 603 188 q 650 201 620 189 q 721 237 680 213 q 811 294 762 260 q 908 369 859 327 q 1002 459 956 411 q 1082 562 1047 508 q 1093 573 1088 571 q 1101 574 1098 576 q 1104 566 1104 572 q 1099 553 1103 560 m 752 543 q 782 539 771 548 q 791 518 793 531 q 770 491 789 505 q 711 473 751 477 q 665 369 685 427 q 622 250 644 311 q 573 129 600 189 q 507 19 546 68 q 413 -66 468 -31 q 282 -113 359 -101 q 205 -115 243 -118 q 132 -99 166 -111 q 68 -66 97 -86 q 21 -17 39 -45 q -2 47 3 12 q 3 125 -8 83 q 18 158 7 144 q 40 183 28 173 q 63 200 52 194 q 81 207 74 206 q 89 204 89 208 q 85 197 90 199 q 71 188 81 195 q 50 167 61 180 q 30 136 39 154 q 18 95 20 118 q 22 30 13 58 q 50 -19 31 1 q 94 -53 68 -40 q 148 -73 119 -66 q 204 -80 176 -80 q 256 -75 232 -81 q 382 -23 328 -59 q 475 59 435 14 q 541 154 514 104 q 587 248 568 204 q 598 271 591 255 q 614 309 605 288 q 635 353 624 330 q 656 400 646 377 q 675 441 667 422 q 690 472 684 460 q 643 467 668 469 q 593 463 618 465 q 543 456 568 460 q 494 445 517 452 q 411 405 444 431 q 362 348 379 378 q 343 286 345 317 q 352 234 341 256 q 384 202 362 212 q 437 203 406 192 q 467 224 454 210 q 486 257 479 239 q 495 295 493 275 q 494 330 496 314 q 497 334 492 336 q 506 326 503 333 q 511 287 513 308 q 499 247 509 267 q 475 213 490 228 q 442 191 460 198 q 373 188 404 177 q 324 224 342 199 q 303 284 306 249 q 317 354 300 319 q 376 419 335 389 q 486 465 416 450 q 542 475 513 471 q 598 481 570 479 q 652 485 626 483 q 700 488 677 486 q 707 499 702 491 q 720 516 712 507 q 735 532 727 525 q 752 543 744 540 m 753 498 q 768 510 764 504 q 770 521 772 517 q 763 525 769 525 q 749 519 758 526 q 735 505 743 513 q 723 490 728 496 q 753 498 743 493 m 557 -144 q 551 -172 557 -159 q 535 -193 545 -184 q 514 -209 526 -203 q 494 -219 503 -216 q 488 -217 488 -221 q 493 -212 487 -214 q 524 -193 510 -207 q 539 -159 537 -180 q 531 -164 536 -162 q 522 -165 527 -165 q 506 -158 511 -165 q 501 -140 500 -151 q 511 -122 503 -130 q 530 -115 520 -115 q 551 -124 544 -115 q 557 -144 557 -133 "},"L":{"ha":483,"x_min":-7,"x_max":652,"o":"m 649 531 q 642 462 652 497 q 613 395 633 427 q 567 333 594 362 q 507 281 539 304 q 438 242 474 258 q 366 220 402 226 q 338 163 351 190 q 307 103 325 136 q 299 92 303 97 q 292 80 296 86 q 346 64 317 74 q 405 42 375 54 q 463 13 434 29 q 515 -21 491 -3 q 554 -63 539 -40 q 576 -109 569 -86 q 583 -150 583 -131 q 576 -180 583 -169 q 559 -198 569 -193 q 545 -203 549 -204 q 542 -198 542 -202 q 546 -188 543 -194 q 551 -178 549 -182 q 556 -153 555 -169 q 555 -118 558 -136 q 544 -80 553 -99 q 517 -45 534 -60 q 464 -8 493 -24 q 402 18 434 7 q 337 36 370 28 q 272 50 304 43 q 215 -17 245 12 q 152 -61 185 -45 q 86 -78 117 -78 q 34 -67 56 -79 q 3 -37 13 -56 q -2 3 -7 -18 q 27 44 4 24 q 96 79 51 65 q 136 87 115 84 q 181 91 158 90 q 226 91 203 92 q 267 86 248 90 q 303 148 286 117 q 338 217 319 179 q 252 230 289 216 q 193 269 215 245 q 165 324 171 294 q 173 383 159 354 q 221 437 186 412 q 313 475 255 461 q 330 476 324 477 q 336 473 336 475 q 331 468 336 471 q 315 463 326 465 q 254 439 280 459 q 213 391 227 418 q 197 333 198 363 q 211 278 196 302 q 260 241 227 254 q 347 234 293 227 q 360 264 351 241 q 379 313 369 288 q 405 379 391 343 q 459 487 431 446 q 514 551 488 529 q 565 578 541 573 q 607 578 589 584 q 636 560 625 573 q 649 531 648 547 m 621 516 q 607 539 621 533 q 567 530 592 545 q 509 474 543 515 q 435 356 475 433 q 416 319 426 338 q 396 281 407 302 q 376 238 386 260 q 466 275 421 248 q 545 340 510 302 q 600 424 579 378 q 621 516 621 469 m 245 54 q 175 60 212 61 q 104 51 138 60 q 42 25 64 41 q 14 -5 20 10 q 15 -34 7 -20 q 40 -54 22 -47 q 84 -59 58 -60 q 141 -42 110 -57 q 245 54 197 -15 "},"Ĺ":{"ha":506,"x_min":-7,"x_max":730,"o":"m 649 531 q 642 462 652 497 q 613 395 633 427 q 567 333 594 362 q 507 281 539 304 q 438 242 474 258 q 366 220 402 226 q 338 163 351 190 q 307 103 325 136 q 299 92 303 97 q 292 80 296 86 q 346 64 317 74 q 405 42 375 54 q 463 13 434 29 q 515 -21 491 -3 q 554 -63 539 -40 q 576 -109 569 -86 q 583 -150 583 -131 q 576 -180 583 -169 q 559 -198 569 -193 q 545 -203 549 -204 q 542 -198 542 -202 q 546 -188 543 -194 q 551 -178 549 -182 q 556 -153 555 -169 q 555 -118 558 -136 q 544 -80 553 -99 q 517 -45 534 -60 q 464 -8 493 -24 q 402 18 434 7 q 337 36 370 28 q 272 50 304 43 q 215 -17 245 12 q 152 -61 185 -45 q 86 -78 117 -78 q 34 -67 56 -79 q 3 -37 13 -56 q -2 3 -7 -18 q 27 44 4 24 q 96 79 51 65 q 136 87 115 84 q 181 91 158 90 q 226 91 203 92 q 267 86 248 90 q 303 148 286 117 q 338 217 319 179 q 252 230 289 216 q 193 269 215 245 q 165 324 171 294 q 173 383 159 354 q 221 437 186 412 q 313 475 255 461 q 330 476 324 477 q 336 473 336 475 q 331 468 336 471 q 315 463 326 465 q 254 439 280 459 q 213 391 227 418 q 197 333 198 363 q 211 278 196 302 q 260 241 227 254 q 347 234 293 227 q 360 264 351 241 q 379 313 369 288 q 405 379 391 343 q 459 487 431 446 q 514 551 488 529 q 565 578 541 573 q 607 578 589 584 q 636 560 625 573 q 649 531 648 547 m 621 516 q 607 539 621 533 q 567 530 592 545 q 509 474 543 515 q 435 356 475 433 q 416 319 426 338 q 396 281 407 302 q 376 238 386 260 q 466 275 421 248 q 545 340 510 302 q 600 424 579 378 q 621 516 621 469 m 245 54 q 175 60 212 61 q 104 51 138 60 q 42 25 64 41 q 14 -5 20 10 q 15 -34 7 -20 q 40 -54 22 -47 q 84 -59 58 -60 q 141 -42 110 -57 q 245 54 197 -15 m 728 670 q 717 662 726 667 q 693 649 707 656 q 664 635 680 642 q 635 622 648 627 q 612 612 621 616 q 601 610 602 609 q 599 618 595 613 q 611 629 600 621 q 637 648 623 638 q 665 668 652 659 q 682 680 678 677 q 701 690 690 686 q 722 688 711 694 q 729 681 727 686 q 728 670 730 675 "},"Ľ":{"ha":506,"x_min":-7,"x_max":696,"o":"m 649 531 q 642 462 652 497 q 613 395 633 427 q 567 333 594 362 q 507 281 539 304 q 438 242 474 258 q 366 220 402 226 q 338 163 351 190 q 307 103 325 136 q 299 92 303 97 q 292 80 296 86 q 346 64 317 74 q 405 42 375 54 q 463 13 434 29 q 515 -21 491 -3 q 554 -63 539 -40 q 576 -109 569 -86 q 583 -150 583 -131 q 576 -180 583 -169 q 559 -198 569 -193 q 545 -203 549 -204 q 542 -198 542 -202 q 546 -188 543 -194 q 551 -178 549 -182 q 556 -153 555 -169 q 555 -118 558 -136 q 544 -80 553 -99 q 517 -45 534 -60 q 464 -8 493 -24 q 402 18 434 7 q 337 36 370 28 q 272 50 304 43 q 215 -17 245 12 q 152 -61 185 -45 q 86 -78 117 -78 q 34 -67 56 -79 q 3 -37 13 -56 q -2 3 -7 -18 q 27 44 4 24 q 96 79 51 65 q 136 87 115 84 q 181 91 158 90 q 226 91 203 92 q 267 86 248 90 q 303 148 286 117 q 338 217 319 179 q 252 230 289 216 q 193 269 215 245 q 165 324 171 294 q 173 383 159 354 q 221 437 186 412 q 313 475 255 461 q 330 476 324 477 q 336 473 336 475 q 331 468 336 471 q 315 463 326 465 q 254 439 280 459 q 213 391 227 418 q 197 333 198 363 q 211 278 196 302 q 260 241 227 254 q 347 234 293 227 q 360 264 351 241 q 379 313 369 288 q 405 379 391 343 q 459 487 431 446 q 514 551 488 529 q 565 578 541 573 q 607 578 589 584 q 636 560 625 573 q 649 531 648 547 m 621 516 q 607 539 621 533 q 567 530 592 545 q 509 474 543 515 q 435 356 475 433 q 416 319 426 338 q 396 281 407 302 q 376 238 386 260 q 466 275 421 248 q 545 340 510 302 q 600 424 579 378 q 621 516 621 469 m 245 54 q 175 60 212 61 q 104 51 138 60 q 42 25 64 41 q 14 -5 20 10 q 15 -34 7 -20 q 40 -54 22 -47 q 84 -59 58 -60 q 141 -42 110 -57 q 245 54 197 -15 m 696 684 q 690 654 696 667 q 673 632 683 642 q 651 615 663 622 q 628 606 639 609 q 621 607 622 603 q 627 613 620 611 q 661 634 646 619 q 678 672 675 649 q 659 665 669 665 q 641 673 648 665 q 636 693 634 682 q 647 713 637 705 q 669 721 657 721 q 690 709 684 721 q 696 684 696 698 "},"Ļ":{"ha":506,"x_min":-7,"x_max":652,"o":"m 649 531 q 642 462 652 497 q 613 395 633 427 q 567 333 594 362 q 507 281 539 304 q 438 242 474 258 q 366 220 402 226 q 338 163 351 190 q 307 103 325 136 q 299 92 303 97 q 292 80 296 86 q 346 64 317 74 q 405 42 375 54 q 463 13 434 29 q 515 -21 491 -3 q 554 -63 539 -40 q 576 -109 569 -86 q 583 -150 583 -131 q 576 -180 583 -169 q 559 -198 569 -193 q 545 -203 549 -204 q 542 -198 542 -202 q 546 -188 543 -194 q 551 -178 549 -182 q 556 -153 555 -169 q 555 -118 558 -136 q 544 -80 553 -99 q 517 -45 534 -60 q 464 -8 493 -24 q 402 18 434 7 q 337 36 370 28 q 272 50 304 43 q 215 -17 245 12 q 152 -61 185 -45 q 86 -78 117 -78 q 34 -67 56 -79 q 3 -37 13 -56 q -2 3 -7 -18 q 27 44 4 24 q 96 79 51 65 q 136 87 115 84 q 181 91 158 90 q 226 91 203 92 q 267 86 248 90 q 303 148 286 117 q 338 217 319 179 q 252 230 289 216 q 193 269 215 245 q 165 324 171 294 q 173 383 159 354 q 221 437 186 412 q 313 475 255 461 q 330 476 324 477 q 336 473 336 475 q 331 468 336 471 q 315 463 326 465 q 254 439 280 459 q 213 391 227 418 q 197 333 198 363 q 211 278 196 302 q 260 241 227 254 q 347 234 293 227 q 360 264 351 241 q 379 313 369 288 q 405 379 391 343 q 459 487 431 446 q 514 551 488 529 q 565 578 541 573 q 607 578 589 584 q 636 560 625 573 q 649 531 648 547 m 621 516 q 607 539 621 533 q 567 530 592 545 q 509 474 543 515 q 435 356 475 433 q 416 319 426 338 q 396 281 407 302 q 376 238 386 260 q 466 275 421 248 q 545 340 510 302 q 600 424 579 378 q 621 516 621 469 m 245 54 q 175 60 212 61 q 104 51 138 60 q 42 25 64 41 q 14 -5 20 10 q 15 -34 7 -20 q 40 -54 22 -47 q 84 -59 58 -60 q 141 -42 110 -57 q 245 54 197 -15 m 276 -94 q 270 -121 276 -109 q 254 -143 263 -134 q 233 -159 244 -153 q 212 -169 222 -165 q 206 -167 207 -171 q 212 -162 205 -163 q 242 -143 229 -157 q 258 -109 256 -130 q 250 -114 254 -112 q 241 -115 245 -115 q 224 -108 230 -115 q 220 -90 218 -100 q 230 -72 221 -79 q 249 -65 239 -65 q 269 -74 262 -65 q 276 -94 276 -83 "},"Ł":{"ha":506,"x_min":-7,"x_max":652,"o":"m 649 531 q 642 462 652 497 q 613 395 633 427 q 567 333 594 362 q 507 281 539 304 q 438 242 474 258 q 366 220 402 226 q 338 163 351 190 q 307 103 325 136 q 299 92 303 97 q 292 80 296 86 q 346 64 317 74 q 405 42 375 54 q 463 13 434 29 q 515 -21 491 -3 q 554 -63 539 -40 q 576 -109 569 -86 q 583 -150 583 -131 q 576 -180 583 -169 q 559 -198 569 -193 q 545 -203 549 -204 q 542 -198 542 -202 q 546 -188 543 -194 q 551 -178 549 -182 q 556 -153 555 -169 q 555 -118 558 -136 q 544 -80 553 -99 q 517 -45 534 -60 q 464 -8 493 -24 q 402 18 434 7 q 337 36 370 28 q 272 50 304 43 q 215 -17 245 12 q 152 -61 185 -45 q 86 -78 117 -78 q 34 -67 56 -79 q 3 -37 13 -56 q -2 3 -7 -18 q 27 44 4 24 q 96 79 51 65 q 136 87 115 84 q 181 91 158 90 q 226 91 203 92 q 267 86 248 90 q 303 148 286 117 q 338 217 319 179 q 252 230 289 216 q 193 269 215 245 q 165 324 171 294 q 173 383 159 354 q 221 437 186 412 q 313 475 255 461 q 330 476 324 477 q 336 473 336 475 q 331 468 336 471 q 315 463 326 465 q 254 439 280 459 q 213 391 227 418 q 197 333 198 363 q 211 278 196 302 q 260 241 227 254 q 347 234 293 227 q 360 264 351 241 q 379 313 369 288 q 405 379 391 343 q 459 487 431 446 q 514 551 488 529 q 565 578 541 573 q 607 578 589 584 q 636 560 625 573 q 649 531 648 547 m 621 516 q 607 539 621 533 q 567 530 592 545 q 509 474 543 515 q 435 356 475 433 q 416 319 426 338 q 396 281 407 302 q 376 238 386 260 q 466 275 421 248 q 545 340 510 302 q 600 424 579 378 q 621 516 621 469 m 245 54 q 175 60 212 61 q 104 51 138 60 q 42 25 64 41 q 14 -5 20 10 q 15 -34 7 -20 q 40 -54 22 -47 q 84 -59 58 -60 q 141 -42 110 -57 q 245 54 197 -15 m 442 149 q 385 148 418 149 q 316 145 351 147 q 251 142 281 144 q 206 138 221 140 q 199 142 203 137 q 195 153 196 147 q 196 165 194 159 q 206 170 199 170 q 244 170 217 170 q 304 170 271 170 q 374 169 338 170 q 439 168 410 168 q 449 164 446 168 q 454 158 453 161 q 452 152 454 155 q 442 149 449 149 "},"M":{"ha":901,"x_min":10,"x_max":989,"o":"m 932 -66 q 945 -68 941 -66 q 946 -72 948 -70 q 938 -77 944 -75 q 921 -77 931 -79 q 891 -72 911 -77 q 853 -55 871 -68 q 823 -16 835 -41 q 814 52 810 9 q 828 117 817 82 q 855 188 840 151 q 888 262 870 224 q 922 338 905 300 q 939 407 942 385 q 916 425 937 429 q 860 391 896 421 q 779 304 824 361 q 752 268 768 291 q 718 218 736 245 q 680 161 699 191 q 645 103 661 131 q 615 52 628 75 q 596 14 602 28 q 574 -17 587 -9 q 551 -23 561 -24 q 535 -15 541 -22 q 534 0 530 -7 q 556 39 538 8 q 596 121 574 71 q 638 241 618 172 q 669 394 659 310 q 666 443 673 427 q 643 460 658 459 q 609 448 629 461 q 569 410 589 435 q 516 341 539 374 q 474 278 493 309 q 437 215 454 247 q 402 148 420 184 q 366 69 385 111 q 324 -24 347 27 q 310 -39 320 -34 q 290 -44 300 -43 q 273 -41 279 -45 q 269 -28 266 -37 q 300 27 283 -6 q 334 98 317 60 q 367 179 351 137 q 397 261 383 221 q 420 338 410 302 q 434 402 430 374 q 432 483 441 453 q 402 526 422 513 q 352 536 381 538 q 289 521 322 534 q 221 484 256 507 q 157 431 187 460 q 103 369 127 402 q 66 302 79 336 q 49 199 45 243 q 74 130 54 156 q 126 97 95 104 q 192 102 158 90 q 233 128 214 110 q 266 168 252 146 q 287 213 279 190 q 291 254 294 236 q 276 282 289 272 q 235 289 262 292 q 226 290 231 288 q 220 294 222 292 q 223 299 219 296 q 239 303 227 302 q 285 297 267 307 q 309 268 302 287 q 312 225 316 250 q 294 175 309 200 q 254 127 279 150 q 191 89 228 104 q 140 80 166 79 q 90 92 113 81 q 48 123 66 102 q 20 171 29 143 q 12 233 10 199 q 31 309 14 268 q 79 389 49 351 q 144 457 109 427 q 220 509 180 488 q 298 542 260 531 q 370 550 336 552 q 429 532 404 549 q 466 484 453 516 q 473 401 478 452 q 460 334 470 368 q 438 266 451 300 q 435 244 431 246 q 447 258 438 242 q 474 306 462 285 q 499 346 486 327 q 525 382 511 364 q 557 422 539 401 q 605 461 577 446 q 658 477 633 477 q 699 459 683 477 q 711 397 715 441 q 685 270 705 332 q 644 144 665 208 q 669 181 654 160 q 701 226 684 202 q 738 276 718 250 q 779 328 758 302 q 852 407 818 377 q 912 449 886 437 q 957 458 939 461 q 982 438 975 455 q 984 392 989 421 q 959 324 979 363 q 925 254 944 295 q 890 169 907 213 q 864 82 874 125 q 856 6 854 39 q 875 -48 857 -28 q 932 -66 892 -68 "},"N":{"ha":705,"x_min":-3,"x_max":806,"o":"m 806 453 q 790 386 805 422 q 753 306 776 349 q 703 213 730 262 q 651 109 676 164 q 620 19 628 58 q 618 -46 612 -21 q 643 -79 624 -71 q 690 -73 661 -87 q 715 -68 708 -65 q 719 -79 722 -72 q 705 -93 716 -86 q 675 -99 694 -100 q 585 -51 606 -96 q 593 77 565 -6 q 612 124 599 94 q 642 188 625 153 q 677 261 659 223 q 711 335 696 300 q 738 399 727 370 q 752 446 749 428 q 749 473 755 463 q 731 485 743 482 q 703 483 720 487 q 669 471 687 479 q 593 422 631 453 q 519 347 555 391 q 452 253 483 304 q 395 153 421 203 q 347 56 368 102 q 309 -24 326 10 q 295 -39 305 -34 q 275 -44 285 -43 q 258 -40 264 -44 q 253 -28 251 -37 q 275 8 261 -16 q 305 66 289 33 q 339 138 321 99 q 373 218 357 177 q 403 299 389 258 q 425 376 416 340 q 431 450 435 420 q 413 495 427 479 q 376 516 399 511 q 327 516 354 521 q 271 499 300 511 q 212 468 241 486 q 126 397 161 437 q 70 316 91 357 q 42 235 49 275 q 41 164 35 195 q 68 115 48 134 q 123 96 89 96 q 188 111 158 96 q 240 149 218 126 q 275 198 262 172 q 287 246 287 224 q 273 280 287 267 q 229 289 259 293 q 222 290 224 288 q 221 293 220 291 q 223 297 221 295 q 228 300 225 299 q 288 297 268 309 q 312 261 309 285 q 302 206 315 237 q 264 148 290 175 q 202 101 239 120 q 121 83 165 83 q 60 98 88 83 q 16 143 33 114 q -2 214 -1 173 q 18 308 -3 256 q 50 364 31 337 q 94 416 70 391 q 147 460 119 440 q 204 497 175 481 q 264 523 232 513 q 327 536 296 533 q 386 535 358 540 q 434 514 414 530 q 464 471 454 498 q 469 401 473 443 q 447 322 464 362 q 412 243 430 282 q 396 207 399 215 q 396 203 393 199 q 405 218 399 208 q 416 236 411 229 q 457 296 434 264 q 505 358 479 328 q 545 403 524 381 q 585 443 565 425 q 626 476 606 461 q 666 499 646 490 q 715 515 690 510 q 760 515 740 519 q 793 496 781 511 q 806 453 806 481 "},"Ń":{"ha":705,"x_min":-3,"x_max":806,"o":"m 806 453 q 790 386 805 422 q 753 306 776 349 q 703 213 730 262 q 651 109 676 164 q 620 19 628 58 q 618 -46 612 -21 q 643 -79 624 -71 q 690 -73 661 -87 q 715 -68 708 -65 q 719 -79 722 -72 q 705 -93 716 -86 q 675 -99 694 -100 q 585 -51 606 -96 q 593 77 565 -6 q 612 124 599 94 q 642 188 625 153 q 677 261 659 223 q 711 335 696 300 q 738 399 727 370 q 752 446 749 428 q 749 473 755 463 q 731 485 743 482 q 703 483 720 487 q 669 471 687 479 q 593 422 631 453 q 519 347 555 391 q 452 253 483 304 q 395 153 421 203 q 347 56 368 102 q 309 -24 326 10 q 295 -39 305 -34 q 275 -44 285 -43 q 258 -40 264 -44 q 253 -28 251 -37 q 275 8 261 -16 q 305 66 289 33 q 339 138 321 99 q 373 218 357 177 q 403 299 389 258 q 425 376 416 340 q 431 450 435 420 q 413 495 427 479 q 376 516 399 511 q 327 516 354 521 q 271 499 300 511 q 212 468 241 486 q 126 397 161 437 q 70 316 91 357 q 42 235 49 275 q 41 164 35 195 q 68 115 48 134 q 123 96 89 96 q 188 111 158 96 q 240 149 218 126 q 275 198 262 172 q 287 246 287 224 q 273 280 287 267 q 229 289 259 293 q 222 290 224 288 q 221 293 220 291 q 223 297 221 295 q 228 300 225 299 q 288 297 268 309 q 312 261 309 285 q 302 206 315 237 q 264 148 290 175 q 202 101 239 120 q 121 83 165 83 q 60 98 88 83 q 16 143 33 114 q -2 214 -1 173 q 18 308 -3 256 q 50 364 31 337 q 94 416 70 391 q 147 460 119 440 q 204 497 175 481 q 264 523 232 513 q 327 536 296 533 q 386 535 358 540 q 434 514 414 530 q 464 471 454 498 q 469 401 473 443 q 447 322 464 362 q 412 243 430 282 q 396 207 399 215 q 396 203 393 199 q 405 218 399 208 q 416 236 411 229 q 457 296 434 264 q 505 358 479 328 q 545 403 524 381 q 585 443 565 425 q 626 476 606 461 q 666 499 646 490 q 715 515 690 510 q 760 515 740 519 q 793 496 781 511 q 806 453 806 481 m 799 626 q 788 617 798 623 q 765 605 779 612 q 735 591 751 598 q 706 577 720 583 q 683 568 692 572 q 672 566 673 565 q 670 574 666 569 q 683 585 671 576 q 709 604 694 594 q 736 624 723 614 q 753 636 749 633 q 772 646 762 642 q 793 644 783 650 q 800 636 798 642 q 799 626 802 631 "},"Ň":{"ha":705,"x_min":-3,"x_max":821,"o":"m 806 453 q 790 386 805 422 q 753 306 776 349 q 703 213 730 262 q 651 109 676 164 q 620 19 628 58 q 618 -46 612 -21 q 643 -79 624 -71 q 690 -73 661 -87 q 715 -68 708 -65 q 719 -79 722 -72 q 705 -93 716 -86 q 675 -99 694 -100 q 585 -51 606 -96 q 593 77 565 -6 q 612 124 599 94 q 642 188 625 153 q 677 261 659 223 q 711 335 696 300 q 738 399 727 370 q 752 446 749 428 q 749 473 755 463 q 731 485 743 482 q 703 483 720 487 q 669 471 687 479 q 593 422 631 453 q 519 347 555 391 q 452 253 483 304 q 395 153 421 203 q 347 56 368 102 q 309 -24 326 10 q 295 -39 305 -34 q 275 -44 285 -43 q 258 -40 264 -44 q 253 -28 251 -37 q 275 8 261 -16 q 305 66 289 33 q 339 138 321 99 q 373 218 357 177 q 403 299 389 258 q 425 376 416 340 q 431 450 435 420 q 413 495 427 479 q 376 516 399 511 q 327 516 354 521 q 271 499 300 511 q 212 468 241 486 q 126 397 161 437 q 70 316 91 357 q 42 235 49 275 q 41 164 35 195 q 68 115 48 134 q 123 96 89 96 q 188 111 158 96 q 240 149 218 126 q 275 198 262 172 q 287 246 287 224 q 273 280 287 267 q 229 289 259 293 q 222 290 224 288 q 221 293 220 291 q 223 297 221 295 q 228 300 225 299 q 288 297 268 309 q 312 261 309 285 q 302 206 315 237 q 264 148 290 175 q 202 101 239 120 q 121 83 165 83 q 60 98 88 83 q 16 143 33 114 q -2 214 -1 173 q 18 308 -3 256 q 50 364 31 337 q 94 416 70 391 q 147 460 119 440 q 204 497 175 481 q 264 523 232 513 q 327 536 296 533 q 386 535 358 540 q 434 514 414 530 q 464 471 454 498 q 469 401 473 443 q 447 322 464 362 q 412 243 430 282 q 396 207 399 215 q 396 203 393 199 q 405 218 399 208 q 416 236 411 229 q 457 296 434 264 q 505 358 479 328 q 545 403 524 381 q 585 443 565 425 q 626 476 606 461 q 666 499 646 490 q 715 515 690 510 q 760 515 740 519 q 793 496 781 511 q 806 453 806 481 m 667 643 q 672 647 665 648 q 681 643 679 646 l 712 595 q 753 617 735 607 q 784 633 769 626 q 802 643 798 641 q 808 646 804 645 q 815 647 812 647 q 819 645 818 646 q 819 643 821 644 l 718 571 q 705 570 710 570 q 696 569 700 569 q 692 571 692 570 l 667 643 "},"Ņ":{"ha":705,"x_min":-3,"x_max":806,"o":"m 806 453 q 790 386 805 422 q 753 306 776 349 q 703 213 730 262 q 651 109 676 164 q 620 19 628 58 q 618 -46 612 -21 q 643 -79 624 -71 q 690 -73 661 -87 q 715 -68 708 -65 q 719 -79 722 -72 q 705 -93 716 -86 q 675 -99 694 -100 q 585 -51 606 -96 q 593 77 565 -6 q 612 124 599 94 q 642 188 625 153 q 677 261 659 223 q 711 335 696 300 q 738 399 727 370 q 752 446 749 428 q 749 473 755 463 q 731 485 743 482 q 703 483 720 487 q 669 471 687 479 q 593 422 631 453 q 519 347 555 391 q 452 253 483 304 q 395 153 421 203 q 347 56 368 102 q 309 -24 326 10 q 295 -39 305 -34 q 275 -44 285 -43 q 258 -40 264 -44 q 253 -28 251 -37 q 275 8 261 -16 q 305 66 289 33 q 339 138 321 99 q 373 218 357 177 q 403 299 389 258 q 425 376 416 340 q 431 450 435 420 q 413 495 427 479 q 376 516 399 511 q 327 516 354 521 q 271 499 300 511 q 212 468 241 486 q 126 397 161 437 q 70 316 91 357 q 42 235 49 275 q 41 164 35 195 q 68 115 48 134 q 123 96 89 96 q 188 111 158 96 q 240 149 218 126 q 275 198 262 172 q 287 246 287 224 q 273 280 287 267 q 229 289 259 293 q 222 290 224 288 q 221 293 220 291 q 223 297 221 295 q 228 300 225 299 q 288 297 268 309 q 312 261 309 285 q 302 206 315 237 q 264 148 290 175 q 202 101 239 120 q 121 83 165 83 q 60 98 88 83 q 16 143 33 114 q -2 214 -1 173 q 18 308 -3 256 q 50 364 31 337 q 94 416 70 391 q 147 460 119 440 q 204 497 175 481 q 264 523 232 513 q 327 536 296 533 q 386 535 358 540 q 434 514 414 530 q 464 471 454 498 q 469 401 473 443 q 447 322 464 362 q 412 243 430 282 q 396 207 399 215 q 396 203 393 199 q 405 218 399 208 q 416 236 411 229 q 457 296 434 264 q 505 358 479 328 q 545 403 524 381 q 585 443 565 425 q 626 476 606 461 q 666 499 646 490 q 715 515 690 510 q 760 515 740 519 q 793 496 781 511 q 806 453 806 481 m 518 -94 q 512 -121 518 -109 q 496 -143 505 -134 q 475 -159 486 -153 q 454 -169 464 -165 q 448 -167 449 -171 q 454 -162 448 -163 q 484 -143 471 -157 q 500 -109 498 -130 q 492 -114 496 -112 q 483 -115 488 -115 q 466 -108 472 -115 q 462 -90 460 -100 q 472 -72 463 -79 q 491 -65 481 -65 q 511 -74 505 -65 q 518 -94 518 -83 "},"Ñ":{"ha":705,"x_min":-3,"x_max":806,"o":"m 806 453 q 790 386 805 422 q 753 306 776 349 q 703 213 730 262 q 651 109 676 164 q 620 19 628 58 q 618 -46 612 -21 q 643 -79 624 -71 q 690 -73 661 -87 q 715 -68 708 -65 q 719 -79 722 -72 q 705 -93 716 -86 q 675 -99 694 -100 q 585 -51 606 -96 q 593 77 565 -6 q 612 124 599 94 q 642 188 625 153 q 677 261 659 223 q 711 335 696 300 q 738 399 727 370 q 752 446 749 428 q 749 473 755 463 q 731 485 743 482 q 703 483 720 487 q 669 471 687 479 q 593 422 631 453 q 519 347 555 391 q 452 253 483 304 q 395 153 421 203 q 347 56 368 102 q 309 -24 326 10 q 295 -39 305 -34 q 275 -44 285 -43 q 258 -40 264 -44 q 253 -28 251 -37 q 275 8 261 -16 q 305 66 289 33 q 339 138 321 99 q 373 218 357 177 q 403 299 389 258 q 425 376 416 340 q 431 450 435 420 q 413 495 427 479 q 376 516 399 511 q 327 516 354 521 q 271 499 300 511 q 212 468 241 486 q 126 397 161 437 q 70 316 91 357 q 42 235 49 275 q 41 164 35 195 q 68 115 48 134 q 123 96 89 96 q 188 111 158 96 q 240 149 218 126 q 275 198 262 172 q 287 246 287 224 q 273 280 287 267 q 229 289 259 293 q 222 290 224 288 q 221 293 220 291 q 223 297 221 295 q 228 300 225 299 q 288 297 268 309 q 312 261 309 285 q 302 206 315 237 q 264 148 290 175 q 202 101 239 120 q 121 83 165 83 q 60 98 88 83 q 16 143 33 114 q -2 214 -1 173 q 18 308 -3 256 q 50 364 31 337 q 94 416 70 391 q 147 460 119 440 q 204 497 175 481 q 264 523 232 513 q 327 536 296 533 q 386 535 358 540 q 434 514 414 530 q 464 471 454 498 q 469 401 473 443 q 447 322 464 362 q 412 243 430 282 q 396 207 399 215 q 396 203 393 199 q 405 218 399 208 q 416 236 411 229 q 457 296 434 264 q 505 358 479 328 q 545 403 524 381 q 585 443 565 425 q 626 476 606 461 q 666 499 646 490 q 715 515 690 510 q 760 515 740 519 q 793 496 781 511 q 806 453 806 481 m 786 619 q 775 600 781 610 q 760 582 768 590 q 741 569 751 574 q 719 565 731 564 q 698 570 708 566 q 677 578 688 574 q 657 587 667 583 q 637 591 647 591 q 616 586 625 593 q 602 569 607 578 q 598 567 601 568 q 593 567 595 566 q 588 568 590 567 q 586 570 585 569 q 597 588 591 579 q 612 605 604 597 q 631 617 621 613 q 652 621 641 622 q 674 617 663 621 q 694 609 684 613 q 714 601 705 605 q 734 597 724 597 q 757 602 748 595 q 772 621 766 609 q 775 622 772 622 q 780 622 777 623 q 785 621 783 622 q 786 619 787 620 "},"O":{"ha":492,"x_min":30,"x_max":617,"o":"m 613 371 q 569 315 594 341 q 512 269 545 290 q 507 234 511 252 q 496 197 503 216 q 467 132 486 165 q 422 70 448 99 q 365 17 396 41 q 299 -22 334 -7 q 229 -41 265 -37 q 157 -33 193 -44 q 106 2 127 -23 q 75 61 85 26 q 67 138 65 96 q 87 224 69 180 q 51 260 65 239 q 35 310 37 281 q 48 398 30 359 q 100 464 66 437 q 179 507 134 492 q 270 525 223 523 q 362 514 317 527 q 442 474 407 502 q 497 401 477 446 q 515 293 517 356 q 566 332 543 311 q 603 378 590 353 q 608 384 605 382 q 613 385 611 385 q 616 380 616 384 q 613 371 617 377 m 473 271 q 464 386 479 338 q 419 461 448 433 q 351 503 390 490 q 271 512 312 515 q 192 494 231 510 q 124 451 153 478 q 80 387 95 424 q 72 304 65 349 q 99 252 76 272 q 124 297 109 272 q 160 347 140 322 q 204 394 180 372 q 254 429 229 416 q 307 445 280 442 q 359 433 333 447 q 363 425 366 429 q 353 423 360 421 q 310 422 332 430 q 265 399 287 415 q 222 360 243 382 q 184 314 201 338 q 154 268 167 290 q 134 229 140 245 q 205 211 163 214 q 292 213 246 207 q 385 234 338 219 q 473 271 432 249 m 469 248 q 380 211 427 225 q 288 191 334 196 q 199 189 242 185 q 123 205 157 192 q 106 140 111 174 q 104 78 100 107 q 121 25 108 48 q 159 -11 134 1 q 219 -25 189 -26 q 278 -12 249 -24 q 335 23 308 1 q 385 73 362 45 q 427 134 408 101 q 457 199 446 166 q 465 223 461 211 q 469 248 468 236 "},"Œ":{"ha":1013,"x_min":30,"x_max":1000,"o":"m 961 149 q 991 124 982 138 q 997 92 1000 109 q 982 56 995 75 q 947 18 969 37 q 887 -21 922 -3 q 813 -51 853 -39 q 729 -71 773 -64 q 640 -77 685 -77 q 546 -66 587 -77 q 476 -37 505 -56 q 431 6 448 -18 q 410 58 415 31 q 354 9 385 31 q 292 -26 324 -13 q 225 -41 259 -39 q 157 -33 191 -44 q 106 2 127 -23 q 75 61 85 26 q 67 138 65 96 q 87 224 69 180 q 51 260 65 239 q 35 310 37 281 q 48 398 30 359 q 100 464 66 437 q 179 507 134 492 q 270 525 223 523 q 362 514 317 527 q 442 474 407 502 q 497 401 477 446 q 515 293 517 356 q 537 309 526 300 q 559 326 548 317 q 549 358 549 340 q 565 416 549 389 q 607 465 581 443 q 667 503 633 486 q 736 529 701 519 q 807 544 772 540 q 871 544 842 547 q 940 526 913 539 q 979 496 966 513 q 989 459 991 479 q 973 420 987 439 q 933 387 959 402 q 871 363 907 372 q 849 361 856 360 q 842 365 842 362 q 849 372 842 368 q 868 376 856 375 q 900 389 884 378 q 927 415 916 400 q 944 449 939 431 q 943 483 949 467 q 920 511 938 499 q 869 526 903 523 q 781 520 827 530 q 697 490 736 511 q 632 441 659 470 q 602 378 606 412 l 603 378 q 608 384 605 382 q 613 385 611 385 q 616 380 616 384 q 613 371 617 377 q 602 355 609 364 q 619 320 605 333 q 651 298 633 307 q 691 286 670 290 q 728 277 711 281 q 756 266 745 272 q 766 247 767 259 q 746 235 763 236 q 702 235 728 234 q 643 235 675 235 q 576 224 610 234 q 512 189 539 214 q 472 132 486 163 q 460 66 459 100 q 481 4 462 32 q 540 -43 500 -24 q 642 -61 579 -61 q 725 -53 684 -61 q 802 -30 766 -44 q 870 1 839 -16 q 922 37 901 19 q 954 70 941 53 q 972 101 967 86 q 973 126 977 115 q 954 140 968 136 q 937 146 941 142 q 935 152 932 150 q 944 154 937 154 q 961 149 951 153 m 643 267 q 603 286 623 274 q 568 314 582 298 q 542 290 555 301 q 512 269 528 279 q 505 226 511 250 q 571 254 535 243 q 607 263 589 260 q 643 267 625 266 m 473 271 q 464 386 479 338 q 419 461 448 433 q 351 503 390 490 q 271 512 312 515 q 192 494 231 510 q 124 451 153 478 q 80 387 95 424 q 72 304 65 349 q 99 252 76 272 q 124 297 109 272 q 160 347 140 322 q 204 394 180 372 q 254 429 229 416 q 307 445 280 442 q 359 433 333 447 q 363 425 366 429 q 353 423 360 421 q 310 422 332 430 q 265 399 287 415 q 222 360 243 382 q 184 314 201 338 q 154 268 167 290 q 134 229 140 245 q 205 211 163 214 q 292 213 246 207 q 385 234 338 219 q 473 271 432 249 m 469 248 q 380 211 427 225 q 288 191 334 196 q 199 189 242 185 q 123 205 157 192 q 106 140 111 174 q 104 78 100 107 q 121 25 108 48 q 159 -11 134 1 q 228 -24 193 -28 q 296 -3 263 -21 q 358 43 329 14 q 412 109 388 73 q 426 146 416 127 q 450 181 435 164 q 454 190 452 186 q 457 199 456 195 q 465 223 461 211 q 469 248 468 236 "},"Ó":{"ha":532,"x_min":30,"x_max":617,"o":"m 613 371 q 569 315 594 341 q 512 269 545 290 q 507 234 511 252 q 496 197 503 216 q 467 132 486 165 q 422 70 448 99 q 365 17 396 41 q 299 -22 334 -7 q 229 -41 265 -37 q 157 -33 193 -44 q 106 2 127 -23 q 75 61 85 26 q 67 138 65 96 q 87 224 69 180 q 51 260 65 239 q 35 310 37 281 q 48 398 30 359 q 100 464 66 437 q 179 507 134 492 q 270 525 223 523 q 362 514 317 527 q 442 474 407 502 q 497 401 477 446 q 515 293 517 356 q 566 332 543 311 q 603 378 590 353 q 608 384 605 382 q 613 385 611 385 q 616 380 616 384 q 613 371 617 377 m 473 271 q 464 386 479 338 q 419 461 448 433 q 351 503 390 490 q 271 512 312 515 q 192 494 231 510 q 124 451 153 478 q 80 387 95 424 q 72 304 65 349 q 99 252 76 272 q 124 297 109 272 q 160 347 140 322 q 204 394 180 372 q 254 429 229 416 q 307 445 280 442 q 359 433 333 447 q 363 425 366 429 q 353 423 360 421 q 310 422 332 430 q 265 399 287 415 q 222 360 243 382 q 184 314 201 338 q 154 268 167 290 q 134 229 140 245 q 205 211 163 214 q 292 213 246 207 q 385 234 338 219 q 473 271 432 249 m 469 248 q 380 211 427 225 q 288 191 334 196 q 199 189 242 185 q 123 205 157 192 q 106 140 111 174 q 104 78 100 107 q 121 25 108 48 q 159 -11 134 1 q 219 -25 189 -26 q 278 -12 249 -24 q 335 23 308 1 q 385 73 362 45 q 427 134 408 101 q 457 199 446 166 q 465 223 461 211 q 469 248 468 236 m 497 610 q 486 601 496 607 q 463 589 477 595 q 433 574 449 582 q 404 561 418 567 q 381 552 391 555 q 370 549 372 549 q 368 558 364 553 q 381 569 369 560 q 407 588 393 578 q 434 607 421 598 q 452 620 448 616 q 470 630 460 626 q 491 628 481 633 q 498 620 496 625 q 497 610 500 615 "},"Ô":{"ha":532,"x_min":30,"x_max":617,"o":"m 613 371 q 569 315 594 341 q 512 269 545 290 q 507 234 511 252 q 496 197 503 216 q 467 132 486 165 q 422 70 448 99 q 365 17 396 41 q 299 -22 334 -7 q 229 -41 265 -37 q 157 -33 193 -44 q 106 2 127 -23 q 75 61 85 26 q 67 138 65 96 q 87 224 69 180 q 51 260 65 239 q 35 310 37 281 q 48 398 30 359 q 100 464 66 437 q 179 507 134 492 q 270 525 223 523 q 362 514 317 527 q 442 474 407 502 q 497 401 477 446 q 515 293 517 356 q 566 332 543 311 q 603 378 590 353 q 608 384 605 382 q 613 385 611 385 q 616 380 616 384 q 613 371 617 377 m 473 271 q 464 386 479 338 q 419 461 448 433 q 351 503 390 490 q 271 512 312 515 q 192 494 231 510 q 124 451 153 478 q 80 387 95 424 q 72 304 65 349 q 99 252 76 272 q 124 297 109 272 q 160 347 140 322 q 204 394 180 372 q 254 429 229 416 q 307 445 280 442 q 359 433 333 447 q 363 425 366 429 q 353 423 360 421 q 310 422 332 430 q 265 399 287 415 q 222 360 243 382 q 184 314 201 338 q 154 268 167 290 q 134 229 140 245 q 205 211 163 214 q 292 213 246 207 q 385 234 338 219 q 473 271 432 249 m 469 248 q 380 211 427 225 q 288 191 334 196 q 199 189 242 185 q 123 205 157 192 q 106 140 111 174 q 104 78 100 107 q 121 25 108 48 q 159 -11 134 1 q 219 -25 189 -26 q 278 -12 249 -24 q 335 23 308 1 q 385 73 362 45 q 427 134 408 101 q 457 199 446 166 q 465 223 461 211 q 469 248 468 236 m 454 557 q 449 553 456 553 q 440 557 442 554 l 409 606 q 368 583 386 593 q 337 567 352 574 q 319 557 323 559 q 313 554 317 555 q 306 554 309 553 q 302 555 303 554 q 302 557 300 556 l 404 629 q 416 631 411 630 q 425 631 421 631 q 429 629 429 631 l 454 557 "},"Ö":{"ha":532,"x_min":30,"x_max":617,"o":"m 613 371 q 569 315 594 341 q 512 269 545 290 q 507 234 511 252 q 496 197 503 216 q 467 132 486 165 q 422 70 448 99 q 365 17 396 41 q 299 -22 334 -7 q 229 -41 265 -37 q 157 -33 193 -44 q 106 2 127 -23 q 75 61 85 26 q 67 138 65 96 q 87 224 69 180 q 51 260 65 239 q 35 310 37 281 q 48 398 30 359 q 100 464 66 437 q 179 507 134 492 q 270 525 223 523 q 362 514 317 527 q 442 474 407 502 q 497 401 477 446 q 515 293 517 356 q 566 332 543 311 q 603 378 590 353 q 608 384 605 382 q 613 385 611 385 q 616 380 616 384 q 613 371 617 377 m 473 271 q 464 386 479 338 q 419 461 448 433 q 351 503 390 490 q 271 512 312 515 q 192 494 231 510 q 124 451 153 478 q 80 387 95 424 q 72 304 65 349 q 99 252 76 272 q 124 297 109 272 q 160 347 140 322 q 204 394 180 372 q 254 429 229 416 q 307 445 280 442 q 359 433 333 447 q 363 425 366 429 q 353 423 360 421 q 310 422 332 430 q 265 399 287 415 q 222 360 243 382 q 184 314 201 338 q 154 268 167 290 q 134 229 140 245 q 205 211 163 214 q 292 213 246 207 q 385 234 338 219 q 473 271 432 249 m 469 248 q 380 211 427 225 q 288 191 334 196 q 199 189 242 185 q 123 205 157 192 q 106 140 111 174 q 104 78 100 107 q 121 25 108 48 q 159 -11 134 1 q 219 -25 189 -26 q 278 -12 249 -24 q 335 23 308 1 q 385 73 362 45 q 427 134 408 101 q 457 199 446 166 q 465 223 461 211 q 469 248 468 236 m 469 576 q 463 560 469 566 q 447 553 456 553 q 431 559 437 553 q 424 576 424 566 q 430 592 424 585 q 446 598 436 598 q 462 592 455 598 q 469 576 469 586 m 381 576 q 375 560 381 566 q 359 553 369 553 q 343 559 350 553 q 336 576 336 566 q 342 592 336 585 q 358 598 349 598 q 374 592 368 598 q 381 576 381 586 "},"Ò":{"ha":532,"x_min":30,"x_max":617,"o":"m 613 371 q 569 315 594 341 q 512 269 545 290 q 507 234 511 252 q 496 197 503 216 q 467 132 486 165 q 422 70 448 99 q 365 17 396 41 q 299 -22 334 -7 q 229 -41 265 -37 q 157 -33 193 -44 q 106 2 127 -23 q 75 61 85 26 q 67 138 65 96 q 87 224 69 180 q 51 260 65 239 q 35 310 37 281 q 48 398 30 359 q 100 464 66 437 q 179 507 134 492 q 270 525 223 523 q 362 514 317 527 q 442 474 407 502 q 497 401 477 446 q 515 293 517 356 q 566 332 543 311 q 603 378 590 353 q 608 384 605 382 q 613 385 611 385 q 616 380 616 384 q 613 371 617 377 m 473 271 q 464 386 479 338 q 419 461 448 433 q 351 503 390 490 q 271 512 312 515 q 192 494 231 510 q 124 451 153 478 q 80 387 95 424 q 72 304 65 349 q 99 252 76 272 q 124 297 109 272 q 160 347 140 322 q 204 394 180 372 q 254 429 229 416 q 307 445 280 442 q 359 433 333 447 q 363 425 366 429 q 353 423 360 421 q 310 422 332 430 q 265 399 287 415 q 222 360 243 382 q 184 314 201 338 q 154 268 167 290 q 134 229 140 245 q 205 211 163 214 q 292 213 246 207 q 385 234 338 219 q 473 271 432 249 m 469 248 q 380 211 427 225 q 288 191 334 196 q 199 189 242 185 q 123 205 157 192 q 106 140 111 174 q 104 78 100 107 q 121 25 108 48 q 159 -11 134 1 q 219 -25 189 -26 q 278 -12 249 -24 q 335 23 308 1 q 385 73 362 45 q 427 134 408 101 q 457 199 446 166 q 465 223 461 211 q 469 248 468 236 m 428 559 q 421 553 428 553 q 406 559 419 553 q 377 574 393 566 q 347 590 361 582 q 328 600 333 597 q 311 611 319 604 q 303 630 303 618 q 307 640 303 636 q 316 644 311 644 q 329 638 319 644 q 351 623 338 632 q 377 603 363 614 q 402 583 391 593 q 420 567 413 574 q 428 559 428 560 "},"Ő":{"ha":523,"x_min":30,"x_max":617,"o":"m 613 371 q 569 315 594 341 q 512 269 545 290 q 507 234 511 252 q 496 197 503 216 q 467 132 486 165 q 422 70 448 99 q 365 17 396 41 q 299 -22 334 -7 q 229 -41 265 -37 q 157 -33 193 -44 q 106 2 127 -23 q 75 61 85 26 q 67 138 65 96 q 87 224 69 180 q 51 260 65 239 q 35 310 37 281 q 48 398 30 359 q 100 464 66 437 q 179 507 134 492 q 270 525 223 523 q 362 514 317 527 q 442 474 407 502 q 497 401 477 446 q 515 293 517 356 q 566 332 543 311 q 603 378 590 353 q 608 384 605 382 q 613 385 611 385 q 616 380 616 384 q 613 371 617 377 m 473 271 q 464 386 479 338 q 419 461 448 433 q 351 503 390 490 q 271 512 312 515 q 192 494 231 510 q 124 451 153 478 q 80 387 95 424 q 72 304 65 349 q 99 252 76 272 q 124 297 109 272 q 160 347 140 322 q 204 394 180 372 q 254 429 229 416 q 307 445 280 442 q 359 433 333 447 q 363 425 366 429 q 353 423 360 421 q 310 422 332 430 q 265 399 287 415 q 222 360 243 382 q 184 314 201 338 q 154 268 167 290 q 134 229 140 245 q 205 211 163 214 q 292 213 246 207 q 385 234 338 219 q 473 271 432 249 m 469 248 q 380 211 427 225 q 288 191 334 196 q 199 189 242 185 q 123 205 157 192 q 106 140 111 174 q 104 78 100 107 q 121 25 108 48 q 159 -11 134 1 q 219 -25 189 -26 q 278 -12 249 -24 q 335 23 308 1 q 385 73 362 45 q 427 134 408 101 q 457 199 446 166 q 465 223 461 211 q 469 248 468 236 m 332 654 q 327 635 333 650 q 314 602 321 619 q 298 570 306 584 q 290 555 291 555 q 283 559 284 553 q 284 571 282 560 q 289 595 286 582 q 294 620 291 608 q 296 635 296 631 q 302 650 298 643 q 316 661 307 658 q 332 654 327 663 m 411 654 q 407 635 412 650 q 393 602 401 619 q 378 570 385 584 q 369 555 370 555 q 362 559 363 553 q 363 571 361 560 q 368 595 366 582 q 373 620 371 608 q 376 635 376 631 q 382 650 378 643 q 395 661 386 658 q 411 654 406 663 "},"Ō":{"ha":523,"x_min":30,"x_max":617,"o":"m 613 371 q 569 315 594 341 q 512 269 545 290 q 507 234 511 252 q 496 197 503 216 q 467 132 486 165 q 422 70 448 99 q 365 17 396 41 q 299 -22 334 -7 q 229 -41 265 -37 q 157 -33 193 -44 q 106 2 127 -23 q 75 61 85 26 q 67 138 65 96 q 87 224 69 180 q 51 260 65 239 q 35 310 37 281 q 48 398 30 359 q 100 464 66 437 q 179 507 134 492 q 270 525 223 523 q 362 514 317 527 q 442 474 407 502 q 497 401 477 446 q 515 293 517 356 q 566 332 543 311 q 603 378 590 353 q 608 384 605 382 q 613 385 611 385 q 616 380 616 384 q 613 371 617 377 m 473 271 q 464 386 479 338 q 419 461 448 433 q 351 503 390 490 q 271 512 312 515 q 192 494 231 510 q 124 451 153 478 q 80 387 95 424 q 72 304 65 349 q 99 252 76 272 q 124 297 109 272 q 160 347 140 322 q 204 394 180 372 q 254 429 229 416 q 307 445 280 442 q 359 433 333 447 q 363 425 366 429 q 353 423 360 421 q 310 422 332 430 q 265 399 287 415 q 222 360 243 382 q 184 314 201 338 q 154 268 167 290 q 134 229 140 245 q 205 211 163 214 q 292 213 246 207 q 385 234 338 219 q 473 271 432 249 m 469 248 q 380 211 427 225 q 288 191 334 196 q 199 189 242 185 q 123 205 157 192 q 106 140 111 174 q 104 78 100 107 q 121 25 108 48 q 159 -11 134 1 q 219 -25 189 -26 q 278 -12 249 -24 q 335 23 308 1 q 385 73 362 45 q 427 134 408 101 q 457 199 446 166 q 465 223 461 211 q 469 248 468 236 m 442 554 l 297 554 l 309 580 l 454 580 l 442 554 "},"Ω":{"ha":302,"x_min":-7,"x_max":287,"o":"m 240 -9 q 221 -7 231 -9 q 201 -5 211 -5 q 191 -7 195 -5 q 182 -9 186 -9 q 175 -7 178 -9 q 172 1 172 -4 q 173 5 172 3 q 174 8 174 7 q 203 31 189 16 q 227 64 216 46 q 245 102 238 82 q 252 140 252 121 q 246 172 253 159 q 228 193 239 185 q 203 205 217 201 q 174 208 189 208 q 138 203 155 208 q 106 188 121 198 q 83 160 92 177 q 74 121 75 144 q 79 78 73 98 q 93 43 85 58 q 107 19 100 28 q 113 8 113 9 q 110 1 113 3 q 102 -2 106 -1 q 94 -4 98 -3 q 87 -4 90 -4 q 55 0 71 -4 q 24 3 40 3 q 14 3 17 3 l 12 0 q 7 -7 10 -5 q 1 -8 4 -9 q -5 -5 -3 -7 q -7 3 -7 -2 q -3 13 -7 9 q 6 19 1 17 q 16 22 11 21 q 26 22 22 22 q 60 17 41 22 q 95 8 79 12 q 76 33 85 19 q 60 63 67 47 q 48 95 52 79 q 44 127 43 112 q 58 178 45 157 q 92 212 72 199 q 136 232 112 226 q 183 239 161 239 q 220 234 202 239 q 253 218 239 229 q 276 190 267 207 q 283 149 284 172 q 276 108 283 127 q 259 73 269 90 q 235 42 248 57 q 210 13 222 27 q 228 10 218 12 q 252 8 237 8 q 263 11 259 8 q 271 17 268 14 q 276 25 274 21 q 281 31 279 29 q 284 31 283 33 q 287 25 286 28 q 269 0 284 9 q 240 -9 254 -9 "},"Ø":{"ha":523,"x_min":30,"x_max":617,"o":"m 98 -71 l 127 -18 q 91 23 106 -3 q 71 80 77 48 q 68 149 64 113 q 87 224 72 186 q 51 260 65 239 q 35 310 37 281 q 46 393 30 355 q 92 457 62 430 q 162 501 122 484 q 247 523 203 518 q 334 520 290 528 q 414 492 378 513 l 447 550 l 470 539 l 435 478 q 495 404 473 450 q 515 293 517 359 q 566 332 543 311 q 603 378 590 353 q 608 384 605 382 q 613 385 611 385 q 616 380 616 384 q 613 371 617 377 q 569 315 594 341 q 512 269 545 290 q 507 234 511 252 q 496 197 503 216 q 467 132 486 165 q 422 70 448 99 q 365 17 396 41 q 299 -22 334 -7 q 229 -41 265 -37 q 157 -33 193 -44 l 149 -29 l 120 -80 l 98 -71 m 134 229 q 189 213 157 218 q 256 210 220 208 l 404 474 q 335 507 374 498 q 258 511 297 515 q 182 490 218 507 q 119 447 146 473 q 79 384 93 420 q 72 304 65 347 q 99 252 76 272 q 124 297 109 272 q 160 347 140 322 q 204 394 180 372 q 254 429 229 416 q 307 445 280 442 q 359 433 333 447 q 363 425 366 429 q 353 423 360 421 q 310 422 332 430 q 265 399 287 415 q 222 360 243 382 q 184 314 201 338 q 154 268 167 290 q 134 229 140 245 m 469 248 q 372 208 423 223 q 272 189 321 193 l 159 -11 q 219 -24 189 -25 q 278 -12 249 -24 q 335 23 308 1 q 385 73 362 45 q 427 134 408 101 q 457 199 446 166 q 465 223 461 211 q 469 248 468 236 m 473 271 q 465 382 479 336 q 423 456 451 427 l 285 212 q 381 233 332 218 q 473 271 430 248 m 123 205 q 107 148 113 177 q 103 91 102 118 q 113 41 104 64 q 139 2 121 18 l 243 187 q 179 191 209 186 q 123 205 149 195 "},"Õ":{"ha":532,"x_min":30,"x_max":617,"o":"m 613 371 q 569 315 594 341 q 512 269 545 290 q 507 234 511 252 q 496 197 503 216 q 467 132 486 165 q 422 70 448 99 q 365 17 396 41 q 299 -22 334 -7 q 229 -41 265 -37 q 157 -33 193 -44 q 106 2 127 -23 q 75 61 85 26 q 67 138 65 96 q 87 224 69 180 q 51 260 65 239 q 35 310 37 281 q 48 398 30 359 q 100 464 66 437 q 179 507 134 492 q 270 525 223 523 q 362 514 317 527 q 442 474 407 502 q 497 401 477 446 q 515 293 517 356 q 566 332 543 311 q 603 378 590 353 q 608 384 605 382 q 613 385 611 385 q 616 380 616 384 q 613 371 617 377 m 473 271 q 464 386 479 338 q 419 461 448 433 q 351 503 390 490 q 271 512 312 515 q 192 494 231 510 q 124 451 153 478 q 80 387 95 424 q 72 304 65 349 q 99 252 76 272 q 124 297 109 272 q 160 347 140 322 q 204 394 180 372 q 254 429 229 416 q 307 445 280 442 q 359 433 333 447 q 363 425 366 429 q 353 423 360 421 q 310 422 332 430 q 265 399 287 415 q 222 360 243 382 q 184 314 201 338 q 154 268 167 290 q 134 229 140 245 q 205 211 163 214 q 292 213 246 207 q 385 234 338 219 q 473 271 432 249 m 469 248 q 380 211 427 225 q 288 191 334 196 q 199 189 242 185 q 123 205 157 192 q 106 140 111 174 q 104 78 100 107 q 121 25 108 48 q 159 -11 134 1 q 219 -25 189 -26 q 278 -12 249 -24 q 335 23 308 1 q 385 73 362 45 q 427 134 408 101 q 457 199 446 166 q 465 223 461 211 q 469 248 468 236 m 488 608 q 476 589 483 599 q 461 571 470 579 q 443 558 453 563 q 420 554 433 553 q 399 559 410 555 q 379 568 389 563 q 359 576 369 572 q 338 581 349 580 q 317 575 326 582 q 303 558 309 568 q 300 556 302 557 q 294 556 297 555 q 289 557 292 556 q 288 559 287 558 q 299 577 292 568 q 314 594 306 587 q 332 607 322 602 q 354 610 342 611 q 375 606 365 610 q 396 598 386 602 q 416 590 406 594 q 436 586 426 587 q 459 591 450 585 q 473 610 468 598 q 476 611 474 611 q 481 611 479 612 q 486 610 484 611 q 488 608 488 609 "},"P":{"ha":604,"x_min":-20,"x_max":728,"o":"m 654 478 q 712 424 696 453 q 724 364 728 394 q 700 306 720 334 q 651 253 680 277 q 587 211 622 229 q 518 185 551 193 q 435 171 476 175 q 366 169 393 167 q 319 105 344 136 q 264 45 294 74 q 171 -13 221 5 q 65 -24 120 -31 q 11 -6 31 -20 q -15 26 -9 8 q -14 63 -20 44 q 12 94 -7 81 q 59 109 30 106 q 126 99 87 112 q 135 91 137 95 q 124 90 133 87 q 77 98 97 100 q 44 85 57 95 q 27 60 32 75 q 27 31 23 45 q 45 6 32 16 q 82 -5 58 -4 q 165 12 127 -7 q 238 65 203 32 q 299 146 271 98 q 356 248 327 194 q 417 358 385 302 q 494 463 450 414 q 512 482 503 473 q 530 500 520 492 q 470 506 500 505 q 410 506 439 507 q 354 503 381 505 q 307 496 328 500 q 235 477 275 490 q 159 443 195 464 q 97 394 123 422 q 64 327 70 365 q 65 294 61 309 q 79 267 70 278 q 101 248 88 255 q 130 241 115 241 q 162 247 146 240 q 191 264 178 253 q 215 291 205 275 q 232 323 226 306 q 237 330 233 330 q 241 322 241 330 q 231 281 241 299 q 205 251 221 263 q 169 233 189 239 q 129 227 149 227 q 90 235 109 228 q 57 255 71 241 q 35 287 43 268 q 28 332 27 307 q 44 387 30 363 q 81 431 58 412 q 132 466 104 451 q 191 491 161 480 q 250 508 221 501 q 304 518 279 515 q 424 528 361 526 q 548 517 488 530 q 571 533 559 526 q 599 546 583 541 q 616 548 615 553 q 606 536 618 543 q 592 526 600 532 q 575 511 584 519 q 654 478 618 499 m 638 464 q 603 481 623 474 q 562 494 584 489 q 513 419 536 458 q 468 340 490 380 q 423 261 446 300 q 376 183 400 221 q 433 187 401 182 q 496 201 464 192 q 565 231 533 212 q 622 274 597 250 q 663 323 647 297 q 682 374 678 349 q 675 423 685 399 q 638 464 665 446 "},"Q":{"ha":510,"x_min":19,"x_max":571,"o":"m 359 433 q 363 425 366 429 q 353 423 360 421 q 295 418 327 431 q 233 376 264 404 q 176 308 203 347 q 130 225 149 269 q 105 137 112 181 q 109 55 98 93 q 146 -7 121 13 q 203 -29 172 -26 q 271 -18 235 -31 q 341 22 307 -4 q 435 123 401 66 q 481 237 470 180 q 479 349 492 295 q 433 442 467 403 q 344 501 399 481 q 214 511 289 521 q 146 488 174 506 q 102 444 118 471 q 83 381 86 416 q 89 307 79 347 q 85 293 92 296 q 73 303 79 290 q 57 379 54 342 q 81 446 60 416 q 135 498 101 477 q 212 526 169 519 q 342 530 287 539 q 436 496 398 521 q 494 433 473 471 q 520 350 515 395 q 516 256 526 304 q 484 160 507 207 q 425 71 460 113 q 342 -1 389 29 q 270 -34 309 -23 q 195 -42 231 -45 q 127 -17 158 -38 q 80 47 97 4 q 65 146 61 94 q 89 247 69 198 q 141 338 109 296 q 210 408 173 380 q 287 444 248 435 q 359 433 326 452 m 451 -250 q 348 -236 391 -250 q 271 -201 304 -222 q 213 -156 238 -180 q 167 -111 189 -132 q 123 -76 145 -90 q 75 -62 102 -62 q 61 -64 69 -62 q 47 -71 54 -66 q 36 -80 41 -75 q 31 -94 31 -86 q 24 -102 29 -104 q 20 -90 19 -100 q 25 -74 20 -83 q 37 -59 29 -66 q 54 -46 44 -52 q 75 -41 64 -41 q 131 -53 105 -41 q 181 -81 157 -64 q 232 -121 206 -99 q 290 -163 258 -142 q 361 -202 321 -184 q 451 -230 400 -220 q 510 -231 488 -237 q 542 -210 532 -224 q 549 -177 551 -196 q 532 -139 546 -157 q 495 -106 519 -121 q 439 -86 471 -92 q 431 -83 433 -85 q 428 -78 428 -81 q 430 -74 427 -76 q 437 -73 432 -73 q 505 -95 476 -79 q 549 -130 533 -111 q 568 -171 565 -150 q 559 -210 571 -193 q 521 -239 548 -227 q 451 -250 494 -250 "},"R":{"ha":694,"x_min":9,"x_max":757,"o":"m 743 127 q 733 104 740 119 q 716 71 726 89 q 696 36 707 53 q 674 6 685 18 q 603 -28 642 -28 q 530 7 564 -28 q 490 65 507 31 q 461 135 473 100 q 442 200 449 170 q 432 248 435 231 q 381 152 408 199 q 313 60 354 105 q 213 -11 268 11 q 99 -24 159 -32 q 43 -6 63 -20 q 16 27 22 9 q 16 64 9 45 q 42 95 23 83 q 91 110 61 107 q 160 99 121 113 q 167 92 170 96 q 156 91 165 87 q 109 98 129 101 q 77 85 89 96 q 60 60 64 75 q 61 31 56 45 q 79 6 65 17 q 116 -5 92 -4 q 198 13 161 -7 q 268 67 235 33 q 328 147 300 102 q 384 240 357 192 q 424 312 404 276 q 464 382 444 349 q 504 446 484 416 q 545 498 524 475 q 424 501 487 504 q 292 483 361 498 q 215 458 249 474 q 157 422 181 442 q 118 379 133 402 q 99 335 104 357 q 99 294 94 312 q 116 265 104 277 q 143 247 127 253 q 177 242 159 241 q 213 251 195 243 q 245 274 231 258 q 264 299 258 288 q 271 318 271 311 q 273 326 272 324 q 276 327 275 328 q 279 322 278 326 q 280 317 280 319 q 254 262 275 284 q 215 234 237 243 q 172 223 194 224 q 130 229 150 222 q 94 249 109 235 q 70 285 79 263 q 64 335 62 307 q 83 390 67 362 q 129 442 99 418 q 202 485 159 467 q 301 511 245 503 q 436 522 372 522 q 559 515 500 523 q 577 531 570 527 q 586 533 583 534 q 588 525 588 531 q 585 511 587 519 q 620 505 603 508 q 652 498 636 503 q 722 465 698 485 q 752 421 747 444 q 744 373 757 398 q 704 327 732 349 q 633 288 675 305 q 537 262 591 271 q 502 257 517 258 q 475 256 486 256 q 481 227 476 248 q 495 177 486 205 q 517 115 504 148 q 550 54 531 83 q 576 21 563 34 q 603 2 589 7 q 633 2 617 -3 q 667 26 648 7 q 689 53 679 38 q 708 83 700 68 q 723 110 717 98 q 732 127 729 121 q 742 137 736 136 q 743 127 748 138 m 643 481 q 611 488 628 486 q 576 494 595 491 q 510 385 545 438 q 446 273 475 332 q 487 278 466 277 q 532 282 507 279 q 598 300 567 287 q 653 333 629 314 q 690 373 676 351 q 705 416 704 395 q 691 454 705 437 q 643 481 676 471 "},"Ŕ":{"ha":694,"x_min":9,"x_max":757,"o":"m 743 127 q 733 104 740 119 q 716 71 726 89 q 696 36 707 53 q 674 6 685 18 q 603 -28 642 -28 q 530 7 564 -28 q 490 65 507 31 q 461 135 473 100 q 442 200 449 170 q 432 248 435 231 q 381 152 408 199 q 313 60 354 105 q 213 -11 268 11 q 99 -24 159 -32 q 43 -6 63 -20 q 16 27 22 9 q 16 64 9 45 q 42 95 23 83 q 91 110 61 107 q 160 99 121 113 q 167 92 170 96 q 156 91 165 87 q 109 98 129 101 q 77 85 89 96 q 60 60 64 75 q 61 31 56 45 q 79 6 65 17 q 116 -5 92 -4 q 198 13 161 -7 q 268 67 235 33 q 328 147 300 102 q 384 240 357 192 q 424 312 404 276 q 464 382 444 349 q 504 446 484 416 q 545 498 524 475 q 424 501 487 504 q 292 483 361 498 q 215 458 249 474 q 157 422 181 442 q 118 379 133 402 q 99 335 104 357 q 99 294 94 312 q 116 265 104 277 q 143 247 127 253 q 177 242 159 241 q 213 251 195 243 q 245 274 231 258 q 264 299 258 288 q 271 318 271 311 q 273 326 272 324 q 276 327 275 328 q 279 322 278 326 q 280 317 280 319 q 254 262 275 284 q 215 234 237 243 q 172 223 194 224 q 130 229 150 222 q 94 249 109 235 q 70 285 79 263 q 64 335 62 307 q 83 390 67 362 q 129 442 99 418 q 202 485 159 467 q 301 511 245 503 q 436 522 372 522 q 559 515 500 523 q 577 531 570 527 q 586 533 583 534 q 588 525 588 531 q 585 511 587 519 q 620 505 603 508 q 652 498 636 503 q 722 465 698 485 q 752 421 747 444 q 744 373 757 398 q 704 327 732 349 q 633 288 675 305 q 537 262 591 271 q 502 257 517 258 q 475 256 486 256 q 481 227 476 248 q 495 177 486 205 q 517 115 504 148 q 550 54 531 83 q 576 21 563 34 q 603 2 589 7 q 633 2 617 -3 q 667 26 648 7 q 689 53 679 38 q 708 83 700 68 q 723 110 717 98 q 732 127 729 121 q 742 137 736 136 q 743 127 748 138 m 643 481 q 611 488 628 486 q 576 494 595 491 q 510 385 545 438 q 446 273 475 332 q 487 278 466 277 q 532 282 507 279 q 598 300 567 287 q 653 333 629 314 q 690 373 676 351 q 705 416 704 395 q 691 454 705 437 q 643 481 676 471 m 719 630 q 708 622 718 627 q 685 609 699 616 q 655 595 671 602 q 626 582 640 587 q 603 572 612 576 q 592 570 593 569 q 590 578 586 573 q 603 589 591 581 q 629 608 614 598 q 656 628 643 618 q 673 640 669 637 q 692 650 682 646 q 713 648 703 654 q 720 641 718 646 q 719 630 722 635 "},"Ř":{"ha":694,"x_min":9,"x_max":757,"o":"m 743 127 q 733 104 740 119 q 716 71 726 89 q 696 36 707 53 q 674 6 685 18 q 603 -28 642 -28 q 530 7 564 -28 q 490 65 507 31 q 461 135 473 100 q 442 200 449 170 q 432 248 435 231 q 381 152 408 199 q 313 60 354 105 q 213 -11 268 11 q 99 -24 159 -32 q 43 -6 63 -20 q 16 27 22 9 q 16 64 9 45 q 42 95 23 83 q 91 110 61 107 q 160 99 121 113 q 167 92 170 96 q 156 91 165 87 q 109 98 129 101 q 77 85 89 96 q 60 60 64 75 q 61 31 56 45 q 79 6 65 17 q 116 -5 92 -4 q 198 13 161 -7 q 268 67 235 33 q 328 147 300 102 q 384 240 357 192 q 424 312 404 276 q 464 382 444 349 q 504 446 484 416 q 545 498 524 475 q 424 501 487 504 q 292 483 361 498 q 215 458 249 474 q 157 422 181 442 q 118 379 133 402 q 99 335 104 357 q 99 294 94 312 q 116 265 104 277 q 143 247 127 253 q 177 242 159 241 q 213 251 195 243 q 245 274 231 258 q 264 299 258 288 q 271 318 271 311 q 273 326 272 324 q 276 327 275 328 q 279 322 278 326 q 280 317 280 319 q 254 262 275 284 q 215 234 237 243 q 172 223 194 224 q 130 229 150 222 q 94 249 109 235 q 70 285 79 263 q 64 335 62 307 q 83 390 67 362 q 129 442 99 418 q 202 485 159 467 q 301 511 245 503 q 436 522 372 522 q 559 515 500 523 q 577 531 570 527 q 586 533 583 534 q 588 525 588 531 q 585 511 587 519 q 620 505 603 508 q 652 498 636 503 q 722 465 698 485 q 752 421 747 444 q 744 373 757 398 q 704 327 732 349 q 633 288 675 305 q 537 262 591 271 q 502 257 517 258 q 475 256 486 256 q 481 227 476 248 q 495 177 486 205 q 517 115 504 148 q 550 54 531 83 q 576 21 563 34 q 603 2 589 7 q 633 2 617 -3 q 667 26 648 7 q 689 53 679 38 q 708 83 700 68 q 723 110 717 98 q 732 127 729 121 q 742 137 736 136 q 743 127 748 138 m 643 481 q 611 488 628 486 q 576 494 595 491 q 510 385 545 438 q 446 273 475 332 q 487 278 466 277 q 532 282 507 279 q 598 300 567 287 q 653 333 629 314 q 690 373 676 351 q 705 416 704 395 q 691 454 705 437 q 643 481 676 471 m 599 636 q 604 640 597 641 q 612 636 610 640 l 644 588 q 685 610 667 600 q 715 627 701 619 q 733 636 730 634 q 740 639 736 638 q 746 640 743 640 q 751 638 749 640 q 750 636 752 637 l 649 564 q 636 563 642 564 q 627 563 631 562 q 623 564 623 563 l 599 636 "},"Ŗ":{"ha":694,"x_min":9,"x_max":757,"o":"m 743 127 q 733 104 740 119 q 716 71 726 89 q 696 36 707 53 q 674 6 685 18 q 603 -28 642 -28 q 530 7 564 -28 q 490 65 507 31 q 461 135 473 100 q 442 200 449 170 q 432 248 435 231 q 381 152 408 199 q 313 60 354 105 q 213 -11 268 11 q 99 -24 159 -32 q 43 -6 63 -20 q 16 27 22 9 q 16 64 9 45 q 42 95 23 83 q 91 110 61 107 q 160 99 121 113 q 167 92 170 96 q 156 91 165 87 q 109 98 129 101 q 77 85 89 96 q 60 60 64 75 q 61 31 56 45 q 79 6 65 17 q 116 -5 92 -4 q 198 13 161 -7 q 268 67 235 33 q 328 147 300 102 q 384 240 357 192 q 424 312 404 276 q 464 382 444 349 q 504 446 484 416 q 545 498 524 475 q 424 501 487 504 q 292 483 361 498 q 215 458 249 474 q 157 422 181 442 q 118 379 133 402 q 99 335 104 357 q 99 294 94 312 q 116 265 104 277 q 143 247 127 253 q 177 242 159 241 q 213 251 195 243 q 245 274 231 258 q 264 299 258 288 q 271 318 271 311 q 273 326 272 324 q 276 327 275 328 q 279 322 278 326 q 280 317 280 319 q 254 262 275 284 q 215 234 237 243 q 172 223 194 224 q 130 229 150 222 q 94 249 109 235 q 70 285 79 263 q 64 335 62 307 q 83 390 67 362 q 129 442 99 418 q 202 485 159 467 q 301 511 245 503 q 436 522 372 522 q 559 515 500 523 q 577 531 570 527 q 586 533 583 534 q 588 525 588 531 q 585 511 587 519 q 620 505 603 508 q 652 498 636 503 q 722 465 698 485 q 752 421 747 444 q 744 373 757 398 q 704 327 732 349 q 633 288 675 305 q 537 262 591 271 q 502 257 517 258 q 475 256 486 256 q 481 227 476 248 q 495 177 486 205 q 517 115 504 148 q 550 54 531 83 q 576 21 563 34 q 603 2 589 7 q 633 2 617 -3 q 667 26 648 7 q 689 53 679 38 q 708 83 700 68 q 723 110 717 98 q 732 127 729 121 q 742 137 736 136 q 743 127 748 138 m 643 481 q 611 488 628 486 q 576 494 595 491 q 510 385 545 438 q 446 273 475 332 q 487 278 466 277 q 532 282 507 279 q 598 300 567 287 q 653 333 629 314 q 690 373 676 351 q 705 416 704 395 q 691 454 705 437 q 643 481 676 471 m 383 -73 q 377 -100 383 -88 q 361 -122 370 -113 q 340 -138 351 -132 q 319 -148 329 -144 q 313 -146 314 -150 q 319 -141 313 -142 q 349 -122 336 -136 q 365 -88 363 -109 q 357 -93 361 -91 q 348 -94 353 -94 q 331 -87 337 -94 q 327 -69 326 -79 q 337 -51 328 -58 q 356 -44 346 -44 q 376 -53 370 -44 q 383 -73 383 -62 "},"S":{"ha":611,"x_min":-3,"x_max":637,"o":"m 610 422 q 565 400 593 408 q 555 400 558 398 q 551 404 551 401 q 556 410 551 407 q 568 414 560 412 q 600 430 589 416 q 610 462 611 444 q 596 497 609 479 q 556 525 583 515 q 490 534 530 535 q 396 514 450 534 q 343 485 366 503 q 313 444 321 466 q 315 397 305 421 q 359 353 325 374 q 395 334 375 343 q 436 315 415 325 q 479 295 458 305 q 519 273 500 284 q 570 227 554 252 q 589 177 587 203 q 581 125 591 151 q 551 76 570 100 q 507 30 532 52 q 452 -9 481 8 q 366 -45 414 -32 q 269 -61 319 -58 q 172 -55 220 -64 q 87 -26 125 -47 q 25 28 50 -5 q -1 110 1 62 q 6 162 -3 134 q 31 216 15 190 q 68 264 46 243 q 115 298 90 286 q 123 300 118 299 q 130 300 127 301 q 131 297 132 300 q 121 288 130 294 q 96 264 108 277 q 75 237 84 252 q 47 175 56 208 q 37 110 37 142 q 55 38 36 68 q 104 -11 73 8 q 174 -37 134 -29 q 256 -44 214 -45 q 339 -33 298 -43 q 414 -5 380 -23 q 487 48 457 17 q 528 114 516 80 q 532 180 540 147 q 494 237 525 212 q 455 261 479 250 q 406 283 431 273 q 355 306 380 294 q 311 330 330 317 q 263 385 273 355 q 266 443 254 414 q 305 495 277 471 q 370 532 333 519 q 426 546 395 541 q 486 552 456 551 q 543 549 516 553 q 588 536 570 545 q 618 513 606 527 q 633 483 629 498 q 631 451 637 467 q 610 422 626 435 "},"Ś":{"ha":611,"x_min":-3,"x_max":663,"o":"m 610 422 q 565 400 593 408 q 555 400 558 398 q 551 404 551 401 q 556 410 551 407 q 568 414 560 412 q 600 430 589 416 q 610 462 611 444 q 596 497 609 479 q 556 525 583 515 q 490 534 530 535 q 396 514 450 534 q 343 485 366 503 q 313 444 321 466 q 315 397 305 421 q 359 353 325 374 q 395 334 375 343 q 436 315 415 325 q 479 295 458 305 q 519 273 500 284 q 570 227 554 252 q 589 177 587 203 q 581 125 591 151 q 551 76 570 100 q 507 30 532 52 q 452 -9 481 8 q 366 -45 414 -32 q 269 -61 319 -58 q 172 -55 220 -64 q 87 -26 125 -47 q 25 28 50 -5 q -1 110 1 62 q 6 162 -3 134 q 31 216 15 190 q 68 264 46 243 q 115 298 90 286 q 123 300 118 299 q 130 300 127 301 q 131 297 132 300 q 121 288 130 294 q 96 264 108 277 q 75 237 84 252 q 47 175 56 208 q 37 110 37 142 q 55 38 36 68 q 104 -11 73 8 q 174 -37 134 -29 q 256 -44 214 -45 q 339 -33 298 -43 q 414 -5 380 -23 q 487 48 457 17 q 528 114 516 80 q 532 180 540 147 q 494 237 525 212 q 455 261 479 250 q 406 283 431 273 q 355 306 380 294 q 311 330 330 317 q 263 385 273 355 q 266 443 254 414 q 305 495 277 471 q 370 532 333 519 q 426 546 395 541 q 486 552 456 551 q 543 549 516 553 q 588 536 570 545 q 618 513 606 527 q 633 483 629 498 q 631 451 637 467 q 610 422 626 435 m 660 643 q 649 634 659 640 q 626 622 640 629 q 596 608 612 615 q 567 594 581 600 q 544 585 553 589 q 533 583 534 582 q 531 591 527 586 q 544 602 532 593 q 570 621 555 611 q 597 641 584 631 q 614 653 610 650 q 633 663 623 659 q 654 661 644 667 q 661 653 659 659 q 660 643 663 648 "},"Š":{"ha":611,"x_min":-3,"x_max":644,"o":"m 610 422 q 565 400 593 408 q 555 400 558 398 q 551 404 551 401 q 556 410 551 407 q 568 414 560 412 q 600 430 589 416 q 610 462 611 444 q 596 497 609 479 q 556 525 583 515 q 490 534 530 535 q 396 514 450 534 q 343 485 366 503 q 313 444 321 466 q 315 397 305 421 q 359 353 325 374 q 395 334 375 343 q 436 315 415 325 q 479 295 458 305 q 519 273 500 284 q 570 227 554 252 q 589 177 587 203 q 581 125 591 151 q 551 76 570 100 q 507 30 532 52 q 452 -9 481 8 q 366 -45 414 -32 q 269 -61 319 -58 q 172 -55 220 -64 q 87 -26 125 -47 q 25 28 50 -5 q -1 110 1 62 q 6 162 -3 134 q 31 216 15 190 q 68 264 46 243 q 115 298 90 286 q 123 300 118 299 q 130 300 127 301 q 131 297 132 300 q 121 288 130 294 q 96 264 108 277 q 75 237 84 252 q 47 175 56 208 q 37 110 37 142 q 55 38 36 68 q 104 -11 73 8 q 174 -37 134 -29 q 256 -44 214 -45 q 339 -33 298 -43 q 414 -5 380 -23 q 487 48 457 17 q 528 114 516 80 q 532 180 540 147 q 494 237 525 212 q 455 261 479 250 q 406 283 431 273 q 355 306 380 294 q 311 330 330 317 q 263 385 273 355 q 266 443 254 414 q 305 495 277 471 q 370 532 333 519 q 426 546 395 541 q 486 552 456 551 q 543 549 516 553 q 588 536 570 545 q 618 513 606 527 q 633 483 629 498 q 631 451 637 467 q 610 422 626 435 m 491 663 q 496 667 489 668 q 505 663 503 667 l 536 615 q 577 637 559 627 q 607 654 593 646 q 625 663 622 661 q 632 666 628 665 q 638 667 635 667 q 643 666 642 667 q 642 663 644 665 l 541 591 q 528 590 534 591 q 519 590 524 589 q 515 591 515 590 l 491 663 "},"Ş":{"ha":611,"x_min":-3,"x_max":637,"o":"m 610 422 q 565 400 593 408 q 555 400 558 398 q 551 404 551 401 q 556 410 551 407 q 568 414 560 412 q 600 430 589 416 q 610 462 611 444 q 596 497 609 479 q 556 525 583 515 q 490 534 530 535 q 396 514 450 534 q 343 485 366 503 q 313 444 321 466 q 315 397 305 421 q 359 353 325 374 q 395 334 375 343 q 436 315 415 325 q 479 295 458 305 q 519 273 500 284 q 570 227 554 252 q 589 177 587 203 q 581 125 591 151 q 551 76 570 100 q 507 30 532 52 q 452 -9 481 8 q 366 -45 414 -32 q 269 -61 319 -58 q 172 -55 220 -64 q 87 -26 125 -47 q 25 28 50 -5 q -1 110 1 62 q 6 162 -3 134 q 31 216 15 190 q 68 264 46 243 q 115 298 90 286 q 123 300 118 299 q 130 300 127 301 q 131 297 132 300 q 121 288 130 294 q 96 264 108 277 q 75 237 84 252 q 47 175 56 208 q 37 110 37 142 q 55 38 36 68 q 104 -11 73 8 q 174 -37 134 -29 q 256 -44 214 -45 q 339 -33 298 -43 q 414 -5 380 -23 q 487 48 457 17 q 528 114 516 80 q 532 180 540 147 q 494 237 525 212 q 455 261 479 250 q 406 283 431 273 q 355 306 380 294 q 311 330 330 317 q 263 385 273 355 q 266 443 254 414 q 305 495 277 471 q 370 532 333 519 q 426 546 395 541 q 486 552 456 551 q 543 549 516 553 q 588 536 570 545 q 618 513 606 527 q 633 483 629 498 q 631 451 637 467 q 610 422 626 435 m 307 -137 q 295 -166 307 -153 q 271 -189 284 -180 q 246 -198 260 -196 q 220 -200 232 -200 q 199 -198 214 -200 q 171 -193 185 -197 q 145 -184 156 -190 q 134 -169 134 -178 q 138 -164 134 -164 q 144 -167 142 -164 q 149 -172 146 -170 q 176 -185 158 -181 q 207 -189 194 -189 q 224 -188 215 -189 q 242 -183 233 -186 q 259 -176 252 -180 q 272 -164 267 -172 q 279 -151 276 -158 q 281 -136 281 -144 q 277 -119 281 -126 q 264 -107 272 -112 q 248 -100 257 -102 q 231 -98 239 -98 q 213 -100 221 -98 q 199 -106 205 -103 q 189 -112 193 -109 q 182 -114 184 -114 q 173 -111 177 -114 q 169 -104 169 -109 q 172 -98 169 -100 q 181 -90 174 -96 q 198 -76 189 -83 q 215 -64 208 -69 q 224 -58 222 -58 q 227 -60 226 -58 q 229 -64 229 -62 q 223 -68 228 -65 q 213 -76 218 -72 q 203 -83 208 -79 q 199 -87 199 -86 q 226 -85 212 -85 q 251 -88 237 -85 q 277 -97 265 -91 q 298 -113 290 -103 q 307 -137 307 -123 "},"Ŝ":{"ha":611,"x_min":-3,"x_max":644,"o":"m 610 422 q 565 400 593 408 q 555 400 558 398 q 551 404 551 401 q 556 410 551 407 q 568 414 560 412 q 600 430 589 416 q 610 462 611 444 q 596 497 609 479 q 556 525 583 515 q 490 534 530 535 q 396 514 450 534 q 343 485 366 503 q 313 444 321 466 q 315 397 305 421 q 359 353 325 374 q 395 334 375 343 q 436 315 415 325 q 479 295 458 305 q 519 273 500 284 q 570 227 554 252 q 589 177 587 203 q 581 125 591 151 q 551 76 570 100 q 507 30 532 52 q 452 -9 481 8 q 366 -45 414 -32 q 269 -61 319 -58 q 172 -55 220 -64 q 87 -26 125 -47 q 25 28 50 -5 q -1 110 1 62 q 6 162 -3 134 q 31 216 15 190 q 68 264 46 243 q 115 298 90 286 q 123 300 118 299 q 130 300 127 301 q 131 297 132 300 q 121 288 130 294 q 96 264 108 277 q 75 237 84 252 q 47 175 56 208 q 37 110 37 142 q 55 38 36 68 q 104 -11 73 8 q 174 -37 134 -29 q 256 -44 214 -45 q 339 -33 298 -43 q 414 -5 380 -23 q 487 48 457 17 q 528 114 516 80 q 532 180 540 147 q 494 237 525 212 q 455 261 479 250 q 406 283 431 273 q 355 306 380 294 q 311 330 330 317 q 263 385 273 355 q 266 443 254 414 q 305 495 277 471 q 370 532 333 519 q 426 546 395 541 q 486 552 456 551 q 543 549 516 553 q 588 536 570 545 q 618 513 606 527 q 633 483 629 498 q 631 451 637 467 q 610 422 626 435 m 642 618 q 637 614 644 614 q 628 618 630 615 l 597 667 q 555 644 574 654 q 525 628 540 635 q 507 618 511 620 q 501 615 505 616 q 494 615 497 614 q 490 616 491 615 q 490 618 488 617 l 591 690 q 604 692 599 691 q 613 692 609 692 q 617 690 616 692 l 642 618 "},"Ș":{"ha":611,"x_min":-3,"x_max":637,"o":"m 610 422 q 565 400 593 408 q 555 400 558 398 q 551 404 551 401 q 556 410 551 407 q 568 414 560 412 q 600 430 589 416 q 610 462 611 444 q 596 497 609 479 q 556 525 583 515 q 490 534 530 535 q 396 514 450 534 q 343 485 366 503 q 313 444 321 466 q 315 397 305 421 q 359 353 325 374 q 395 334 375 343 q 436 315 415 325 q 479 295 458 305 q 519 273 500 284 q 570 227 554 252 q 589 177 587 203 q 581 125 591 151 q 551 76 570 100 q 507 30 532 52 q 452 -9 481 8 q 366 -45 414 -32 q 269 -61 319 -58 q 172 -55 220 -64 q 87 -26 125 -47 q 25 28 50 -5 q -1 110 1 62 q 6 162 -3 134 q 31 216 15 190 q 68 264 46 243 q 115 298 90 286 q 123 300 118 299 q 130 300 127 301 q 131 297 132 300 q 121 288 130 294 q 96 264 108 277 q 75 237 84 252 q 47 175 56 208 q 37 110 37 142 q 55 38 36 68 q 104 -11 73 8 q 174 -37 134 -29 q 256 -44 214 -45 q 339 -33 298 -43 q 414 -5 380 -23 q 487 48 457 17 q 528 114 516 80 q 532 180 540 147 q 494 237 525 212 q 455 261 479 250 q 406 283 431 273 q 355 306 380 294 q 311 330 330 317 q 263 385 273 355 q 266 443 254 414 q 305 495 277 471 q 370 532 333 519 q 426 546 395 541 q 486 552 456 551 q 543 549 516 553 q 588 536 570 545 q 618 513 606 527 q 633 483 629 498 q 631 451 637 467 q 610 422 626 435 m 244 -132 q 238 -159 244 -147 q 222 -181 231 -172 q 201 -197 212 -191 q 180 -207 190 -203 q 174 -205 175 -209 q 180 -200 174 -201 q 210 -181 197 -195 q 226 -147 224 -168 q 218 -152 222 -150 q 209 -153 214 -153 q 192 -146 198 -153 q 188 -128 186 -138 q 198 -110 189 -117 q 217 -103 207 -103 q 237 -112 231 -103 q 244 -132 244 -121 "},"T":{"ha":623,"x_min":16,"x_max":949,"o":"m 949 414 q 927 384 949 394 q 873 378 905 374 q 806 390 835 383 q 755 402 777 396 q 721 414 734 409 q 702 422 707 420 q 652 322 671 373 q 615 220 633 271 q 575 121 597 170 q 515 30 553 73 q 450 -21 488 -1 q 367 -53 411 -42 q 275 -63 322 -63 q 186 -53 229 -64 q 107 -22 143 -43 q 50 31 72 -1 q 22 106 28 63 q 33 203 16 149 q 55 244 41 227 q 84 269 70 260 q 108 277 98 277 q 117 266 118 277 q 103 254 113 260 q 82 238 93 248 q 61 212 71 228 q 47 172 51 197 q 46 108 41 138 q 66 55 52 79 q 101 14 80 31 q 147 -16 122 -4 q 199 -34 172 -28 q 252 -39 226 -40 q 326 -31 292 -39 q 388 -9 359 -22 q 440 23 416 5 q 483 62 463 41 q 524 118 503 85 q 565 188 545 151 q 603 264 585 226 q 636 336 621 303 q 663 394 652 370 q 682 429 675 419 q 580 454 629 446 q 477 466 531 463 q 390 455 428 468 q 324 420 351 441 q 281 371 297 398 q 264 318 266 343 q 273 272 262 292 q 311 243 285 251 q 367 241 342 233 q 408 264 391 249 q 433 296 425 279 q 441 319 441 312 l 441 321 q 450 324 446 326 q 454 315 454 322 q 436 268 451 288 q 400 235 421 248 q 353 220 378 223 q 304 226 328 218 q 251 264 270 238 q 230 323 233 291 q 241 390 227 356 q 285 450 255 424 q 361 491 315 477 q 472 500 408 506 q 535 490 503 498 q 597 473 567 482 q 652 455 627 464 q 693 441 677 446 q 701 451 695 444 q 715 465 707 458 q 730 477 722 472 q 743 483 738 483 l 743 483 q 755 482 751 486 q 761 473 760 478 q 759 464 762 468 q 747 463 755 460 q 741 462 745 465 q 731 455 736 459 q 721 445 726 450 q 712 436 715 439 q 749 425 726 431 q 796 413 771 418 q 845 402 821 407 q 890 398 870 398 q 923 402 910 397 q 935 418 935 406 q 943 428 935 428 q 948 422 946 428 q 949 414 949 416 "},"Ŧ":{"ha":738,"x_min":16,"x_max":949,"o":"m 949 414 q 927 384 949 394 q 873 378 905 374 q 806 390 835 383 q 755 402 777 396 q 721 414 734 409 q 702 422 707 420 q 652 322 671 373 q 615 220 633 271 q 575 121 597 170 q 515 30 553 73 q 450 -21 488 -1 q 367 -53 411 -42 q 275 -63 322 -63 q 186 -53 229 -64 q 107 -22 143 -43 q 50 31 72 -1 q 22 106 28 63 q 33 203 16 149 q 55 244 41 227 q 84 269 70 260 q 108 277 98 277 q 117 266 118 277 q 103 254 113 260 q 82 238 93 248 q 61 212 71 228 q 47 172 51 197 q 46 108 41 138 q 66 55 52 79 q 101 14 80 31 q 147 -16 122 -4 q 199 -34 172 -28 q 252 -39 226 -40 q 326 -31 292 -39 q 388 -9 359 -22 q 440 23 416 5 q 483 62 463 41 q 524 118 503 85 q 565 188 545 151 q 603 264 585 226 q 636 336 621 303 q 663 394 652 370 q 682 429 675 419 q 580 454 629 446 q 477 466 531 463 q 390 455 428 468 q 324 420 351 441 q 281 371 297 398 q 264 318 266 343 q 273 272 262 292 q 311 243 285 251 q 367 241 342 233 q 408 264 391 249 q 433 296 425 279 q 441 319 441 312 l 441 321 q 450 324 446 326 q 454 315 454 322 q 436 268 451 288 q 400 235 421 248 q 353 220 378 223 q 304 226 328 218 q 251 264 270 238 q 230 323 233 291 q 241 390 227 356 q 285 450 255 424 q 361 491 315 477 q 472 500 408 506 q 535 490 503 498 q 597 473 567 482 q 652 455 627 464 q 693 441 677 446 q 701 451 695 444 q 715 465 707 458 q 730 477 722 472 q 743 483 738 483 l 743 483 q 755 482 751 486 q 761 473 760 478 q 759 464 762 468 q 747 463 755 460 q 741 462 745 465 q 731 455 736 459 q 721 445 726 450 q 712 436 715 439 q 749 425 726 431 q 796 413 771 418 q 845 402 821 407 q 890 398 870 398 q 923 402 910 397 q 935 418 935 406 q 943 428 935 428 q 948 422 946 428 q 949 414 949 416 m 694 265 l 515 265 l 530 282 l 708 282 l 694 265 "},"Ť":{"ha":738,"x_min":16,"x_max":949,"o":"m 949 414 q 927 384 949 394 q 873 378 905 374 q 806 390 835 383 q 755 402 777 396 q 721 414 734 409 q 702 422 707 420 q 652 322 671 373 q 615 220 633 271 q 575 121 597 170 q 515 30 553 73 q 450 -21 488 -1 q 367 -53 411 -42 q 275 -63 322 -63 q 186 -53 229 -64 q 107 -22 143 -43 q 50 31 72 -1 q 22 106 28 63 q 33 203 16 149 q 55 244 41 227 q 84 269 70 260 q 108 277 98 277 q 117 266 118 277 q 103 254 113 260 q 82 238 93 248 q 61 212 71 228 q 47 172 51 197 q 46 108 41 138 q 66 55 52 79 q 101 14 80 31 q 147 -16 122 -4 q 199 -34 172 -28 q 252 -39 226 -40 q 326 -31 292 -39 q 388 -9 359 -22 q 440 23 416 5 q 483 62 463 41 q 524 118 503 85 q 565 188 545 151 q 603 264 585 226 q 636 336 621 303 q 663 394 652 370 q 682 429 675 419 q 580 454 629 446 q 477 466 531 463 q 390 455 428 468 q 324 420 351 441 q 281 371 297 398 q 264 318 266 343 q 273 272 262 292 q 311 243 285 251 q 367 241 342 233 q 408 264 391 249 q 433 296 425 279 q 441 319 441 312 l 441 321 q 450 324 446 326 q 454 315 454 322 q 436 268 451 288 q 400 235 421 248 q 353 220 378 223 q 304 226 328 218 q 251 264 270 238 q 230 323 233 291 q 241 390 227 356 q 285 450 255 424 q 361 491 315 477 q 472 500 408 506 q 535 490 503 498 q 597 473 567 482 q 652 455 627 464 q 693 441 677 446 q 701 451 695 444 q 715 465 707 458 q 730 477 722 472 q 743 483 738 483 l 743 483 q 755 482 751 486 q 761 473 760 478 q 759 464 762 468 q 747 463 755 460 q 741 462 745 465 q 731 455 736 459 q 721 445 726 450 q 712 436 715 439 q 749 425 726 431 q 796 413 771 418 q 845 402 821 407 q 890 398 870 398 q 923 402 910 397 q 935 418 935 406 q 943 428 935 428 q 948 422 946 428 q 949 414 949 416 m 719 611 q 724 615 717 616 q 732 611 730 614 l 764 563 q 805 585 787 575 q 835 602 821 594 q 853 611 850 609 q 860 614 856 613 q 866 615 863 615 q 871 613 869 614 q 870 611 872 612 l 769 539 q 756 538 762 538 q 747 537 751 537 q 743 539 743 538 l 719 611 "},"Ţ":{"ha":738,"x_min":16,"x_max":949,"o":"m 949 414 q 927 384 949 394 q 873 378 905 374 q 806 390 835 383 q 755 402 777 396 q 721 414 734 409 q 702 422 707 420 q 652 322 671 373 q 615 220 633 271 q 575 121 597 170 q 515 30 553 73 q 450 -21 488 -1 q 367 -53 411 -42 q 275 -63 322 -63 q 186 -53 229 -64 q 107 -22 143 -43 q 50 31 72 -1 q 22 106 28 63 q 33 203 16 149 q 55 244 41 227 q 84 269 70 260 q 108 277 98 277 q 117 266 118 277 q 103 254 113 260 q 82 238 93 248 q 61 212 71 228 q 47 172 51 197 q 46 108 41 138 q 66 55 52 79 q 101 14 80 31 q 147 -16 122 -4 q 199 -34 172 -28 q 252 -39 226 -40 q 326 -31 292 -39 q 388 -9 359 -22 q 440 23 416 5 q 483 62 463 41 q 524 118 503 85 q 565 188 545 151 q 603 264 585 226 q 636 336 621 303 q 663 394 652 370 q 682 429 675 419 q 580 454 629 446 q 477 466 531 463 q 390 455 428 468 q 324 420 351 441 q 281 371 297 398 q 264 318 266 343 q 273 272 262 292 q 311 243 285 251 q 367 241 342 233 q 408 264 391 249 q 433 296 425 279 q 441 319 441 312 l 441 321 q 450 324 446 326 q 454 315 454 322 q 436 268 451 288 q 400 235 421 248 q 353 220 378 223 q 304 226 328 218 q 251 264 270 238 q 230 323 233 291 q 241 390 227 356 q 285 450 255 424 q 361 491 315 477 q 472 500 408 506 q 535 490 503 498 q 597 473 567 482 q 652 455 627 464 q 693 441 677 446 q 701 451 695 444 q 715 465 707 458 q 730 477 722 472 q 743 483 738 483 l 743 483 q 755 482 751 486 q 761 473 760 478 q 759 464 762 468 q 747 463 755 460 q 741 462 745 465 q 731 455 736 459 q 721 445 726 450 q 712 436 715 439 q 749 425 726 431 q 796 413 771 418 q 845 402 821 407 q 890 398 870 398 q 923 402 910 397 q 935 418 935 406 q 943 428 935 428 q 948 422 946 428 q 949 414 949 416 m 230 -134 q 223 -161 230 -149 q 208 -182 217 -173 q 187 -198 198 -192 q 166 -208 176 -205 q 160 -207 161 -210 q 165 -201 159 -203 q 196 -182 182 -196 q 212 -149 210 -169 q 204 -153 208 -151 q 195 -155 199 -155 q 178 -147 184 -155 q 174 -130 172 -140 q 184 -112 175 -119 q 203 -104 193 -104 q 223 -113 216 -104 q 230 -134 230 -122 "},"Þ":{"ha":228,"x_min":7,"x_max":397,"o":"m 249 416 q 291 406 271 413 q 326 391 311 399 q 379 347 363 370 q 396 299 395 323 q 384 252 397 275 q 350 209 371 229 q 303 176 330 190 q 252 155 277 161 q 188 143 220 147 q 134 141 156 140 l 83 37 q 62 8 71 16 q 36 2 52 1 q 22 5 29 3 q 7 5 15 7 q 21 24 12 9 q 44 60 31 39 q 70 105 56 81 q 97 154 84 130 q 122 200 111 178 q 140 235 133 221 q 189 354 168 296 q 224 460 210 412 q 244 541 237 508 q 250 582 250 573 q 263 576 254 576 q 277 572 272 576 q 291 549 290 560 q 286 514 293 537 l 249 416 m 315 379 q 282 393 302 387 q 244 404 262 399 l 210 311 q 202 291 208 307 q 189 258 197 276 q 174 222 182 239 q 161 199 166 205 l 140 155 q 186 158 161 155 q 232 168 211 161 q 306 208 275 182 q 351 266 338 235 q 358 327 365 296 q 315 379 351 357 "},"U":{"ha":639,"x_min":-6,"x_max":682,"o":"m 669 332 q 681 314 681 326 q 676 288 682 302 q 661 258 670 274 q 644 227 651 242 q 625 183 637 212 q 604 117 613 153 q 591 61 596 89 q 587 12 587 34 q 593 -24 587 -11 q 613 -37 599 -38 q 629 -39 625 -37 q 631 -45 633 -42 q 623 -52 629 -49 q 608 -53 616 -54 q 574 -28 585 -49 q 560 19 563 -8 q 561 75 557 46 q 568 126 564 104 q 550 97 561 113 q 527 65 540 81 q 459 -1 493 22 q 398 -26 426 -23 q 352 -13 371 -28 q 327 35 332 3 q 329 87 323 58 q 346 148 334 116 q 372 214 357 180 q 401 281 387 248 q 428 344 415 314 q 446 399 440 374 q 455 447 452 423 q 457 490 458 470 q 450 524 456 509 q 432 546 444 538 q 384 562 411 559 q 327 560 357 565 q 266 544 297 555 q 206 515 235 532 q 120 450 155 486 q 62 378 84 415 q 32 304 41 340 q 25 235 23 267 q 41 177 28 203 q 75 135 54 151 q 125 116 96 119 q 190 126 155 113 q 234 155 213 135 q 269 200 254 175 q 291 250 283 224 q 294 295 298 275 q 273 324 290 314 q 224 326 257 334 q 208 324 211 323 q 208 328 205 326 q 214 334 210 331 q 221 338 219 337 q 277 346 256 353 q 308 319 299 339 q 314 270 317 299 q 295 211 311 241 q 253 153 280 180 q 189 111 227 126 q 118 97 151 94 q 60 116 85 99 q 19 160 35 132 q -2 224 3 189 q 3 300 -6 260 q 37 383 12 341 q 104 464 62 425 q 208 538 146 504 q 325 579 266 570 q 429 568 383 587 q 468 539 454 557 q 489 499 483 522 q 494 450 495 477 q 486 396 492 424 q 468 339 480 370 q 442 277 456 309 q 413 213 427 245 q 387 149 398 180 q 369 89 376 118 q 366 35 363 60 q 382 -2 368 9 q 416 -7 395 -13 q 463 21 437 -1 q 517 84 489 43 q 550 138 534 109 q 580 196 566 167 q 608 251 595 224 q 631 296 621 277 q 652 323 642 315 q 669 332 663 332 "},"Ú":{"ha":639,"x_min":-6,"x_max":686,"o":"m 669 332 q 681 314 681 326 q 676 288 682 302 q 661 258 670 274 q 644 227 651 242 q 625 183 637 212 q 604 117 613 153 q 591 61 596 89 q 587 12 587 34 q 593 -24 587 -11 q 613 -37 599 -38 q 629 -39 625 -37 q 631 -45 633 -42 q 623 -52 629 -49 q 608 -53 616 -54 q 574 -28 585 -49 q 560 19 563 -8 q 561 75 557 46 q 568 126 564 104 q 550 97 561 113 q 527 65 540 81 q 459 -1 493 22 q 398 -26 426 -23 q 352 -13 371 -28 q 327 35 332 3 q 329 87 323 58 q 346 148 334 116 q 372 214 357 180 q 401 281 387 248 q 428 344 415 314 q 446 399 440 374 q 455 447 452 423 q 457 490 458 470 q 450 524 456 509 q 432 546 444 538 q 384 562 411 559 q 327 560 357 565 q 266 544 297 555 q 206 515 235 532 q 120 450 155 486 q 62 378 84 415 q 32 304 41 340 q 25 235 23 267 q 41 177 28 203 q 75 135 54 151 q 125 116 96 119 q 190 126 155 113 q 234 155 213 135 q 269 200 254 175 q 291 250 283 224 q 294 295 298 275 q 273 324 290 314 q 224 326 257 334 q 208 324 211 323 q 208 328 205 326 q 214 334 210 331 q 221 338 219 337 q 277 346 256 353 q 308 319 299 339 q 314 270 317 299 q 295 211 311 241 q 253 153 280 180 q 189 111 227 126 q 118 97 151 94 q 60 116 85 99 q 19 160 35 132 q -2 224 3 189 q 3 300 -6 260 q 37 383 12 341 q 104 464 62 425 q 208 538 146 504 q 325 579 266 570 q 429 568 383 587 q 468 539 454 557 q 489 499 483 522 q 494 450 495 477 q 486 396 492 424 q 468 339 480 370 q 442 277 456 309 q 413 213 427 245 q 387 149 398 180 q 369 89 376 118 q 366 35 363 60 q 382 -2 368 9 q 416 -7 395 -13 q 463 21 437 -1 q 517 84 489 43 q 550 138 534 109 q 580 196 566 167 q 608 251 595 224 q 631 296 621 277 q 652 323 642 315 q 669 332 663 332 m 684 515 q 673 506 682 512 q 649 494 663 500 q 620 479 635 487 q 591 466 604 472 q 568 457 577 460 q 557 454 558 454 q 555 463 551 458 q 567 474 555 465 q 593 493 579 483 q 621 512 608 503 q 638 525 634 522 q 657 535 646 531 q 677 533 667 538 q 685 525 683 530 q 684 515 686 520 "},"Ŭ":{"ha":639,"x_min":-6,"x_max":690,"o":"m 669 332 q 681 314 681 326 q 676 288 682 302 q 661 258 670 274 q 644 227 651 242 q 625 183 637 212 q 604 117 613 153 q 591 61 596 89 q 587 12 587 34 q 593 -24 587 -11 q 613 -37 599 -38 q 629 -39 625 -37 q 631 -45 633 -42 q 623 -52 629 -49 q 608 -53 616 -54 q 574 -28 585 -49 q 560 19 563 -8 q 561 75 557 46 q 568 126 564 104 q 550 97 561 113 q 527 65 540 81 q 459 -1 493 22 q 398 -26 426 -23 q 352 -13 371 -28 q 327 35 332 3 q 329 87 323 58 q 346 148 334 116 q 372 214 357 180 q 401 281 387 248 q 428 344 415 314 q 446 399 440 374 q 455 447 452 423 q 457 490 458 470 q 450 524 456 509 q 432 546 444 538 q 384 562 411 559 q 327 560 357 565 q 266 544 297 555 q 206 515 235 532 q 120 450 155 486 q 62 378 84 415 q 32 304 41 340 q 25 235 23 267 q 41 177 28 203 q 75 135 54 151 q 125 116 96 119 q 190 126 155 113 q 234 155 213 135 q 269 200 254 175 q 291 250 283 224 q 294 295 298 275 q 273 324 290 314 q 224 326 257 334 q 208 324 211 323 q 208 328 205 326 q 214 334 210 331 q 221 338 219 337 q 277 346 256 353 q 308 319 299 339 q 314 270 317 299 q 295 211 311 241 q 253 153 280 180 q 189 111 227 126 q 118 97 151 94 q 60 116 85 99 q 19 160 35 132 q -2 224 3 189 q 3 300 -6 260 q 37 383 12 341 q 104 464 62 425 q 208 538 146 504 q 325 579 266 570 q 429 568 383 587 q 468 539 454 557 q 489 499 483 522 q 494 450 495 477 q 486 396 492 424 q 468 339 480 370 q 442 277 456 309 q 413 213 427 245 q 387 149 398 180 q 369 89 376 118 q 366 35 363 60 q 382 -2 368 9 q 416 -7 395 -13 q 463 21 437 -1 q 517 84 489 43 q 550 138 534 109 q 580 196 566 167 q 608 251 595 224 q 631 296 621 277 q 652 323 642 315 q 669 332 663 332 m 674 528 q 685 533 679 534 q 689 528 690 533 q 652 485 677 500 q 595 469 627 469 q 576 471 586 469 q 557 478 566 473 q 542 489 549 482 q 534 505 536 496 q 535 529 531 523 q 545 536 539 536 q 549 533 547 536 q 552 526 550 530 q 555 518 553 522 q 562 509 557 513 q 583 496 572 499 q 608 492 593 492 q 632 495 623 492 q 649 503 642 498 q 662 514 656 507 q 674 528 668 520 "},"Û":{"ha":639,"x_min":-6,"x_max":694,"o":"m 669 332 q 681 314 681 326 q 676 288 682 302 q 661 258 670 274 q 644 227 651 242 q 625 183 637 212 q 604 117 613 153 q 591 61 596 89 q 587 12 587 34 q 593 -24 587 -11 q 613 -37 599 -38 q 629 -39 625 -37 q 631 -45 633 -42 q 623 -52 629 -49 q 608 -53 616 -54 q 574 -28 585 -49 q 560 19 563 -8 q 561 75 557 46 q 568 126 564 104 q 550 97 561 113 q 527 65 540 81 q 459 -1 493 22 q 398 -26 426 -23 q 352 -13 371 -28 q 327 35 332 3 q 329 87 323 58 q 346 148 334 116 q 372 214 357 180 q 401 281 387 248 q 428 344 415 314 q 446 399 440 374 q 455 447 452 423 q 457 490 458 470 q 450 524 456 509 q 432 546 444 538 q 384 562 411 559 q 327 560 357 565 q 266 544 297 555 q 206 515 235 532 q 120 450 155 486 q 62 378 84 415 q 32 304 41 340 q 25 235 23 267 q 41 177 28 203 q 75 135 54 151 q 125 116 96 119 q 190 126 155 113 q 234 155 213 135 q 269 200 254 175 q 291 250 283 224 q 294 295 298 275 q 273 324 290 314 q 224 326 257 334 q 208 324 211 323 q 208 328 205 326 q 214 334 210 331 q 221 338 219 337 q 277 346 256 353 q 308 319 299 339 q 314 270 317 299 q 295 211 311 241 q 253 153 280 180 q 189 111 227 126 q 118 97 151 94 q 60 116 85 99 q 19 160 35 132 q -2 224 3 189 q 3 300 -6 260 q 37 383 12 341 q 104 464 62 425 q 208 538 146 504 q 325 579 266 570 q 429 568 383 587 q 468 539 454 557 q 489 499 483 522 q 494 450 495 477 q 486 396 492 424 q 468 339 480 370 q 442 277 456 309 q 413 213 427 245 q 387 149 398 180 q 369 89 376 118 q 366 35 363 60 q 382 -2 368 9 q 416 -7 395 -13 q 463 21 437 -1 q 517 84 489 43 q 550 138 534 109 q 580 196 566 167 q 608 251 595 224 q 631 296 621 277 q 652 323 642 315 q 669 332 663 332 m 692 484 q 687 479 694 479 q 678 484 680 480 l 647 532 q 606 509 624 519 q 575 493 590 500 q 557 484 561 485 q 551 480 555 481 q 544 480 547 479 q 540 481 541 480 q 541 484 538 482 l 642 555 q 654 557 649 556 q 663 557 659 557 q 667 555 667 557 l 692 484 "},"Ü":{"ha":639,"x_min":-6,"x_max":682,"o":"m 669 332 q 681 314 681 326 q 676 288 682 302 q 661 258 670 274 q 644 227 651 242 q 625 183 637 212 q 604 117 613 153 q 591 61 596 89 q 587 12 587 34 q 593 -24 587 -11 q 613 -37 599 -38 q 629 -39 625 -37 q 631 -45 633 -42 q 623 -52 629 -49 q 608 -53 616 -54 q 574 -28 585 -49 q 560 19 563 -8 q 561 75 557 46 q 568 126 564 104 q 550 97 561 113 q 527 65 540 81 q 459 -1 493 22 q 398 -26 426 -23 q 352 -13 371 -28 q 327 35 332 3 q 329 87 323 58 q 346 148 334 116 q 372 214 357 180 q 401 281 387 248 q 428 344 415 314 q 446 399 440 374 q 455 447 452 423 q 457 490 458 470 q 450 524 456 509 q 432 546 444 538 q 384 562 411 559 q 327 560 357 565 q 266 544 297 555 q 206 515 235 532 q 120 450 155 486 q 62 378 84 415 q 32 304 41 340 q 25 235 23 267 q 41 177 28 203 q 75 135 54 151 q 125 116 96 119 q 190 126 155 113 q 234 155 213 135 q 269 200 254 175 q 291 250 283 224 q 294 295 298 275 q 273 324 290 314 q 224 326 257 334 q 208 324 211 323 q 208 328 205 326 q 214 334 210 331 q 221 338 219 337 q 277 346 256 353 q 308 319 299 339 q 314 270 317 299 q 295 211 311 241 q 253 153 280 180 q 189 111 227 126 q 118 97 151 94 q 60 116 85 99 q 19 160 35 132 q -2 224 3 189 q 3 300 -6 260 q 37 383 12 341 q 104 464 62 425 q 208 538 146 504 q 325 579 266 570 q 429 568 383 587 q 468 539 454 557 q 489 499 483 522 q 494 450 495 477 q 486 396 492 424 q 468 339 480 370 q 442 277 456 309 q 413 213 427 245 q 387 149 398 180 q 369 89 376 118 q 366 35 363 60 q 382 -2 368 9 q 416 -7 395 -13 q 463 21 437 -1 q 517 84 489 43 q 550 138 534 109 q 580 196 566 167 q 608 251 595 224 q 631 296 621 277 q 652 323 642 315 q 669 332 663 332 m 675 492 q 669 476 675 483 q 653 470 663 470 q 637 476 644 470 q 630 492 630 482 q 636 508 630 502 q 652 515 642 515 q 668 509 661 515 q 675 492 675 503 m 587 492 q 581 476 587 483 q 566 470 575 470 q 549 476 556 470 q 543 492 543 482 q 549 508 543 502 q 564 515 555 515 q 581 509 574 515 q 587 492 587 503 "},"Ù":{"ha":639,"x_min":-6,"x_max":682,"o":"m 669 332 q 681 314 681 326 q 676 288 682 302 q 661 258 670 274 q 644 227 651 242 q 625 183 637 212 q 604 117 613 153 q 591 61 596 89 q 587 12 587 34 q 593 -24 587 -11 q 613 -37 599 -38 q 629 -39 625 -37 q 631 -45 633 -42 q 623 -52 629 -49 q 608 -53 616 -54 q 574 -28 585 -49 q 560 19 563 -8 q 561 75 557 46 q 568 126 564 104 q 550 97 561 113 q 527 65 540 81 q 459 -1 493 22 q 398 -26 426 -23 q 352 -13 371 -28 q 327 35 332 3 q 329 87 323 58 q 346 148 334 116 q 372 214 357 180 q 401 281 387 248 q 428 344 415 314 q 446 399 440 374 q 455 447 452 423 q 457 490 458 470 q 450 524 456 509 q 432 546 444 538 q 384 562 411 559 q 327 560 357 565 q 266 544 297 555 q 206 515 235 532 q 120 450 155 486 q 62 378 84 415 q 32 304 41 340 q 25 235 23 267 q 41 177 28 203 q 75 135 54 151 q 125 116 96 119 q 190 126 155 113 q 234 155 213 135 q 269 200 254 175 q 291 250 283 224 q 294 295 298 275 q 273 324 290 314 q 224 326 257 334 q 208 324 211 323 q 208 328 205 326 q 214 334 210 331 q 221 338 219 337 q 277 346 256 353 q 308 319 299 339 q 314 270 317 299 q 295 211 311 241 q 253 153 280 180 q 189 111 227 126 q 118 97 151 94 q 60 116 85 99 q 19 160 35 132 q -2 224 3 189 q 3 300 -6 260 q 37 383 12 341 q 104 464 62 425 q 208 538 146 504 q 325 579 266 570 q 429 568 383 587 q 468 539 454 557 q 489 499 483 522 q 494 450 495 477 q 486 396 492 424 q 468 339 480 370 q 442 277 456 309 q 413 213 427 245 q 387 149 398 180 q 369 89 376 118 q 366 35 363 60 q 382 -2 368 9 q 416 -7 395 -13 q 463 21 437 -1 q 517 84 489 43 q 550 138 534 109 q 580 196 566 167 q 608 251 595 224 q 631 296 621 277 q 652 323 642 315 q 669 332 663 332 m 650 473 q 644 467 650 467 q 628 474 642 467 q 600 488 615 480 q 570 504 584 496 q 551 514 555 512 q 533 526 541 519 q 526 545 526 533 q 529 555 526 551 q 538 559 533 559 q 551 553 542 559 q 573 537 561 547 q 600 518 586 528 q 624 498 613 507 q 643 481 635 488 q 650 473 650 475 "},"Ű":{"ha":639,"x_min":-6,"x_max":682,"o":"m 669 332 q 681 314 681 326 q 676 288 682 302 q 661 258 670 274 q 644 227 651 242 q 625 183 637 212 q 604 117 613 153 q 591 61 596 89 q 587 12 587 34 q 593 -24 587 -11 q 613 -37 599 -38 q 629 -39 625 -37 q 631 -45 633 -42 q 623 -52 629 -49 q 608 -53 616 -54 q 574 -28 585 -49 q 560 19 563 -8 q 561 75 557 46 q 568 126 564 104 q 550 97 561 113 q 527 65 540 81 q 459 -1 493 22 q 398 -26 426 -23 q 352 -13 371 -28 q 327 35 332 3 q 329 87 323 58 q 346 148 334 116 q 372 214 357 180 q 401 281 387 248 q 428 344 415 314 q 446 399 440 374 q 455 447 452 423 q 457 490 458 470 q 450 524 456 509 q 432 546 444 538 q 384 562 411 559 q 327 560 357 565 q 266 544 297 555 q 206 515 235 532 q 120 450 155 486 q 62 378 84 415 q 32 304 41 340 q 25 235 23 267 q 41 177 28 203 q 75 135 54 151 q 125 116 96 119 q 190 126 155 113 q 234 155 213 135 q 269 200 254 175 q 291 250 283 224 q 294 295 298 275 q 273 324 290 314 q 224 326 257 334 q 208 324 211 323 q 208 328 205 326 q 214 334 210 331 q 221 338 219 337 q 277 346 256 353 q 308 319 299 339 q 314 270 317 299 q 295 211 311 241 q 253 153 280 180 q 189 111 227 126 q 118 97 151 94 q 60 116 85 99 q 19 160 35 132 q -2 224 3 189 q 3 300 -6 260 q 37 383 12 341 q 104 464 62 425 q 208 538 146 504 q 325 579 266 570 q 429 568 383 587 q 468 539 454 557 q 489 499 483 522 q 494 450 495 477 q 486 396 492 424 q 468 339 480 370 q 442 277 456 309 q 413 213 427 245 q 387 149 398 180 q 369 89 376 118 q 366 35 363 60 q 382 -2 368 9 q 416 -7 395 -13 q 463 21 437 -1 q 517 84 489 43 q 550 138 534 109 q 580 196 566 167 q 608 251 595 224 q 631 296 621 277 q 652 323 642 315 q 669 332 663 332 m 586 525 q 582 506 587 522 q 568 473 576 490 q 553 441 560 455 q 544 426 545 427 q 537 430 538 425 q 538 442 536 431 q 543 466 541 453 q 548 491 545 479 q 551 507 551 503 q 556 522 552 514 q 570 532 561 529 q 586 525 581 534 m 665 525 q 661 506 667 522 q 647 473 655 490 q 632 441 640 455 q 623 426 625 427 q 616 430 618 425 q 618 442 616 431 q 623 466 620 453 q 628 491 625 479 q 631 507 630 503 q 636 522 632 514 q 650 532 640 529 q 665 525 661 534 "},"Ū":{"ha":639,"x_min":-6,"x_max":688,"o":"m 669 332 q 681 314 681 326 q 676 288 682 302 q 661 258 670 274 q 644 227 651 242 q 625 183 637 212 q 604 117 613 153 q 591 61 596 89 q 587 12 587 34 q 593 -24 587 -11 q 613 -37 599 -38 q 629 -39 625 -37 q 631 -45 633 -42 q 623 -52 629 -49 q 608 -53 616 -54 q 574 -28 585 -49 q 560 19 563 -8 q 561 75 557 46 q 568 126 564 104 q 550 97 561 113 q 527 65 540 81 q 459 -1 493 22 q 398 -26 426 -23 q 352 -13 371 -28 q 327 35 332 3 q 329 87 323 58 q 346 148 334 116 q 372 214 357 180 q 401 281 387 248 q 428 344 415 314 q 446 399 440 374 q 455 447 452 423 q 457 490 458 470 q 450 524 456 509 q 432 546 444 538 q 384 562 411 559 q 327 560 357 565 q 266 544 297 555 q 206 515 235 532 q 120 450 155 486 q 62 378 84 415 q 32 304 41 340 q 25 235 23 267 q 41 177 28 203 q 75 135 54 151 q 125 116 96 119 q 190 126 155 113 q 234 155 213 135 q 269 200 254 175 q 291 250 283 224 q 294 295 298 275 q 273 324 290 314 q 224 326 257 334 q 208 324 211 323 q 208 328 205 326 q 214 334 210 331 q 221 338 219 337 q 277 346 256 353 q 308 319 299 339 q 314 270 317 299 q 295 211 311 241 q 253 153 280 180 q 189 111 227 126 q 118 97 151 94 q 60 116 85 99 q 19 160 35 132 q -2 224 3 189 q 3 300 -6 260 q 37 383 12 341 q 104 464 62 425 q 208 538 146 504 q 325 579 266 570 q 429 568 383 587 q 468 539 454 557 q 489 499 483 522 q 494 450 495 477 q 486 396 492 424 q 468 339 480 370 q 442 277 456 309 q 413 213 427 245 q 387 149 398 180 q 369 89 376 118 q 366 35 363 60 q 382 -2 368 9 q 416 -7 395 -13 q 463 21 437 -1 q 517 84 489 43 q 550 138 534 109 q 580 196 566 167 q 608 251 595 224 q 631 296 621 277 q 652 323 642 315 q 669 332 663 332 m 677 427 l 532 427 l 544 453 l 688 453 l 677 427 "},"Ų":{"ha":639,"x_min":-6,"x_max":682,"o":"m 669 332 q 681 314 681 326 q 676 288 682 302 q 661 258 670 274 q 644 227 651 242 q 625 183 637 212 q 604 117 613 153 q 591 61 596 89 q 587 12 587 34 q 593 -24 587 -11 q 613 -37 599 -38 q 629 -39 625 -37 q 631 -45 633 -42 q 623 -52 629 -49 q 608 -53 616 -54 q 574 -28 585 -49 q 560 19 563 -8 q 561 75 557 46 q 568 126 564 104 q 550 97 561 113 q 527 65 540 81 q 459 -1 493 22 q 398 -26 426 -23 q 352 -13 371 -28 q 327 35 332 3 q 329 87 323 58 q 346 148 334 116 q 372 214 357 180 q 401 281 387 248 q 428 344 415 314 q 446 399 440 374 q 455 447 452 423 q 457 490 458 470 q 450 524 456 509 q 432 546 444 538 q 384 562 411 559 q 327 560 357 565 q 266 544 297 555 q 206 515 235 532 q 120 450 155 486 q 62 378 84 415 q 32 304 41 340 q 25 235 23 267 q 41 177 28 203 q 75 135 54 151 q 125 116 96 119 q 190 126 155 113 q 234 155 213 135 q 269 200 254 175 q 291 250 283 224 q 294 295 298 275 q 273 324 290 314 q 224 326 257 334 q 208 324 211 323 q 208 328 205 326 q 214 334 210 331 q 221 338 219 337 q 277 346 256 353 q 308 319 299 339 q 314 270 317 299 q 295 211 311 241 q 253 153 280 180 q 189 111 227 126 q 118 97 151 94 q 60 116 85 99 q 19 160 35 132 q -2 224 3 189 q 3 300 -6 260 q 37 383 12 341 q 104 464 62 425 q 208 538 146 504 q 325 579 266 570 q 429 568 383 587 q 468 539 454 557 q 489 499 483 522 q 494 450 495 477 q 486 396 492 424 q 468 339 480 370 q 442 277 456 309 q 413 213 427 245 q 387 149 398 180 q 369 89 376 118 q 366 35 363 60 q 382 -2 368 9 q 416 -7 395 -13 q 463 21 437 -1 q 517 84 489 43 q 550 138 534 109 q 580 196 566 167 q 608 251 595 224 q 631 296 621 277 q 652 323 642 315 q 669 332 663 332 m 456 -8 q 428 -33 442 -19 q 402 -62 414 -47 q 383 -92 391 -77 q 375 -119 376 -107 q 379 -135 375 -128 q 395 -141 383 -141 q 413 -134 404 -141 q 429 -121 422 -127 q 434 -119 431 -119 q 436 -123 437 -119 q 430 -135 435 -129 q 416 -148 425 -142 q 396 -157 407 -153 q 372 -161 385 -161 q 350 -154 359 -161 q 341 -131 340 -146 q 354 -95 342 -115 q 385 -56 367 -75 q 421 -22 402 -37 q 452 -1 439 -7 q 455 -1 454 -1 q 456 -8 457 -1 "},"Ů":{"ha":639,"x_min":-6,"x_max":682,"o":"m 669 332 q 681 314 681 326 q 676 288 682 302 q 661 258 670 274 q 644 227 651 242 q 625 183 637 212 q 604 117 613 153 q 591 61 596 89 q 587 12 587 34 q 593 -24 587 -11 q 613 -37 599 -38 q 629 -39 625 -37 q 631 -45 633 -42 q 623 -52 629 -49 q 608 -53 616 -54 q 574 -28 585 -49 q 560 19 563 -8 q 561 75 557 46 q 568 126 564 104 q 550 97 561 113 q 527 65 540 81 q 459 -1 493 22 q 398 -26 426 -23 q 352 -13 371 -28 q 327 35 332 3 q 329 87 323 58 q 346 148 334 116 q 372 214 357 180 q 401 281 387 248 q 428 344 415 314 q 446 399 440 374 q 455 447 452 423 q 457 490 458 470 q 450 524 456 509 q 432 546 444 538 q 384 562 411 559 q 327 560 357 565 q 266 544 297 555 q 206 515 235 532 q 120 450 155 486 q 62 378 84 415 q 32 304 41 340 q 25 235 23 267 q 41 177 28 203 q 75 135 54 151 q 125 116 96 119 q 190 126 155 113 q 234 155 213 135 q 269 200 254 175 q 291 250 283 224 q 294 295 298 275 q 273 324 290 314 q 224 326 257 334 q 208 324 211 323 q 208 328 205 326 q 214 334 210 331 q 221 338 219 337 q 277 346 256 353 q 308 319 299 339 q 314 270 317 299 q 295 211 311 241 q 253 153 280 180 q 189 111 227 126 q 118 97 151 94 q 60 116 85 99 q 19 160 35 132 q -2 224 3 189 q 3 300 -6 260 q 37 383 12 341 q 104 464 62 425 q 208 538 146 504 q 325 579 266 570 q 429 568 383 587 q 468 539 454 557 q 489 499 483 522 q 494 450 495 477 q 486 396 492 424 q 468 339 480 370 q 442 277 456 309 q 413 213 427 245 q 387 149 398 180 q 369 89 376 118 q 366 35 363 60 q 382 -2 368 9 q 416 -7 395 -13 q 463 21 437 -1 q 517 84 489 43 q 550 138 534 109 q 580 196 566 167 q 608 251 595 224 q 631 296 621 277 q 652 323 642 315 q 669 332 663 332 m 593 536 q 598 518 593 525 q 612 511 604 511 q 628 518 622 511 q 635 537 634 526 q 631 555 637 548 q 616 562 625 562 q 601 554 608 561 q 593 536 595 547 m 570 534 q 586 561 571 550 q 619 572 601 571 q 650 563 638 573 q 660 537 661 552 q 644 511 658 522 q 610 499 629 500 q 579 509 591 498 q 570 534 568 519 "}}}
